<svg xmlns="http://www.w3.org/2000/svg" xmlns:xlink="http://www.w3.org/1999/xlink" width="67" zoomAndPan="magnify" viewBox="0 0 50.25 43.499999" height="58" preserveAspectRatio="xMidYMid meet" version="1.2"><defs><clipPath id="8d0f9918dc"><path d="M 0 0.0742188 L 48.773438 0.0742188 L 48.773438 42.195312 L 0 42.195312 Z M 0 0.0742188 "/></clipPath></defs><g id="34a89d7d5d"><g clip-rule="nonzero" clip-path="url(#8d0f9918dc)"><path style=" stroke:none;fill-rule:nonzero;fill:#ffb807;fill-opacity:1;" d="M 7.304688 34.925781 C 8.988281 35.570312 11.371094 36.167969 14.429688 36.167969 C 16.105469 36.160156 17.765625 35.996094 19.410156 35.671875 C 20.699219 38.152344 23.054688 40.320312 25.519531 41.265625 C 27.207031 41.917969 29.601562 42.515625 32.671875 42.515625 C 34.917969 42.503906 37.132812 42.214844 39.308594 41.65625 C 40.828125 41.277344 42.199219 40.597656 43.417969 39.613281 C 44.640625 38.632812 45.59375 37.4375 46.285156 36.03125 C 46.957031 34.671875 47.3125 33.238281 47.347656 31.726562 C 47.386719 30.210938 47.101562 28.761719 46.496094 27.375 C 46.457031 27.277344 46.414062 27.183594 46.371094 27.089844 C 45.925781 26.148438 45.394531 25.261719 44.773438 24.429688 C 46.414062 23.007812 47.527344 21.257812 48.113281 19.171875 C 48.445312 18.027344 48.570312 16.859375 48.492188 15.671875 C 48.414062 14.480469 48.136719 13.339844 47.660156 12.25 C 47.621094 12.15625 47.578125 12.0625 47.535156 11.96875 C 46.238281 9.195312 44.101562 6.824219 41.363281 5.109375 C 40.222656 4.394531 39.75 3.394531 39.332031 2.515625 C 39.230469 2.300781 39.128906 2.089844 39.019531 1.886719 C 39.011719 1.871094 39.003906 1.855469 38.996094 1.84375 C 38.625 1.167969 38.140625 0.609375 37.234375 0.609375 C 36.894531 0.605469 36.558594 0.644531 36.226562 0.726562 C 35.792969 0.296875 35.269531 0.0820312 34.660156 0.0742188 C 33.351562 0.0742188 31.945312 1.800781 30.996094 3.25 C 29.941406 4.859375 28.101562 5.882812 26.273438 6.75 C 24.023438 7.8125 21.828125 10.0625 20.582031 12.515625 C 20.335938 12.121094 20.117188 11.710938 19.925781 11.289062 C 19.824219 11.074219 19.726562 10.863281 19.613281 10.660156 C 19.609375 10.644531 19.601562 10.628906 19.589844 10.617188 C 19.21875 9.941406 18.734375 9.382812 17.828125 9.382812 C 17.390625 9.375 16.964844 9.441406 16.550781 9.582031 C 16.136719 8.953125 15.585938 8.847656 15.253906 8.847656 C 14.53125 8.847656 13.308594 9.398438 11.589844 12.023438 C 10.535156 13.628906 8.710938 14.648438 6.890625 15.511719 C 4.257812 16.757812 2.210938 18.882812 1.128906 21.488281 C 0.015625 24.167969 0.0507812 26.816406 1.234375 29.363281 C 2.417969 31.90625 4.574219 33.882812 7.304688 34.925781 Z M 45.328125 27.578125 C 45.367188 27.664062 45.40625 27.75 45.441406 27.835938 C 45.976562 29.066406 46.230469 30.355469 46.195312 31.699219 C 46.164062 33.042969 45.847656 34.316406 45.253906 35.523438 C 44.636719 36.777344 43.78125 37.839844 42.695312 38.71875 C 41.605469 39.59375 40.386719 40.203125 39.027344 40.539062 C 32.921875 42.066406 28.535156 41.191406 25.933594 40.191406 C 23.84375 39.390625 21.769531 37.519531 20.585938 35.421875 C 20.742188 35.386719 20.90625 35.347656 21.066406 35.304688 C 22.585938 34.929688 23.957031 34.246094 25.175781 33.265625 C 26.398438 32.28125 27.351562 31.085938 28.042969 29.679688 C 28.726562 28.296875 29.078125 26.839844 29.109375 25.300781 C 32.128906 23.222656 33.054688 20.914062 33.734375 19.210938 C 34.050781 18.425781 34.289062 17.859375 34.597656 17.484375 C 34.847656 18.347656 34.78125 19.519531 34.402344 20.769531 C 33.859375 22.550781 32.71875 24.40625 31.097656 26.144531 C 30.515625 26.753906 30.085938 27.453125 29.808594 28.246094 C 29.359375 29.546875 29.480469 30.714844 30.15625 31.628906 C 30.25 31.757812 30.375 31.832031 30.535156 31.859375 C 30.691406 31.882812 30.835938 31.847656 30.964844 31.753906 C 31.09375 31.65625 31.167969 31.53125 31.191406 31.371094 C 31.214844 31.214844 31.175781 31.070312 31.082031 30.941406 C 30.636719 30.339844 30.574219 29.558594 30.894531 28.621094 C 31.125 27.984375 31.472656 27.417969 31.9375 26.929688 C 35.609375 23 36.425781 19.125 35.621094 16.917969 C 35.769531 16.894531 35.917969 16.886719 36.070312 16.886719 C 36.375 16.886719 36.558594 17.050781 36.796875 17.46875 C 36.914062 18.09375 37.625 22.339844 35.453125 25.492188 C 34.128906 27.410156 33.648438 29.335938 33.976562 31.375 C 34 31.515625 34.0625 31.632812 34.171875 31.722656 C 34.277344 31.816406 34.402344 31.859375 34.542969 31.859375 C 34.574219 31.859375 34.605469 31.859375 34.636719 31.851562 C 34.792969 31.828125 34.917969 31.75 35.011719 31.621094 C 35.105469 31.492188 35.140625 31.351562 35.113281 31.191406 C 34.832031 29.460938 35.253906 27.808594 36.402344 26.144531 C 37.808594 24.097656 38.152344 21.71875 38.160156 19.917969 C 38.308594 20.105469 38.464844 20.285156 38.632812 20.453125 C 38.882812 20.808594 41.046875 24.117188 37.875 27.195312 C 37.761719 27.304688 37.703125 27.441406 37.703125 27.601562 C 37.699219 27.757812 37.753906 27.894531 37.863281 28.007812 C 37.976562 28.125 38.109375 28.183594 38.269531 28.183594 C 38.429688 28.1875 38.5625 28.132812 38.679688 28.023438 C 40.769531 25.988281 40.894531 23.839844 40.632812 22.394531 C 40.59375 22.195312 40.550781 22.003906 40.5 21.824219 C 41.632812 22.632812 42.636719 23.582031 43.511719 24.667969 C 43.515625 24.671875 43.519531 24.679688 43.523438 24.683594 C 43.53125 24.695312 43.542969 24.707031 43.550781 24.71875 C 44.253906 25.601562 44.847656 26.554688 45.328125 27.578125 Z M 28.4375 21.472656 C 29.378906 20.796875 30.164062 19.976562 30.792969 19.003906 C 32.515625 16.378906 33.457031 16.347656 33.496094 16.347656 C 33.664062 16.347656 33.8125 16.390625 33.953125 16.480469 C 33.359375 17.050781 33.027344 17.882812 32.664062 18.785156 C 32.054688 20.308594 31.3125 22.167969 29.039062 23.925781 C 28.941406 23.082031 28.742188 22.261719 28.4375 21.472656 Z M 26.765625 7.789062 C 28.652344 6.898438 30.742188 5.734375 31.957031 3.878906 C 33.679688 1.253906 34.621094 1.222656 34.660156 1.222656 C 34.816406 1.226562 34.964844 1.261719 35.105469 1.332031 C 34.605469 1.804688 34.328125 2.457031 34.042969 3.132812 C 33.429688 4.574219 32.667969 6.371094 29.519531 7.980469 C 24.417969 10.589844 25.371094 14.171875 25.414062 14.324219 C 25.457031 14.476562 25.546875 14.59375 25.6875 14.675781 C 25.824219 14.753906 25.972656 14.773438 26.125 14.726562 C 26.28125 14.683594 26.394531 14.59375 26.472656 14.453125 C 26.550781 14.3125 26.570312 14.167969 26.523438 14.011719 C 26.492188 13.898438 25.824219 11.164062 30.042969 9.007812 C 33.566406 7.207031 34.453125 5.113281 35.101562 3.582031 C 35.378906 2.9375 35.574219 2.472656 35.890625 2.171875 C 36.359375 3.054688 36.558594 4.492188 36.015625 5.996094 C 35.53125 7.285156 34.683594 8.246094 33.464844 8.886719 C 30.054688 10.734375 29.511719 12.46875 29.488281 13.34375 C 29.484375 13.5 29.539062 13.636719 29.648438 13.753906 C 29.757812 13.867188 29.890625 13.929688 30.050781 13.933594 C 30.210938 13.9375 30.347656 13.882812 30.460938 13.773438 C 30.578125 13.664062 30.636719 13.53125 30.640625 13.371094 C 30.667969 12.328125 31.925781 11.027344 34.015625 9.898438 C 34.726562 9.523438 35.347656 9.03125 35.878906 8.429688 C 36.410156 7.824219 36.816406 7.144531 37.097656 6.386719 C 37.671875 4.804688 37.613281 3.0625 36.980469 1.769531 C 37.058594 1.765625 37.144531 1.761719 37.234375 1.761719 C 37.539062 1.761719 37.722656 1.925781 37.960938 2.347656 C 38.214844 3.777344 38.238281 5.210938 38.023438 6.648438 C 37.550781 9.699219 35.992188 11.832031 33.394531 12.992188 C 33.246094 13.054688 33.144531 13.164062 33.089844 13.3125 C 33.03125 13.460938 33.035156 13.605469 33.101562 13.753906 C 33.164062 13.898438 33.269531 14 33.421875 14.054688 C 33.570312 14.113281 33.714844 14.109375 33.859375 14.042969 C 36.8125 12.730469 38.648438 10.222656 39.167969 6.789062 C 39.269531 6.125 39.320312 5.457031 39.320312 4.789062 C 39.46875 4.976562 39.628906 5.160156 39.796875 5.328125 C 40.046875 5.683594 42.210938 8.996094 39.039062 12.070312 C 38.925781 12.183594 38.867188 12.316406 38.863281 12.476562 C 38.859375 12.636719 38.914062 12.773438 39.023438 12.890625 C 39.136719 13.003906 39.273438 13.0625 39.433594 13.066406 C 39.59375 13.066406 39.730469 13.011719 39.84375 12.898438 C 41.9375 10.867188 42.058594 8.71875 41.796875 7.273438 C 41.761719 7.074219 41.714844 6.882812 41.664062 6.699219 C 43.796875 8.234375 45.417969 10.167969 46.492188 12.457031 C 46.53125 12.542969 46.570312 12.625 46.605469 12.710938 C 48.214844 16.398438 47.136719 20.859375 44.054688 23.53125 C 42.933594 22.238281 41.648438 21.136719 40.199219 20.230469 C 39.058594 19.519531 38.585938 18.519531 38.167969 17.636719 C 38.066406 17.425781 37.964844 17.210938 37.855469 17.007812 C 37.847656 16.996094 37.84375 16.980469 37.832031 16.96875 C 37.460938 16.289062 36.976562 15.734375 36.070312 15.734375 C 35.707031 15.730469 35.355469 15.777344 35.003906 15.875 C 34.605469 15.421875 34.101562 15.199219 33.496094 15.195312 C 32.1875 15.195312 30.78125 16.925781 29.832031 18.375 C 29.324219 19.15625 28.699219 19.828125 27.957031 20.390625 C 26.644531 17.773438 24.578125 15.527344 21.957031 13.882812 C 21.761719 13.757812 21.574219 13.621094 21.402344 13.472656 C 22.476562 11.097656 24.636719 8.796875 26.765625 7.789062 Z M 2.191406 21.929688 C 3.164062 19.585938 5.011719 17.675781 7.386719 16.550781 C 9.261719 15.664062 11.339844 14.503906 12.554688 12.652344 C 14.273438 10.027344 15.214844 9.996094 15.253906 9.996094 C 15.40625 10.007812 15.519531 10.082031 15.589844 10.214844 C 15.15625 10.675781 14.902344 11.28125 14.636719 11.90625 C 14.023438 13.347656 13.265625 15.144531 10.113281 16.753906 C 5.015625 19.363281 5.964844 22.945312 6.007812 23.097656 C 6.050781 23.25 6.144531 23.367188 6.28125 23.445312 C 6.421875 23.523438 6.566406 23.539062 6.722656 23.496094 C 6.875 23.453125 6.992188 23.359375 7.066406 23.222656 C 7.144531 23.082031 7.160156 22.933594 7.117188 22.78125 C 7.109375 22.753906 6.371094 19.960938 10.636719 17.78125 C 14.160156 15.976562 15.050781 13.882812 15.699219 12.355469 C 15.789062 12.140625 15.871094 11.949219 15.949219 11.773438 C 16.035156 14.238281 14.808594 18.289062 12.5 20.167969 C 8.875 23.125 9.078125 25.101562 9.113281 25.316406 C 9.140625 25.472656 9.21875 25.597656 9.347656 25.691406 C 9.476562 25.78125 9.617188 25.816406 9.777344 25.789062 C 9.933594 25.765625 10.058594 25.6875 10.148438 25.558594 C 10.242188 25.429688 10.277344 25.285156 10.25 25.128906 C 10.25 25.113281 10.152344 23.566406 13.230469 21.058594 C 16.230469 18.613281 17.535156 13.3125 16.972656 10.652344 C 17.25 10.566406 17.535156 10.527344 17.828125 10.535156 C 18.132812 10.535156 18.316406 10.699219 18.554688 11.121094 C 18.808594 12.539062 18.832031 13.960938 18.625 15.386719 C 18.15625 18.457031 16.597656 20.601562 13.988281 21.765625 C 13.839844 21.828125 13.738281 21.9375 13.683594 22.085938 C 13.625 22.234375 13.628906 22.378906 13.695312 22.527344 C 13.757812 22.671875 13.867188 22.773438 14.015625 22.828125 C 14.164062 22.886719 14.308594 22.882812 14.457031 22.816406 C 17.40625 21.503906 19.242188 18.996094 19.761719 15.5625 C 19.863281 14.898438 19.914062 14.230469 19.914062 13.5625 C 20.0625 13.75 20.222656 13.929688 20.390625 14.101562 C 20.640625 14.453125 22.804688 17.765625 19.636719 20.84375 C 19.519531 20.957031 19.460938 21.089844 19.460938 21.25 C 19.457031 21.410156 19.511719 21.546875 19.621094 21.660156 C 19.734375 21.773438 19.867188 21.832031 20.027344 21.835938 C 20.1875 21.835938 20.324219 21.78125 20.4375 21.671875 C 22.53125 19.640625 22.65625 17.492188 22.390625 16.046875 C 22.355469 15.847656 22.308594 15.65625 22.257812 15.472656 C 24.390625 17.007812 26.011719 18.941406 27.085938 21.230469 C 27.125 21.3125 27.164062 21.398438 27.199219 21.484375 C 27.738281 22.714844 27.988281 24.003906 27.957031 25.347656 C 27.921875 26.691406 27.605469 27.96875 27.011719 29.171875 C 26.394531 30.425781 25.542969 31.492188 24.453125 32.367188 C 23.367188 33.246094 22.144531 33.851562 20.785156 34.1875 C 14.695312 35.710938 10.316406 34.847656 7.714844 33.851562 C 5.265625 32.914062 3.335938 31.148438 2.28125 28.875 C 1.238281 26.636719 1.207031 24.300781 2.191406 21.929688 Z M 2.191406 21.929688 "/></g></g></svg>