<svg width="23" height="22" viewBox="0 0 23 22" fill="none" xmlns="http://www.w3.org/2000/svg">
<path d="M12.3951 14.6027L19.6963 6.93978C19.8182 6.81192 19.8862 6.64205 19.8862 6.46541C19.8862 6.28876 19.8182 6.11889 19.6964 5.99103L19.6881 5.98278C19.629 5.92058 19.5579 5.87106 19.4791 5.83721C19.4002 5.80337 19.3153 5.78592 19.2295 5.78592C19.1437 5.78592 19.0589 5.80337 18.98 5.83721C18.9012 5.87106 18.8301 5.92058 18.771 5.98278L11.896 13.1988L5.02372 5.98278C4.96463 5.92058 4.89351 5.87106 4.81468 5.83721C4.73584 5.80337 4.65095 5.78591 4.56516 5.78591C4.47937 5.78591 4.39448 5.80337 4.31564 5.83721C4.23681 5.87106 4.16569 5.92058 4.1066 5.98278L4.09835 5.99103C3.97646 6.11889 3.90847 6.28876 3.90847 6.46541C3.90847 6.64205 3.97646 6.81192 4.09835 6.93978L11.3996 14.6027C11.4638 14.67 11.541 14.7237 11.6266 14.7604C11.7122 14.797 11.8043 14.8159 11.8973 14.8159C11.9904 14.8159 12.0825 14.797 12.1681 14.7604C12.2537 14.7237 12.3309 14.67 12.3951 14.6027Z" fill="white"/>
</svg>
