<svg width="147" height="147" viewBox="0 0 147 147" fill="none" xmlns="http://www.w3.org/2000/svg">
<g clip-path="url(#clip0_178_337)">
<path d="M78.3387 128.625L18.375 68.6611V80.9111C18.375 84.1574 19.6612 87.2811 21.9887 89.5474L69.7025 137.261C74.48 142.039 82.2588 142.039 87.0362 137.261L125.073 99.2249C129.85 94.4474 129.85 86.6686 125.073 81.8911L78.3387 128.625Z" fill="#00BFE9"/>
<path d="M69.7025 106.636C74.48 111.414 82.2588 111.414 87.0362 106.636L125.073 68.6C129.85 63.8225 129.85 56.0438 125.073 51.2663L77.3587 3.5525C75.0321 1.28197 71.9122 0.00762762 68.6613 0L30.625 0C23.8875 0 18.375 5.5125 18.375 12.25V50.2863C18.375 53.5325 19.6612 56.6562 21.9887 58.9225L69.7025 106.636ZM44.4062 18.375C46.4368 18.375 48.3842 19.1816 49.82 20.6175C51.2559 22.0533 52.0625 24.0007 52.0625 26.0312C52.0625 28.0618 51.2559 30.0092 49.82 31.445C48.3842 32.8809 46.4368 33.6875 44.4062 33.6875C42.3757 33.6875 40.4283 32.8809 38.9925 31.445C37.5566 30.0092 36.75 28.0618 36.75 26.0312C36.75 24.0007 37.5566 22.0533 38.9925 20.6175C40.4283 19.1816 42.3757 18.375 44.4062 18.375Z" fill="#00BFE9"/>
</g>
<defs>
<clipPath id="clip0_178_337">
<rect width="147" height="147" fill="white"/>
</clipPath>
</defs>
</svg>
