<svg width="37" height="24" viewBox="0 0 37 24" fill="none" xmlns="http://www.w3.org/2000/svg">
<path d="M36.3226 0.601709C36.7564 0.987482 37 1.51042 37 2.05564C37 2.60087 36.7564 3.1238 36.3226 3.50958L13.9323 23.3983C13.498 23.7836 12.9093 24 12.2954 24C11.6816 24 11.0929 23.7836 10.6586 23.3983L0.62158 14.4827C0.212659 14.0924 -0.0100203 13.5765 0.000346374 13.0435C0.010713 12.5104 0.253318 12.0017 0.677169 11.6242C1.10213 11.2477 1.67486 11.0322 2.27497 11.023C2.87509 11.0138 3.45585 11.2116 3.8952 11.5748L12.2954 19.0365L33.049 0.601709C33.4833 0.216415 34.072 0 34.6858 0C35.2996 0 35.8883 0.216415 36.3226 0.601709Z" fill="white"/>
</svg>
