<svg width="19" height="19" viewBox="0 0 19 19" fill="none" xmlns="http://www.w3.org/2000/svg">
<path d="M3.6221 3.6221C3.84479 3.39948 4.14678 3.27441 4.46166 3.27441C4.77654 3.27441 5.07853 3.39948 5.30122 3.6221L9.50022 7.8211L13.6992 3.6221C13.9232 3.40579 14.2232 3.28609 14.5345 3.2888C14.8459 3.2915 15.1437 3.41639 15.3639 3.63656C15.5841 3.85674 15.7089 4.15458 15.7116 4.46593C15.7144 4.77729 15.5947 5.07726 15.3783 5.30122L11.1793 9.50022L15.3783 13.6992C15.5947 13.9232 15.7144 14.2232 15.7116 14.5345C15.7089 14.8459 15.5841 15.1437 15.3639 15.3639C15.1437 15.5841 14.8459 15.7089 14.5345 15.7116C14.2232 15.7144 13.9232 15.5947 13.6992 15.3783L9.50022 11.1793L5.30122 15.3783C5.07726 15.5947 4.77729 15.7144 4.46593 15.7116C4.15458 15.7089 3.85674 15.5841 3.63656 15.3639C3.41639 15.1437 3.2915 14.8459 3.2888 14.5345C3.28609 14.2232 3.40579 13.9232 3.6221 13.6992L7.8211 9.50022L3.6221 5.30122C3.39948 5.07853 3.27441 4.77654 3.27441 4.46166C3.27441 4.14678 3.39948 3.84479 3.6221 3.6221Z" fill="black"/>
</svg>
