<svg width="59" height="54" viewBox="0 0 59 54" fill="none" xmlns="http://www.w3.org/2000/svg">
<path d="M23.8359 3.51952C26.2969 -0.930984 32.6938 -0.930984 35.1548 3.51952L57.4245 43.7724C59.8108 48.0849 56.6914 53.3749 51.7637 53.3749H7.22991C2.29928 53.3749 -0.820095 48.0849 1.56615 43.7724L23.8359 3.51952ZM32.366 41.8749C32.3782 41.4903 32.313 41.1071 32.1742 40.7482C32.0354 40.3893 31.8259 40.0619 31.5581 39.7855C31.2903 39.5091 30.9698 39.2894 30.6154 39.1393C30.2611 38.9892 29.8802 38.9119 29.4953 38.9119C29.1105 38.9119 28.7296 38.9892 28.3753 39.1393C28.0209 39.2894 27.7003 39.5091 27.4326 39.7855C27.1648 40.0619 26.9553 40.3893 26.8165 40.7482C26.6777 41.1071 26.6125 41.4903 26.6247 41.8749C26.6483 42.6205 26.961 43.3277 27.4968 43.8468C28.0326 44.3659 28.7493 44.6562 29.4953 44.6562C30.2413 44.6562 30.9581 44.3659 31.4939 43.8468C32.0296 43.3277 32.3424 42.6205 32.366 41.8749ZM31.6214 19.2975C31.5469 18.7561 31.2696 18.2631 30.8455 17.9183C30.4214 17.5735 29.8821 17.4027 29.3369 17.4403C28.7916 17.4779 28.281 17.7212 27.9082 18.1209C27.5355 18.5207 27.3285 19.0471 27.329 19.5936L27.3405 32.534L27.3607 32.8273C27.4352 33.3687 27.7125 33.8617 28.1366 34.2065C28.5607 34.5513 29.0999 34.7221 29.6452 34.6845C30.1905 34.6469 30.7011 34.4036 31.0738 34.0038C31.4466 33.6041 31.6536 33.0777 31.653 32.5311L31.6415 19.5879L31.6214 19.2975Z" fill="#FF2020"/>
</svg>
