<svg width="151" height="151" viewBox="0 0 151 151" fill="none" xmlns="http://www.w3.org/2000/svg">
<path d="M71.8571 48.9923C71.8571 53.7677 67.5064 58.8781 61.8652 58.8781V139.484C61.8652 150.929 46.2697 150.929 46.2697 139.484V58.8781C40.7771 58.8781 35.9946 54.6477 35.9946 48.3105V3.94949C35.9946 0.0895509 41.5722 -0.0567302 41.5722 4.10049V36.8911H46.2438V3.79849C46.2438 0.252348 51.6184 0.0258479 51.6184 3.94949V36.8934H56.4457V3.84568C56.4457 0.136738 61.6599 -0.0119022 61.6599 3.99196V36.8934H66.4093V3.84568C66.4093 0.174488 71.8571 0.0305666 71.8571 3.99196V48.9947V48.9923ZM113.46 14.2623V139.448C113.46 150.639 97.8315 150.474 97.8315 139.448V89.7765H89.5123V14.2623C89.5123 -3.31739 113.46 -3.31739 113.46 14.2623Z" fill="#00BFE9"/>
</svg>
