<svg width="32" height="30" viewBox="0 0 32 30" fill="none" xmlns="http://www.w3.org/2000/svg">
<path d="M27.577 0C28.4906 0 29.3667 0.351189 30.0126 0.976311C30.6586 1.60143 31.0215 2.44928 31.0215 3.33333V26.6667C31.0215 27.5507 30.6586 28.3986 30.0126 29.0237C29.3667 29.6488 28.4906 30 27.577 30H3.46593C2.55241 30 1.6763 29.6488 1.03034 29.0237C0.38438 28.3986 0.0214844 27.5507 0.0214844 26.6667V3.33333C0.0214844 2.44928 0.38438 1.60143 1.03034 0.976311C1.6763 0.351189 2.55241 0 3.46593 0H27.577ZM26.7159 25.8333V17C26.7159 15.559 26.1244 14.177 25.0715 13.1581C24.0186 12.1391 22.5905 11.5667 21.1015 11.5667C19.6376 11.5667 17.9326 12.4333 17.1059 13.7333V11.8833H12.3009V25.8333H17.1059V17.6167C17.1059 16.3333 18.1737 15.2833 19.4998 15.2833C20.1393 15.2833 20.7526 15.5292 21.2047 15.9668C21.6569 16.4043 21.9109 16.9978 21.9109 17.6167V25.8333H26.7159ZM6.70371 9.26667C7.47107 9.26667 8.207 8.97167 8.7496 8.44657C9.29221 7.92146 9.59704 7.20927 9.59704 6.46667C9.59704 4.91667 8.30537 3.65 6.70371 3.65C5.93178 3.65 5.19147 3.94675 4.64563 4.47498C4.0998 5.00321 3.79315 5.71964 3.79315 6.46667C3.79315 8.01667 5.10204 9.26667 6.70371 9.26667ZM9.0976 25.8333V11.8833H4.32704V25.8333H9.0976Z" fill="black"/>
</svg>
