<svg width="32" height="31" viewBox="0 0 32 31" fill="none" xmlns="http://www.w3.org/2000/svg">
<path d="M15.5113 9.90088C14.0568 9.90088 12.662 10.47 11.6335 11.4832C10.6051 12.4963 10.0273 13.8704 10.0273 15.3032C10.0273 16.736 10.6051 18.11 11.6335 19.1232C12.662 20.1363 14.0568 20.7055 15.5113 20.7055C16.9657 20.7055 18.3605 20.1363 19.389 19.1232C20.4174 18.11 20.9952 16.736 20.9952 15.3032C20.9952 13.8704 20.4174 12.4963 19.389 11.4832C18.3605 10.47 16.9657 9.90088 15.5113 9.90088Z" fill="black"/>
<path fill-rule="evenodd" clip-rule="evenodd" d="M6.68566 0.480347C12.551 -0.160116 18.4701 -0.160116 24.3354 0.480347C27.5397 0.832743 30.1231 3.3178 30.4994 6.48604C31.1949 12.3449 31.1949 18.2636 30.4994 24.1225C30.1231 27.2907 27.5397 29.7758 24.3371 30.1298C18.4713 30.7705 12.5515 30.7705 6.68566 30.1298C3.48137 29.7758 0.89802 27.2907 0.521738 24.1241C-0.173913 18.2647 -0.173913 12.3454 0.521738 6.48604C0.89802 3.3178 3.48137 0.832743 6.68566 0.480347ZM23.9474 5.33078C23.4998 5.33078 23.0706 5.50591 22.7542 5.81764C22.4378 6.12937 22.26 6.55217 22.26 6.99302C22.26 7.43388 22.4378 7.85668 22.7542 8.16841C23.0706 8.48014 23.4998 8.65527 23.9474 8.65527C24.3949 8.65527 24.8241 8.48014 25.1405 8.16841C25.4569 7.85668 25.6347 7.43388 25.6347 6.99302C25.6347 6.55217 25.4569 6.12937 25.1405 5.81764C24.8241 5.50591 24.3949 5.33078 23.9474 5.33078ZM7.4956 15.3042C7.4956 13.2102 8.34003 11.2019 9.84312 9.72117C11.3462 8.24045 13.3849 7.40858 15.5106 7.40858C17.6363 7.40858 19.6749 8.24045 21.178 9.72117C22.6811 11.2019 23.5255 13.2102 23.5255 15.3042C23.5255 17.3983 22.6811 19.4066 21.178 20.8873C19.6749 22.368 17.6363 23.1999 15.5106 23.1999C13.3849 23.1999 11.3462 22.368 9.84312 20.8873C8.34003 19.4066 7.4956 17.3983 7.4956 15.3042Z" fill="black"/>
</svg>
