<svg width="39" height="30" viewBox="0 0 39 30" fill="none" xmlns="http://www.w3.org/2000/svg">
<path d="M15.2215 21.4286L25.0825 15L15.2215 8.57143V21.4286ZM37.1855 4.65C37.4325 5.65714 37.6035 7.00714 37.7175 8.72143C37.8505 10.4357 37.9075 11.9143 37.9075 13.2L38.0215 15C38.0215 19.6929 37.7175 23.1429 37.1855 25.35C36.7105 27.2786 35.6085 28.5214 33.8985 29.0571C33.0055 29.3357 31.3715 29.5286 28.8635 29.6571C26.3935 29.8071 24.1325 29.8714 22.0425 29.8714L19.0215 30C11.0605 30 6.10148 29.6571 4.14448 29.0571C2.43448 28.5214 1.33248 27.2786 0.857485 25.35C0.610485 24.3429 0.439485 22.9929 0.325485 21.2786C0.192485 19.5643 0.135484 18.0857 0.135484 16.8L0.0214844 15C0.0214844 10.3071 0.325484 6.85714 0.857485 4.65C1.33248 2.72143 2.43448 1.47857 4.14448 0.942857C5.03749 0.664286 6.67149 0.471428 9.17949 0.342857C11.6495 0.192857 13.9105 0.128571 16.0005 0.128571L19.0215 0C26.9825 0 31.9415 0.342857 33.8985 0.942857C35.6085 1.47857 36.7105 2.72143 37.1855 4.65Z" fill="black"/>
</svg>
