<svg width="166" height="166" viewBox="0 0 166 166" fill="none" xmlns="http://www.w3.org/2000/svg">
<path d="M149.4 77.4668C149.409 88.1156 146.853 98.61 141.949 108.062C137.045 117.515 129.936 125.647 121.224 131.771L132.8 154.933H33.2001L44.7758 131.771C35.4522 125.207 27.976 116.352 23.0675 106.061C18.1589 95.7686 15.9834 84.3861 16.7506 73.0094C17.5177 61.6328 21.2016 50.6454 27.4474 41.1056C33.6932 31.5659 42.2904 23.7952 52.4109 18.5423C62.5313 13.2894 73.834 10.7312 85.23 11.1141C96.6261 11.4971 107.732 14.8082 117.477 20.7287C127.222 26.6491 135.278 34.9793 140.869 44.9168C146.46 54.8543 149.398 66.0643 149.4 77.4668ZM136.098 78.8501H99.5448C99.246 82.3914 97.8405 85.6229 95.6715 88.1904L121.523 114.042C130.58 104.526 135.775 91.9829 136.098 78.8501ZM119.575 115.99L93.7237 90.1381C92.1894 91.4409 90.4306 92.4535 88.5335 93.1261V130.31C100.18 129.101 111.096 124.065 119.575 115.99ZM66.4555 78.8501H29.9022C30.2252 91.9829 35.4201 104.526 44.477 114.042L70.3288 88.1904C68.0939 85.5578 66.7395 82.2916 66.4555 78.8501ZM46.4248 115.99C54.9054 124.061 65.822 129.093 77.4668 130.299V93.115C75.5705 92.4457 73.8117 91.437 72.2765 90.1381L46.4248 115.99ZM136.098 76.0834C135.775 62.9506 130.58 50.4071 121.523 40.8914L95.6715 66.7432C97.8405 69.3106 99.246 72.5421 99.5448 76.0834H136.098ZM119.575 38.9437C110.06 29.8867 97.5163 24.6918 84.3835 24.3689V60.9221C87.9248 61.2209 91.1562 62.6264 93.7237 64.7954L119.575 38.9437ZM81.6168 60.9221V24.3689C68.4839 24.6918 55.9404 29.8867 46.4248 38.9437L72.2765 64.7954C74.844 62.6264 78.0755 61.2209 81.6168 60.9221ZM70.3288 66.7432L44.477 40.8914C35.4201 50.4071 30.2252 62.9506 29.9022 76.0834H66.4555C66.7543 72.5421 68.1597 69.3106 70.3288 66.7432Z" fill="#00BFE9"/>
</svg>
