<svg width="20" height="20" viewBox="0 0 20 20" fill="none" xmlns="http://www.w3.org/2000/svg">
<path d="M9.57013 6.20117C8.67274 6.20117 7.81211 6.55766 7.17756 7.19221C6.54301 7.82676 6.18652 8.68739 6.18652 9.58478C6.18652 10.4822 6.54301 11.3428 7.17756 11.9774C7.81211 12.6119 8.67274 12.9684 9.57013 12.9684C10.4675 12.9684 11.3282 12.6119 11.9627 11.9774C12.5973 11.3428 12.9537 10.4822 12.9537 9.58478C12.9537 8.68739 12.5973 7.82676 11.9627 7.19221C11.3282 6.55766 10.4675 6.20117 9.57013 6.20117Z" fill="white"/>
<path fill-rule="evenodd" clip-rule="evenodd" d="M4.12509 0.300855C7.74402 -0.100285 11.3962 -0.100285 15.0151 0.300855C16.9922 0.52157 18.5861 2.07803 18.8183 4.06239C19.2474 7.73195 19.2474 11.439 18.8183 15.1086C18.5861 17.0929 16.9922 18.6494 15.0162 18.8711C11.3969 19.2724 7.74436 19.2724 4.12509 18.8711C2.14802 18.6494 0.554083 17.0929 0.321916 15.1096C-0.107305 11.4397 -0.107305 7.73229 0.321916 4.06239C0.554083 2.07803 2.14802 0.52157 4.12509 0.300855ZM14.7757 3.33882C14.4995 3.33882 14.2347 3.4485 14.0395 3.64375C13.8442 3.839 13.7345 4.10381 13.7345 4.37993C13.7345 4.65605 13.8442 4.92086 14.0395 5.1161C14.2347 5.31135 14.4995 5.42104 14.7757 5.42104C15.0518 5.42104 15.3166 5.31135 15.5118 5.1161C15.7071 4.92086 15.8168 4.65605 15.8168 4.37993C15.8168 4.10381 15.7071 3.839 15.5118 3.64375C15.3166 3.4485 15.0518 3.33882 14.7757 3.33882ZM4.62483 9.58548C4.62483 8.27391 5.14585 7.01606 6.07327 6.08864C7.00068 5.16122 8.25853 4.6402 9.5701 4.6402C10.8817 4.6402 12.1395 5.16122 13.0669 6.08864C13.9944 7.01606 14.5154 8.27391 14.5154 9.58548C14.5154 10.8971 13.9944 12.1549 13.0669 13.0823C12.1395 14.0097 10.8817 14.5308 9.5701 14.5308C8.25853 14.5308 7.00068 14.0097 6.07327 13.0823C5.14585 12.1549 4.62483 10.8971 4.62483 9.58548Z" fill="white"/>
</svg>
