<svg width="157" height="156" viewBox="0 0 157 156" fill="none" xmlns="http://www.w3.org/2000/svg">
<path d="M78.8975 14C51.5975 14 26.8975 34.93 26.8975 67.3C26.8975 87.97 42.8225 112.28 74.6075 140.295C77.0775 142.44 80.7825 142.44 83.2525 140.295C114.972 112.28 130.897 87.97 130.897 67.3C130.897 34.93 106.197 14 78.8975 14ZM78.8975 79C71.7475 79 65.8975 73.15 65.8975 66C65.8975 58.85 71.7475 53 78.8975 53C86.0475 53 91.8975 58.85 91.8975 66C91.8975 73.15 86.0475 79 78.8975 79Z" fill="#2995FC"/>
</svg>
