<svg width="150" height="149" viewBox="0 0 150 149" fill="none" xmlns="http://www.w3.org/2000/svg">
<path d="M132.413 49.2976C131.55 48.4283 130.523 47.7389 129.391 47.2693C128.26 46.7997 127.046 46.5593 125.821 46.562H107.196V41.9058C107.196 33.2614 103.762 24.971 97.6498 18.8585C91.5373 12.746 83.2469 9.31201 74.6025 9.31201C65.9581 9.31201 57.6678 12.746 51.5553 18.8585C45.4428 24.971 42.0088 33.2614 42.0088 41.9058V46.562H23.3838C20.914 46.562 18.5453 47.5431 16.7989 49.2896C15.0524 51.036 14.0713 53.4047 14.0713 55.8745V118.734C14.0713 130.083 23.6748 139.687 35.0244 139.687H114.181C119.671 139.689 124.943 137.542 128.871 133.707C130.848 131.821 132.422 129.554 133.498 127.043C134.575 124.532 135.131 121.83 135.134 119.098V55.8745C135.138 54.6528 134.899 53.4424 134.432 52.3135C133.965 51.1846 133.279 50.1595 132.413 49.2976ZM51.3213 41.9058C51.3213 35.7312 53.7741 29.8095 58.1402 25.4434C62.5063 21.0774 68.428 18.6245 74.6025 18.6245C80.7771 18.6245 86.6988 21.0774 91.0649 25.4434C95.431 29.8095 97.8838 35.7312 97.8838 41.9058V46.562H51.3213V41.9058Z" fill="#00BFE9"/>
</svg>
