<svg width="158" height="157" viewBox="0 0 158 157" fill="none" xmlns="http://www.w3.org/2000/svg">
<g clip-path="url(#clip0_178_340)">
<path d="M54.8207 48.0161L13.0848 54.0671L12.3456 54.2176C11.2266 54.5146 10.2065 55.1034 9.38939 55.9236C8.57231 56.7439 7.98758 57.7663 7.6949 58.8865C7.40221 60.0067 7.41207 61.1845 7.72346 62.2996C8.03484 63.4147 8.6366 64.4272 9.46728 65.2337L39.7029 94.6647L32.5725 136.237L32.4874 136.957C32.4189 138.114 32.6592 139.269 33.1838 140.303C33.7083 141.337 34.4982 142.213 35.4726 142.841C36.447 143.469 37.5709 143.827 38.7291 143.878C39.8874 143.929 41.0384 143.672 42.0644 143.132L79.3912 123.507L116.633 143.132L117.287 143.433C118.367 143.858 119.54 143.989 120.687 143.811C121.834 143.633 122.913 143.153 123.813 142.421C124.713 141.688 125.402 140.729 125.81 139.643C126.217 138.556 126.328 137.381 126.131 136.237L118.994 94.6647L149.243 65.2272L149.753 64.6711C150.482 63.7734 150.96 62.6985 151.138 61.556C151.317 60.4134 151.189 59.244 150.768 58.167C150.347 57.0899 149.648 56.1436 148.743 55.4246C147.837 54.7055 146.757 54.2394 145.612 54.0736L103.877 48.0161L85.2198 10.2052C84.6799 9.10972 83.8442 8.18722 82.8072 7.54214C81.7701 6.89707 80.5732 6.55518 79.3519 6.55518C78.1306 6.55518 76.9337 6.89707 75.8967 7.54214C74.8596 8.18722 74.0239 9.10972 73.484 10.2052L54.8207 48.0161Z" fill="#2995FC"/>
</g>
<defs>
<clipPath id="clip0_178_340">
<rect width="157" height="157" fill="white" transform="translate(0.897461)"/>
</clipPath>
</defs>
</svg>
