<svg width="154" height="154" viewBox="0 0 154 154" fill="none" xmlns="http://www.w3.org/2000/svg">
<path d="M43.954 110.046L23.4206 98.8165L30.1581 92.079L46.1998 94.3248L71.2248 69.2998L21.1748 42.029L30.1581 33.0456L91.4373 48.7665L116.623 23.9019C118.441 22.0838 120.714 21.1748 123.444 21.1748C126.173 21.1748 128.444 22.0838 130.258 23.9019C132.076 25.7199 132.985 27.9936 132.985 30.7228C132.985 33.452 132.076 35.7235 130.258 37.5373L105.233 62.5623L120.954 123.841L111.971 132.825L84.6998 82.7748L59.6748 107.8L61.9206 123.841L55.1831 130.579L43.954 110.046Z" fill="#00BFE9"/>
</svg>
