<svg width="31" height="24" viewBox="0 0 31 24" fill="none" xmlns="http://www.w3.org/2000/svg">
<path d="M12.4 17.1429L20.4445 12L12.4 6.85714V17.1429ZM30.318 3.72C30.5195 4.52571 30.659 5.60571 30.752 6.97714C30.8605 8.34857 30.907 9.53143 30.907 10.56L31 12C31 15.7543 30.752 18.5143 30.318 20.28C29.9305 21.8229 29.0315 22.8171 27.6365 23.2457C26.908 23.4686 25.575 23.6229 23.529 23.7257C21.514 23.8457 19.6695 23.8971 17.9645 23.8971L15.5 24C9.0055 24 4.96 23.7257 3.3635 23.2457C1.9685 22.8171 1.0695 21.8229 0.682 20.28C0.4805 19.4743 0.341 18.3943 0.248 17.0229C0.1395 15.6514 0.0929999 14.4686 0.0929999 13.44L0 12C0 8.24571 0.248 5.48571 0.682 3.72C1.0695 2.17714 1.9685 1.18286 3.3635 0.754286C4.092 0.531429 5.425 0.377143 7.471 0.274285C9.486 0.154285 11.3305 0.102857 13.0355 0.102857L15.5 0C21.9945 0 26.04 0.274286 27.6365 0.754286C29.0315 1.18286 29.9305 2.17714 30.318 3.72Z" fill="white"/>
</svg>
