<svg xmlns="http://www.w3.org/2000/svg" xmlns:xlink="http://www.w3.org/1999/xlink" width="227" zoomAndPan="magnify" viewBox="0 0 170.25 30.000001" height="40" preserveAspectRatio="xMidYMid meet" version="1.2"><defs><clipPath id="7ef6115d22"><path d="M 2.382812 0 L 33 0 L 33 29 L 2.382812 29 Z M 2.382812 0 "/></clipPath><clipPath id="67e2b14219"><path d="M 136 0 L 166.414062 0 L 166.414062 29 L 136 29 Z M 136 0 "/></clipPath></defs><g id="357cdc7b62"><g clip-rule="nonzero" clip-path="url(#7ef6115d22)"><path style=" stroke:none;fill-rule:nonzero;fill:#fed526;fill-opacity:1;" d="M 18.582031 0.925781 L 22.207031 8.324219 C 22.371094 8.6875 22.730469 8.949219 23.121094 8.984375 L 31.21875 10.171875 C 32.199219 10.339844 32.625 11.558594 31.90625 12.285156 L 26.027344 18.035156 C 25.734375 18.332031 25.601562 18.726562 25.667969 19.125 L 27.039062 27.25 C 27.203125 28.238281 26.15625 29.03125 25.277344 28.535156 L 18.058594 24.707031 C 17.699219 24.507812 17.273438 24.507812 16.914062 24.707031 L 9.699219 28.570312 C 8.816406 29.03125 7.773438 28.273438 7.933594 27.28125 L 9.308594 19.15625 C 9.371094 18.761719 9.242188 18.363281 8.949219 18.066406 L 3.101562 12.285156 C 2.382812 11.558594 2.777344 10.339844 3.789062 10.171875 L 11.886719 8.984375 C 12.277344 8.917969 12.636719 8.6875 12.800781 8.324219 L 16.394531 0.925781 C 16.851562 0 18.125 0 18.582031 0.925781 Z M 18.582031 0.925781 "/></g><path style=" stroke:none;fill-rule:nonzero;fill:#fed527;fill-opacity:1;" d="M 52.019531 0.925781 L 55.644531 8.324219 C 55.808594 8.6875 56.167969 8.949219 56.558594 8.984375 L 64.660156 10.171875 C 65.636719 10.339844 66.0625 11.558594 65.34375 12.285156 L 59.5 18.035156 C 59.207031 18.332031 59.074219 18.726562 59.140625 19.125 L 60.511719 27.25 C 60.675781 28.238281 59.628906 29.03125 58.746094 28.535156 L 51.53125 24.707031 C 51.171875 24.507812 50.746094 24.507812 50.386719 24.707031 L 43.171875 28.535156 C 42.289062 29 41.246094 28.238281 41.40625 27.25 L 42.777344 19.125 C 42.84375 18.726562 42.714844 18.332031 42.421875 18.035156 L 36.574219 12.253906 C 35.855469 11.527344 36.25 10.304688 37.261719 10.140625 L 45.359375 8.949219 C 45.75 8.882812 46.109375 8.652344 46.273438 8.289062 L 49.898438 0.890625 C 50.289062 0 51.5625 0 52.019531 0.925781 Z M 52.019531 0.925781 "/><path style=" stroke:none;fill-rule:nonzero;fill:#fed528;fill-opacity:1;" d="M 85.460938 0.925781 L 89.085938 8.324219 C 89.25 8.6875 89.609375 8.949219 90 8.984375 L 98.097656 10.171875 C 99.078125 10.339844 99.503906 11.558594 98.785156 12.285156 L 92.9375 18.035156 C 92.644531 18.332031 92.515625 18.726562 92.578125 19.125 L 93.949219 27.25 C 94.113281 28.238281 93.070312 29.03125 92.1875 28.535156 L 84.96875 24.707031 C 84.613281 24.507812 84.1875 24.507812 83.828125 24.707031 L 76.609375 28.535156 C 75.730469 29 74.683594 28.238281 74.847656 27.25 L 76.21875 19.125 C 76.285156 18.726562 76.152344 18.332031 75.859375 18.035156 L 70.015625 12.285156 C 69.296875 11.558594 69.6875 10.339844 70.699219 10.171875 L 78.796875 8.984375 C 79.191406 8.917969 79.550781 8.6875 79.714844 8.324219 L 83.335938 0.925781 C 83.730469 0 85.035156 0 85.460938 0.925781 Z M 85.460938 0.925781 "/><path style=" stroke:none;fill-rule:nonzero;fill:#fed529;fill-opacity:1;" d="M 118.933594 0.925781 L 122.558594 8.324219 C 122.722656 8.6875 123.078125 8.949219 123.472656 8.984375 L 131.570312 10.171875 C 132.550781 10.339844 132.976562 11.558594 132.257812 12.285156 L 126.410156 18.035156 C 126.117188 18.332031 125.988281 18.726562 126.050781 19.125 L 127.421875 27.25 C 127.585938 28.238281 126.542969 29.03125 125.660156 28.535156 L 118.441406 24.707031 C 118.082031 24.507812 117.660156 24.507812 117.300781 24.707031 L 110.082031 28.535156 C 109.203125 29 108.15625 28.238281 108.320312 27.25 L 109.691406 19.125 C 109.757812 18.726562 109.625 18.332031 109.332031 18.035156 L 103.488281 12.253906 C 102.769531 11.527344 103.160156 10.304688 104.171875 10.140625 L 112.269531 8.949219 C 112.664062 8.882812 113.023438 8.652344 113.183594 8.289062 L 116.808594 0.890625 C 117.203125 0 118.476562 0 118.933594 0.925781 Z M 118.933594 0.925781 "/><g clip-rule="nonzero" clip-path="url(#67e2b14219)"><path style=" stroke:none;fill-rule:nonzero;fill:#fed530;fill-opacity:1;" d="M 152.371094 0.925781 L 155.996094 8.324219 C 156.160156 8.6875 156.519531 8.949219 156.910156 8.984375 L 165.011719 10.171875 C 165.988281 10.339844 166.414062 11.558594 165.695312 12.285156 L 159.816406 18.035156 C 159.523438 18.332031 159.394531 18.726562 159.457031 19.125 L 160.832031 27.25 C 160.992188 28.238281 159.949219 29.03125 159.066406 28.535156 L 151.851562 24.707031 C 151.492188 24.507812 151.066406 24.507812 150.707031 24.707031 L 143.488281 28.570312 C 142.609375 29.03125 141.5625 28.273438 141.726562 27.28125 L 143.097656 19.15625 C 143.164062 18.761719 143.03125 18.363281 142.738281 18.066406 L 136.894531 12.285156 C 136.175781 11.558594 136.566406 10.339844 137.578125 10.171875 L 145.679688 8.984375 C 146.070312 8.917969 146.429688 8.6875 146.59375 8.324219 L 150.21875 0.925781 C 150.640625 0 151.914062 0 152.371094 0.925781 Z M 152.371094 0.925781 "/></g></g></svg>