<svg xmlns="http://www.w3.org/2000/svg" xmlns:xlink="http://www.w3.org/1999/xlink" width="75" zoomAndPan="magnify" viewBox="0 0 56.25 56.249997" height="75" preserveAspectRatio="xMidYMid meet" version="1.2"><defs><clipPath id="159d65b481"><path d="M 0 0 L 54.875 0 L 54.875 54.875 L 0 54.875 Z M 0 0 "/></clipPath><clipPath id="b7c47c990c"><path d="M 27.4375 0 L 32.761719 7.558594 L 41.15625 3.675781 L 41.988281 12.886719 L 51.199219 13.71875 L 47.3125 22.113281 L 54.875 27.4375 L 47.3125 32.761719 L 51.199219 41.15625 L 41.988281 41.988281 L 41.15625 51.199219 L 32.761719 47.3125 L 27.4375 54.875 L 22.113281 47.3125 L 13.71875 51.199219 L 12.886719 41.988281 L 3.675781 41.15625 L 7.558594 32.761719 L 0 27.4375 L 7.558594 22.113281 L 3.675781 13.71875 L 12.886719 12.886719 L 13.71875 3.675781 L 22.113281 7.558594 Z M 27.4375 0 "/></clipPath><clipPath id="9ee4481b3e"><path d="M 0 0 L 54.875 0 L 54.875 54.875 L 0 54.875 Z M 0 0 "/></clipPath><clipPath id="37647da754"><path d="M 27.4375 0 L 32.761719 7.558594 L 41.15625 3.675781 L 41.988281 12.886719 L 51.199219 13.71875 L 47.3125 22.113281 L 54.875 27.4375 L 47.3125 32.761719 L 51.199219 41.15625 L 41.988281 41.988281 L 41.15625 51.199219 L 32.761719 47.3125 L 27.4375 54.875 L 22.113281 47.3125 L 13.71875 51.199219 L 12.886719 41.988281 L 3.675781 41.15625 L 7.558594 32.761719 L 0 27.4375 L 7.558594 22.113281 L 3.675781 13.71875 L 12.886719 12.886719 L 13.71875 3.675781 L 22.113281 7.558594 Z M 27.4375 0 "/></clipPath><clipPath id="4ef1dfd94a"><rect x="0" width="55" y="0" height="55"/></clipPath></defs><g id="d71baf4bf6"><g clip-rule="nonzero" clip-path="url(#159d65b481)"><g clip-rule="nonzero" clip-path="url(#b7c47c990c)"><g transform="matrix(1,0,0,1,0,-0.000000000000010214)"><g clip-path="url(#4ef1dfd94a)"><g clip-rule="nonzero" clip-path="url(#9ee4481b3e)"><g clip-rule="nonzero" clip-path="url(#37647da754)"><path style=" stroke:none;fill-rule:nonzero;fill:#884cfc;fill-opacity:1;" d="M 0 0 L 54.875 0 L 54.875 54.875 L 0 54.875 Z M 0 0 "/></g></g></g></g></g></g></g></svg>