<svg xmlns="http://www.w3.org/2000/svg" xmlns:xlink="http://www.w3.org/1999/xlink" width="58" zoomAndPan="magnify" viewBox="0 0 43.5 42.749999" height="57" preserveAspectRatio="xMidYMid meet" version="1.2"><defs><clipPath id="6dffc45659"><path d="M 0 22 L 43 22 L 43 42.382812 L 0 42.382812 Z M 0 22 "/></clipPath><clipPath id="fbaf4b49d0"><path d="M 5 0.121094 L 37 0.121094 L 37 23 L 5 23 Z M 5 0.121094 "/></clipPath></defs><g id="297ebd4cb4"><g clip-rule="nonzero" clip-path="url(#6dffc45659)"><path style=" stroke:none;fill-rule:nonzero;fill:#ffb807;fill-opacity:1;" d="M 41.746094 24.238281 C 40.703125 22.550781 38.480469 22.023438 36.796875 23.066406 L 28.121094 28.34375 C 27.941406 26.914062 26.691406 25.796875 25.199219 25.796875 L 14.261719 25.796875 C 13.492188 25.796875 12.761719 25.601562 12.148438 25.226562 C 10.214844 24.050781 7.878906 23.828125 5.792969 24.566406 L 5.792969 23.316406 C 5.792969 22.859375 5.421875 22.488281 4.964844 22.488281 L 0.828125 22.488281 C 0.371094 22.488281 0 22.859375 0 23.316406 L 0 41.527344 C 0 41.984375 0.371094 42.355469 0.828125 42.355469 L 4.964844 42.355469 C 5.421875 42.355469 5.792969 41.984375 5.792969 41.527344 L 5.792969 40.773438 L 21.445312 40.773438 C 21.699219 40.773438 21.945312 40.707031 22.160156 40.574219 L 40.574219 29.195312 C 42.269531 28.148438 42.792969 25.933594 41.746094 24.238281 Z M 4.136719 40.699219 L 1.65625 40.699219 L 1.65625 24.144531 L 4.136719 24.144531 Z M 40.578125 26.578125 C 40.457031 27.085938 40.148438 27.511719 39.707031 27.785156 L 21.363281 39.121094 L 5.792969 39.121094 L 5.792969 26.355469 C 7.546875 25.523438 9.609375 25.621094 11.285156 26.640625 C 12.160156 27.171875 13.1875 27.453125 14.261719 27.453125 L 25.199219 27.453125 C 25.898438 27.453125 26.476562 28 26.488281 28.671875 C 26.503906 29.367188 25.941406 29.9375 25.246094 29.9375 L 19.039062 29.9375 C 18.582031 29.9375 18.210938 30.308594 18.210938 30.765625 C 18.210938 31.222656 18.582031 31.59375 19.039062 31.59375 L 25.246094 31.59375 C 25.96875 31.59375 26.644531 31.332031 27.175781 30.855469 L 37.660156 24.476562 C 38.101562 24.203125 38.625 24.117188 39.128906 24.238281 C 40.175781 24.484375 40.824219 25.535156 40.578125 26.578125 Z M 40.578125 26.578125 "/></g><g clip-rule="nonzero" clip-path="url(#fbaf4b49d0)"><path style=" stroke:none;fill-rule:nonzero;fill:#ffb807;fill-opacity:1;" d="M 7.898438 18.347656 L 8.164062 18.347656 L 8.988281 20.40625 C 9.492188 21.671875 10.699219 22.488281 12.0625 22.488281 L 30.222656 22.488281 C 31.582031 22.488281 32.789062 21.671875 33.296875 20.40625 L 34.117188 18.347656 L 34.386719 18.347656 C 35.753906 18.347656 36.871094 17.234375 36.871094 15.863281 C 36.871094 14.796875 36.191406 13.886719 35.246094 13.535156 C 33.503906 8.429688 29.015625 4.472656 23.414062 3.621094 C 23.550781 3.3125 23.625 2.976562 23.625 2.621094 C 23.625 1.25 22.511719 0.136719 21.140625 0.136719 C 19.773438 0.136719 18.660156 1.25 18.660156 2.621094 C 18.660156 2.976562 18.734375 3.3125 18.867188 3.621094 C 13.265625 4.472656 8.777344 8.433594 7.035156 13.535156 C 6.089844 13.886719 5.414062 14.796875 5.414062 15.863281 C 5.414062 17.234375 6.527344 18.347656 7.898438 18.347656 Z M 31.757812 19.792969 C 31.507812 20.421875 30.902344 20.832031 30.222656 20.832031 L 12.0625 20.832031 C 11.378906 20.832031 10.777344 20.421875 10.523438 19.792969 L 9.949219 18.347656 L 32.335938 18.347656 Z M 34.386719 16.691406 C 30.996094 16.691406 10.507812 16.691406 7.898438 16.691406 C 7.441406 16.691406 7.070312 16.320312 7.070312 15.863281 C 7.070312 15.410156 7.441406 15.039062 7.898438 15.039062 L 34.386719 15.039062 C 34.84375 15.039062 35.214844 15.410156 35.214844 15.863281 C 35.214844 16.320312 34.84375 16.691406 34.386719 16.691406 Z M 20.3125 2.621094 C 20.3125 2.164062 20.683594 1.792969 21.140625 1.792969 C 21.597656 1.792969 21.96875 2.164062 21.96875 2.621094 C 21.96875 3.078125 21.597656 3.449219 21.140625 3.449219 C 20.683594 3.449219 20.3125 3.078125 20.3125 2.621094 Z M 21.140625 5.105469 C 26.617188 5.105469 31.417969 8.386719 33.425781 13.382812 L 8.859375 13.382812 C 10.863281 8.386719 15.667969 5.105469 21.140625 5.105469 Z M 21.140625 5.105469 "/></g></g></svg>