<svg xmlns="http://www.w3.org/2000/svg" xmlns:xlink="http://www.w3.org/1999/xlink" width="57" zoomAndPan="magnify" viewBox="0 0 42.75 40.499999" height="54" preserveAspectRatio="xMidYMid meet" version="1.2"><defs><clipPath id="5c5fc4ae23"><path d="M 0.136719 0 L 41.625 0 L 41.625 39.265625 L 0.136719 39.265625 Z M 0.136719 0 "/></clipPath></defs><g id="c9f8ffaa45"><path style=" stroke:none;fill-rule:nonzero;fill:#ffb807;fill-opacity:1;" d="M 13.550781 20.660156 C 11.695312 20.660156 10.152344 22.199219 10.152344 24.058594 C 10.152344 25.917969 11.695312 27.457031 13.550781 27.457031 C 15.410156 27.457031 16.953125 25.917969 16.953125 24.058594 C 16.953125 22.199219 15.457031 20.660156 13.550781 20.660156 Z M 13.550781 26.097656 C 12.417969 26.097656 11.511719 25.191406 11.511719 24.058594 C 11.511719 22.925781 12.417969 22.019531 13.550781 22.019531 C 14.683594 22.019531 15.59375 22.925781 15.59375 24.058594 C 15.59375 25.191406 14.683594 26.097656 13.550781 26.097656 Z M 13.550781 26.097656 "/><path style=" stroke:none;fill-rule:nonzero;fill:#ffb807;fill-opacity:1;" d="M 34.175781 19.933594 C 32.769531 20.707031 31.589844 21.203125 30.414062 21.476562 C 29.460938 21.703125 28.554688 21.703125 27.601562 21.566406 C 25.835938 21.292969 25.199219 22.199219 24.929688 22.882812 C 24.835938 23.109375 24.746094 23.289062 24.703125 23.46875 C 24.65625 23.652344 24.609375 23.789062 24.519531 23.96875 C 24.15625 24.695312 23.976562 25.328125 23.929688 25.917969 C 23.75 27.820312 24.929688 29.589844 26.152344 30.496094 C 26.558594 30.8125 27.375 31.402344 28.328125 31.402344 C 28.871094 31.402344 29.503906 31.21875 30.09375 30.632812 C 32.679688 28.183594 34.535156 25.601562 35.667969 22.882812 C 36.304688 21.386719 36.304688 20.386719 35.804688 19.890625 C 35.488281 19.664062 34.988281 19.480469 34.175781 19.933594 Z M 34.402344 22.335938 C 33.359375 24.828125 31.589844 27.277344 29.144531 29.589844 C 28.597656 30.132812 28.101562 30.222656 26.921875 29.363281 C 25.96875 28.683594 25.109375 27.277344 25.246094 26.007812 C 25.289062 25.601562 25.425781 25.101562 25.742188 24.511719 C 25.878906 24.242188 25.925781 24.015625 26.015625 23.832031 C 26.0625 23.695312 26.105469 23.5625 26.199219 23.378906 C 26.332031 23.0625 26.46875 22.835938 27.011719 22.835938 C 27.148438 22.835938 27.285156 22.835938 27.421875 22.882812 C 28.507812 23.0625 29.640625 23.015625 30.730469 22.789062 C 32 22.519531 33.3125 22.019531 34.761719 21.160156 C 34.671875 21.476562 34.582031 21.929688 34.402344 22.335938 Z M 34.402344 22.335938 "/><path style=" stroke:none;fill-rule:nonzero;fill:#ffb807;fill-opacity:1;" d="M 35.535156 4.617188 C 33.855469 4.207031 32.269531 5.160156 31.453125 6.292969 C 29.414062 9.101562 27.421875 10.871094 25.109375 11.777344 C 23.75 12.367188 23.386719 13.542969 23.660156 14.449219 C 23.796875 14.996094 23.976562 15.402344 24.15625 15.855469 C 24.25 16.082031 24.339844 16.308594 24.429688 16.582031 C 24.792969 17.625 25.382812 18.394531 26.832031 18.984375 C 27.464844 19.253906 28.101562 19.347656 28.734375 19.347656 C 30.546875 19.347656 32.132812 18.4375 33.585938 17.625 C 33.902344 17.441406 34.175781 17.261719 34.492188 17.125 L 36.304688 16.171875 C 36.304688 16.171875 36.347656 16.128906 36.347656 16.128906 L 36.441406 16.039062 C 37.164062 15.539062 37.617188 15.128906 37.753906 13.542969 C 37.890625 12.140625 37.980469 10.734375 37.980469 9.328125 C 38.070312 6.65625 37.164062 5.023438 35.535156 4.617188 Z M 36.484375 13.316406 C 36.394531 14.40625 36.214844 14.542969 35.761719 14.859375 L 33.902344 15.855469 C 33.585938 16.039062 33.265625 16.21875 32.949219 16.355469 C 31.09375 17.398438 29.324219 18.394531 27.332031 17.625 C 26.199219 17.214844 25.925781 16.671875 25.699219 16.039062 C 25.609375 15.765625 25.472656 15.492188 25.382812 15.265625 C 25.199219 14.859375 25.0625 14.496094 24.929688 14.042969 C 24.835938 13.726562 24.972656 13.273438 25.609375 13 C 28.144531 11.957031 30.320312 10.054688 32.542969 7.0625 C 32.996094 6.429688 33.8125 5.839844 34.71875 5.839844 C 34.855469 5.839844 35.035156 5.839844 35.171875 5.886719 C 36.53125 6.203125 36.667969 8.332031 36.667969 9.195312 C 36.710938 10.597656 36.621094 11.957031 36.484375 13.316406 Z M 36.484375 13.316406 "/><g clip-rule="nonzero" clip-path="url(#5c5fc4ae23)"><path style=" stroke:none;fill-rule:nonzero;fill:#ffb807;fill-opacity:1;" d="M 36.894531 1.125 C 33.902344 0.128906 30.414062 1.351562 28.417969 4.074219 C 25.609375 7.925781 23.296875 9.148438 19.261719 8.921875 C 18.628906 8.875 17.949219 8.832031 17.222656 8.742188 C 15.367188 8.558594 13.460938 8.378906 11.648438 8.785156 C 7.027344 9.875 3.582031 12.773438 1.996094 16.945312 C 0.136719 21.703125 0.863281 27.457031 3.898438 31.992188 C 7.117188 36.75 12.011719 39.332031 17.632812 39.332031 C 18.492188 39.332031 19.355469 39.289062 20.214844 39.152344 C 28.960938 38.019531 36.757812 31.402344 39.65625 22.746094 C 41.378906 17.578125 41.789062 12.59375 41.789062 9.238281 C 41.832031 5.160156 39.976562 2.125 36.894531 1.125 Z M 38.390625 22.292969 C 35.667969 30.359375 28.144531 36.75 20.035156 37.835938 C 13.777344 38.699219 8.476562 36.339844 5.03125 31.265625 C 2.265625 27.097656 1.585938 21.792969 3.265625 17.441406 C 4.308594 14.8125 6.664062 11.414062 11.964844 10.144531 C 12.644531 9.964844 13.371094 9.917969 14.097656 9.917969 C 15.09375 9.917969 16.089844 10.007812 17.085938 10.101562 C 17.765625 10.191406 18.492188 10.234375 19.171875 10.28125 C 24.339844 10.554688 26.878906 8.46875 29.503906 4.84375 C 31.136719 2.578125 33.992188 1.578125 36.441406 2.394531 C 38.976562 3.210938 40.429688 5.703125 40.382812 9.238281 C 40.429688 12.457031 40.019531 17.351562 38.390625 22.292969 Z M 38.390625 22.292969 "/></g><path style=" stroke:none;fill-rule:nonzero;fill:#ffb807;fill-opacity:1;" d="M 22.34375 22.925781 C 22.84375 21.839844 22.980469 20.523438 22.753906 19.027344 C 22.300781 16.445312 21.347656 13.453125 17.675781 12.546875 C 16.046875 12.140625 14.003906 12.09375 12.511719 12.457031 C 9.292969 13.226562 6.890625 15.085938 5.667969 17.851562 C 4.035156 21.519531 4.535156 26.234375 7.027344 29.90625 C 8.882812 32.714844 11.378906 34.484375 14.414062 35.253906 C 15.410156 35.527344 16.5 35.617188 17.585938 35.617188 C 19.082031 35.617188 20.667969 35.390625 22.300781 34.9375 C 23.070312 34.710938 23.660156 34.210938 23.886719 33.578125 C 24.15625 32.851562 24.066406 32.035156 23.570312 31.21875 C 21.890625 28.363281 20.804688 26.144531 22.34375 22.925781 Z M 22.617188 33.078125 C 22.480469 33.394531 22.164062 33.578125 21.890625 33.621094 C 19.308594 34.347656 16.90625 34.484375 14.730469 33.9375 C 12.011719 33.257812 9.789062 31.671875 8.113281 29.179688 C 5.984375 25.917969 5.484375 21.613281 6.890625 18.394531 C 7.976562 15.992188 9.972656 14.449219 12.828125 13.769531 C 13.371094 13.636719 14.050781 13.542969 14.820312 13.542969 C 15.636719 13.542969 16.5 13.636719 17.3125 13.816406 C 19.625 14.40625 20.804688 15.945312 21.347656 19.164062 C 21.574219 20.386719 21.484375 21.429688 21.074219 22.246094 C 19.21875 26.054688 20.578125 28.863281 22.34375 31.808594 C 22.664062 32.351562 22.753906 32.761719 22.617188 33.078125 Z M 22.617188 33.078125 "/></g></svg>