<svg xmlns="http://www.w3.org/2000/svg" xmlns:xlink="http://www.w3.org/1999/xlink" width="49" zoomAndPan="magnify" viewBox="0 0 36.75 44.249999" height="59" preserveAspectRatio="xMidYMid meet" version="1.2"><defs><clipPath id="70edccbc6e"><path d="M 0.183594 0 L 36 0 L 36 42.773438 L 0.183594 42.773438 Z M 0.183594 0 "/></clipPath></defs><g id="6c33416c1e"><g clip-rule="nonzero" clip-path="url(#70edccbc6e)"><path style=" stroke:none;fill-rule:nonzero;fill:#ffb807;fill-opacity:1;" d="M 33.832031 14.257812 C 33.386719 15.179688 32.582031 15.851562 31.523438 15.894531 C 30.433594 15.9375 29.660156 15.183594 28.816406 14.613281 C 26.894531 13.316406 24.835938 12.238281 22.707031 11.328125 C 17.929688 9.285156 12.761719 8.015625 7.558594 7.832031 C 5.734375 7.765625 3.070312 8.398438 2.292969 6.15625 C 2.023438 5.382812 2.097656 4.511719 2.558594 3.824219 C 3.109375 3.007812 3.941406 2.769531 4.871094 2.640625 C 9.777344 1.96875 14.875 2.714844 19.585938 4.125 C 24.519531 5.601562 29.402344 7.933594 33.191406 11.480469 C 34.09375 12.328125 35.457031 10.96875 34.550781 10.121094 C 30.757812 6.5625 25.957031 4.152344 21.042969 2.5625 C 15.761719 0.855469 10.015625 -0.00390625 4.488281 0.765625 C 2.160156 1.089844 0.253906 2.679688 0.210938 5.171875 C 0.179688 6.929688 1.199219 8.546875 2.722656 9.304688 C 2.808594 9.367188 2.90625 9.414062 3.023438 9.445312 C 3.328125 9.566406 3.644531 9.65625 3.976562 9.710938 C 5.226562 9.90625 6.558594 9.710938 7.824219 9.765625 C 9.253906 9.828125 10.679688 9.976562 12.09375 10.210938 C 15.082031 10.703125 18.023438 11.519531 20.84375 12.625 C 23.582031 13.699219 26.222656 15.085938 28.609375 16.808594 C 29.027344 17.109375 29.476562 17.335938 29.933594 17.496094 C 29.109375 18.378906 28.285156 19.265625 27.460938 20.152344 C 27.195312 18.851562 26.269531 17.734375 24.886719 17.320312 C 22.949219 16.742188 20.847656 17.925781 20.285156 19.851562 C 19.714844 21.792969 20.882812 23.890625 22.816406 24.457031 C 22.996094 24.507812 23.175781 24.546875 23.355469 24.570312 C 23.285156 24.648438 23.214844 24.722656 23.140625 24.800781 C 19.011719 29.242188 14.882812 33.683594 10.753906 38.125 C 10.234375 38.683594 9.714844 39.242188 9.195312 39.800781 C 8.730469 37.167969 8.269531 34.535156 7.808594 31.902344 C 6.90625 26.769531 6.007812 21.636719 5.105469 16.507812 C 4.898438 15.320312 4.691406 14.136719 4.484375 12.953125 C 4.269531 11.734375 2.414062 12.25 2.625 13.464844 C 3.195312 16.703125 3.761719 19.941406 4.332031 23.175781 C 5.230469 28.308594 6.132812 33.441406 7.035156 38.570312 C 7.242188 39.753906 7.449219 40.941406 7.65625 42.125 C 7.78125 42.839844 8.800781 43.046875 9.265625 42.546875 C 11.871094 39.746094 14.472656 36.945312 17.078125 34.144531 C 21.207031 29.703125 25.339844 25.261719 29.46875 20.820312 C 30.417969 19.800781 31.367188 18.78125 32.316406 17.757812 C 32.34375 17.726562 32.371094 17.695312 32.394531 17.664062 C 33.679688 17.40625 34.839844 16.589844 35.496094 15.230469 C 36.027344 14.117188 34.367188 13.140625 33.832031 14.257812 Z M 22.140625 20.363281 C 22.820312 18.160156 26.132812 19.171875 25.5625 21.414062 C 24.816406 23.613281 21.457031 22.5625 22.140625 20.363281 Z M 22.140625 20.363281 "/></g><path style=" stroke:none;fill-rule:nonzero;fill:#ffb807;fill-opacity:1;" d="M 12.125 11.679688 C 10.1875 11.101562 8.085938 12.28125 7.523438 14.210938 C 6.953125 16.148438 8.117188 18.246094 10.054688 18.8125 C 11.976562 19.375 13.859375 18.28125 14.574219 16.5 C 14.609375 16.433594 14.636719 16.363281 14.65625 16.285156 C 14.683594 16.203125 14.699219 16.128906 14.707031 16.058594 C 15.074219 14.160156 14.035156 12.25 12.125 11.679688 Z M 9.378906 14.722656 C 10.0625 12.515625 13.371094 13.527344 12.800781 15.773438 C 12.058594 17.96875 8.695312 16.917969 9.378906 14.722656 Z M 9.378906 14.722656 "/><path style=" stroke:none;fill-rule:nonzero;fill:#ffb807;fill-opacity:1;" d="M 10.4375 27.914062 C 10.4375 29.929688 12.132812 31.628906 14.152344 31.628906 C 16.148438 31.628906 17.667969 30.058594 17.851562 28.144531 C 17.863281 28.074219 17.871094 27.996094 17.867188 27.914062 C 17.871094 27.832031 17.863281 27.753906 17.851562 27.683594 C 17.667969 25.765625 16.148438 24.207031 14.152344 24.199219 C 12.132812 24.191406 10.4375 25.898438 10.4375 27.914062 Z M 15.941406 27.914062 C 15.851562 30.226562 12.363281 30.21875 12.363281 27.914062 C 12.363281 25.609375 15.851562 25.59375 15.941406 27.914062 Z M 15.941406 27.914062 "/></g></svg>