<svg xmlns="http://www.w3.org/2000/svg" xmlns:xlink="http://www.w3.org/1999/xlink" width="59" zoomAndPan="magnify" viewBox="0 0 44.25 44.249999" height="59" preserveAspectRatio="xMidYMid meet" version="1.2"><defs><clipPath id="f3241c406f"><path d="M 21 8 L 43.511719 8 L 43.511719 42.773438 L 21 42.773438 Z M 21 8 "/></clipPath><clipPath id="fb4d77be6a"><path d="M 0 8 L 22 8 L 22 42.773438 L 0 42.773438 Z M 0 8 "/></clipPath></defs><g id="2f80f61364"><g clip-rule="nonzero" clip-path="url(#f3241c406f)"><path style=" stroke:none;fill-rule:nonzero;fill:#ffb807;fill-opacity:1;" d="M 33.898438 40.835938 C 34.738281 39.460938 35.5 37.585938 34.882812 35.894531 L 32.675781 29.828125 C 32.523438 29.40625 32.210938 28.980469 31.75 28.546875 C 32.125 28.46875 32.492188 28.367188 32.859375 28.234375 C 33.222656 28.101562 33.574219 27.945312 33.910156 27.765625 C 33.832031 28.390625 33.871094 28.917969 34.023438 29.335938 L 36.234375 35.40625 C 36.847656 37.09375 38.640625 38.042969 40.164062 38.554688 Z M 24.089844 23.027344 C 23.800781 22.226562 23.601562 20.871094 23.460938 19.382812 C 24.890625 19.488281 25.765625 20.285156 26.6875 21.128906 C 27.671875 22.03125 28.691406 22.960938 30.328125 22.960938 C 32.097656 22.960938 33.351562 22.042969 34.460938 21.234375 C 35.21875 20.675781 35.886719 20.1875 36.578125 20.105469 C 36.898438 22.996094 35.222656 25.847656 32.367188 26.886719 C 29.023438 28.101562 25.308594 26.371094 24.089844 23.027344 Z M 30.292969 10.078125 C 30.777344 10.667969 31.753906 11.871094 32.777344 13.222656 C 34.65625 15.710938 35.851562 17.574219 36.226562 18.609375 C 36.238281 18.640625 36.25 18.671875 36.257812 18.703125 C 35.265625 18.867188 34.425781 19.480469 33.613281 20.074219 C 32.59375 20.820312 31.628906 21.527344 30.328125 21.527344 C 29.25 21.527344 28.546875 20.882812 27.65625 20.070312 C 26.597656 19.101562 25.398438 18.007812 23.347656 17.941406 C 23.203125 15.78125 23.164062 13.625 23.15625 12.675781 Z M 42.753906 37.695312 C 41.546875 37.554688 38.261719 36.777344 37.582031 34.914062 L 35.375 28.847656 C 35.214844 28.414062 35.335938 27.523438 35.691406 26.449219 C 36.355469 25.796875 36.90625 25.023438 37.3125 24.152344 C 38.203125 22.242188 38.296875 20.097656 37.578125 18.117188 C 36.5625 15.335938 31.296875 9.035156 31.074219 8.769531 C 30.878906 8.539062 30.5625 8.453125 30.277344 8.558594 L 22.1875 11.5 C 21.90625 11.605469 21.714844 11.875 21.714844 12.175781 C 21.714844 12.523438 21.730469 20.734375 22.742188 23.515625 C 23.832031 26.507812 26.554688 28.445312 29.535156 28.683594 C 30.503906 29.277344 31.167969 29.882812 31.328125 30.320312 L 33.535156 36.386719 C 34.214844 38.25 32.195312 40.957031 31.363281 41.839844 C 31.132812 42.082031 31.101562 42.449219 31.28125 42.726562 C 31.417969 42.933594 31.648438 43.050781 31.882812 43.050781 C 31.964844 43.050781 32.046875 43.039062 32.128906 43.007812 L 42.917969 39.082031 C 43.230469 38.96875 43.421875 38.65625 43.382812 38.324219 C 43.34375 37.992188 43.082031 37.734375 42.753906 37.695312 "/></g><path style=" stroke:none;fill-rule:nonzero;fill:#ffb807;fill-opacity:1;" d="M 20.992188 0.71875 L 20.992188 2.871094 C 20.992188 3.265625 21.3125 3.585938 21.707031 3.585938 C 22.105469 3.585938 22.425781 3.265625 22.425781 2.871094 L 22.425781 0.71875 C 22.425781 0.320312 22.105469 0 21.707031 0 C 21.3125 0 20.992188 0.320312 20.992188 0.71875 "/><path style=" stroke:none;fill-rule:nonzero;fill:#ffb807;fill-opacity:1;" d="M 16.289062 1.554688 C 15.957031 1.777344 15.871094 2.222656 16.089844 2.550781 L 17.523438 4.703125 C 17.664062 4.910156 17.890625 5.023438 18.121094 5.023438 C 18.257812 5.023438 18.398438 4.984375 18.519531 4.902344 C 18.847656 4.683594 18.9375 4.238281 18.71875 3.90625 L 17.285156 1.753906 C 17.0625 1.425781 16.617188 1.335938 16.289062 1.554688 "/><path style=" stroke:none;fill-rule:nonzero;fill:#ffb807;fill-opacity:1;" d="M 26.132812 1.753906 L 24.699219 3.90625 C 24.480469 4.238281 24.570312 4.683594 24.898438 4.902344 C 25.019531 4.984375 25.160156 5.023438 25.296875 5.023438 C 25.527344 5.023438 25.753906 4.910156 25.894531 4.703125 L 27.328125 2.550781 C 27.546875 2.222656 27.460938 1.777344 27.128906 1.554688 C 26.800781 1.335938 26.355469 1.425781 26.132812 1.753906 "/><g clip-rule="nonzero" clip-path="url(#fb4d77be6a)"><path style=" stroke:none;fill-rule:nonzero;fill:#ffb807;fill-opacity:1;" d="M 11.0625 26.886719 C 8.210938 25.847656 6.535156 22.996094 6.855469 20.105469 C 7.542969 20.1875 8.210938 20.675781 8.972656 21.234375 C 10.078125 22.042969 11.332031 22.960938 13.105469 22.960938 C 14.738281 22.960938 15.757812 22.03125 16.742188 21.128906 C 17.667969 20.285156 18.542969 19.488281 19.96875 19.382812 C 19.808594 21.082031 19.597656 22.324219 19.339844 23.027344 C 18.121094 26.371094 14.410156 28.105469 11.0625 26.886719 Z M 10.753906 29.828125 L 8.546875 35.894531 C 7.933594 37.585938 8.695312 39.460938 9.535156 40.835938 L 3.265625 38.554688 C 4.792969 38.042969 6.582031 37.09375 7.199219 35.40625 L 9.40625 29.335938 C 9.558594 28.917969 9.597656 28.390625 9.523438 27.761719 C 9.855469 27.941406 10.207031 28.101562 10.570312 28.234375 C 10.9375 28.367188 11.308594 28.46875 11.679688 28.546875 C 11.21875 28.980469 10.910156 29.40625 10.753906 29.828125 Z M 13.136719 10.078125 L 20.277344 12.675781 C 20.269531 13.441406 20.242188 14.988281 20.15625 16.683594 C 20.136719 17.121094 20.109375 17.539062 20.082031 17.941406 C 18.03125 18.007812 16.835938 19.101562 15.777344 20.070312 C 14.886719 20.882812 14.183594 21.527344 13.105469 21.527344 C 11.800781 21.527344 10.839844 20.820312 9.820312 20.074219 C 9.007812 19.480469 8.167969 18.867188 7.171875 18.703125 C 7.183594 18.671875 7.191406 18.640625 7.203125 18.609375 C 7.996094 16.429688 11.972656 11.496094 13.136719 10.078125 Z M 21.242188 11.5 L 13.152344 8.558594 C 12.867188 8.453125 12.550781 8.539062 12.359375 8.769531 C 12.132812 9.035156 6.867188 15.335938 5.855469 18.117188 C 4.765625 21.109375 5.605469 24.339844 7.738281 26.445312 C 8.097656 27.519531 8.21875 28.410156 8.058594 28.847656 L 5.851562 34.914062 C 5.171875 36.777344 1.886719 37.554688 0.679688 37.695312 C 0.347656 37.734375 0.0859375 37.992188 0.046875 38.324219 C 0.0078125 38.652344 0.203125 38.96875 0.515625 39.082031 L 11.304688 43.007812 C 11.382812 43.039062 11.464844 43.050781 11.546875 43.050781 C 11.785156 43.050781 12.011719 42.933594 12.148438 42.726562 C 12.332031 42.449219 12.296875 42.082031 12.070312 41.839844 C 11.234375 40.957031 9.21875 38.25 9.894531 36.386719 L 12.105469 30.320312 C 12.261719 29.882812 12.929688 29.277344 13.894531 28.683594 C 16.878906 28.445312 19.601562 26.507812 20.6875 23.515625 C 21.703125 20.734375 21.714844 12.523438 21.714844 12.175781 C 21.714844 11.875 21.527344 11.605469 21.242188 11.5 "/></g></g></svg>