<svg xmlns="http://www.w3.org/2000/svg" xmlns:xlink="http://www.w3.org/1999/xlink" width="60" zoomAndPan="magnify" viewBox="0 0 45 40.499999" height="54" preserveAspectRatio="xMidYMid meet" version="1.2"><defs><clipPath id="9229445117"><path d="M 0.273438 0 L 43.984375 0 L 43.984375 39.265625 L 0.273438 39.265625 Z M 0.273438 0 "/></clipPath></defs><g id="d1c7ab77da"><g clip-rule="nonzero" clip-path="url(#9229445117)"><path style=" stroke:none;fill-rule:nonzero;fill:#00b3eb;fill-opacity:1;" d="M 39.640625 9.070312 L 32.070312 9.070312 L 32.070312 3.023438 C 32.070312 1.363281 30.707031 0 29.046875 0 L 15.433594 0 C 13.769531 0 12.410156 1.363281 12.410156 3.023438 L 12.410156 9.070312 L 4.886719 9.070312 C 2.371094 9.070312 0.339844 11.101562 0.339844 13.617188 L 0.339844 34.777344 C 0.339844 37.269531 2.371094 39.324219 4.886719 39.324219 L 39.664062 39.324219 C 42.15625 39.324219 44.207031 37.292969 44.207031 34.777344 L 44.207031 13.617188 C 44.1875 11.101562 42.15625 9.070312 39.640625 9.070312 Z M 10.933594 10.59375 L 33.617188 10.59375 L 33.617188 37.800781 L 10.933594 37.800781 Z M 9.410156 37.800781 L 7.886719 37.800781 L 7.886719 10.59375 L 9.410156 10.59375 Z M 27.546875 9.070312 L 16.953125 9.070312 L 16.953125 4.523438 L 27.546875 4.523438 Z M 35.117188 10.59375 L 36.640625 10.59375 L 36.640625 37.800781 L 35.117188 37.800781 Z M 13.953125 3.023438 C 13.953125 2.191406 14.625 1.523438 15.476562 1.523438 L 29.09375 1.523438 C 29.925781 1.523438 30.617188 2.191406 30.617188 3.046875 L 30.617188 9.09375 L 29.09375 9.09375 L 29.09375 4.546875 C 29.09375 3.714844 28.425781 3.023438 27.570312 3.023438 L 16.976562 3.023438 C 16.148438 3.023438 15.476562 3.691406 15.453125 4.523438 L 15.453125 9.070312 L 13.933594 9.070312 Z M 1.863281 34.777344 L 1.863281 13.617188 C 1.863281 11.953125 3.222656 10.59375 4.886719 10.59375 L 6.410156 10.59375 L 6.410156 37.800781 L 4.886719 37.800781 C 3.199219 37.800781 1.863281 36.4375 1.863281 34.777344 Z M 42.664062 34.777344 C 42.664062 36.4375 41.300781 37.800781 39.640625 37.800781 L 38.117188 37.800781 L 38.117188 10.59375 L 39.640625 10.59375 C 41.300781 10.59375 42.664062 11.953125 42.664062 13.617188 Z M 42.664062 34.777344 "/></g><path style=" stroke:none;fill-rule:nonzero;fill:#00b3eb;fill-opacity:1;" d="M 28.402344 17.398438 C 28.402344 17.191406 28.332031 17.007812 28.171875 16.871094 L 23.902344 12.601562 C 23.601562 12.300781 23.117188 12.300781 22.839844 12.601562 L 14.832031 20.609375 C 14.53125 20.90625 14.53125 21.390625 14.832031 21.667969 L 19.101562 25.9375 C 19.238281 26.078125 19.425781 26.167969 19.632812 26.167969 C 19.839844 26.167969 20.023438 26.101562 20.164062 25.9375 L 28.171875 17.929688 C 28.332031 17.792969 28.402344 17.609375 28.402344 17.398438 Z M 19.632812 24.347656 L 16.425781 21.136719 L 23.371094 14.191406 L 26.578125 17.398438 Z M 19.632812 24.347656 "/><path style=" stroke:none;fill-rule:nonzero;fill:#00b3eb;fill-opacity:1;" d="M 31.910156 24.09375 C 31.816406 23.90625 31.65625 23.792969 31.449219 23.746094 L 25.632812 22.109375 C 25.449219 22.0625 25.238281 22.085938 25.054688 22.175781 C 24.871094 22.269531 24.753906 22.429688 24.707031 22.636719 L 21.640625 33.554688 C 21.59375 33.738281 21.617188 33.945312 21.707031 34.128906 C 21.800781 34.316406 21.960938 34.429688 22.171875 34.476562 L 27.984375 36.117188 C 28.054688 36.136719 28.125 36.136719 28.195312 36.136719 C 28.515625 36.136719 28.816406 35.929688 28.933594 35.585938 L 32 24.667969 C 32.023438 24.484375 32 24.277344 31.910156 24.09375 Z M 27.664062 34.453125 L 23.277344 33.230469 L 25.933594 23.769531 L 30.292969 24.992188 Z M 27.664062 34.453125 "/></g></svg>