<svg xmlns="http://www.w3.org/2000/svg" xmlns:xlink="http://www.w3.org/1999/xlink" width="56" zoomAndPan="magnify" viewBox="0 0 42 45.749998" height="61" preserveAspectRatio="xMidYMid meet" version="1.2"><defs><clipPath id="940c99b628"><path d="M 0.113281 0 L 41.886719 0 L 41.886719 44.753906 L 0.113281 44.753906 Z M 0.113281 0 "/></clipPath></defs><g id="0ddf34cbb2"><g clip-rule="nonzero" clip-path="url(#940c99b628)"><path style=" stroke:none;fill-rule:nonzero;fill:#00b3eb;fill-opacity:1;" d="M 30.851562 44.980469 C 30.789062 44.980469 30.726562 44.972656 30.667969 44.957031 L 20.816406 42.113281 L 10.964844 44.957031 C 10.757812 45.015625 10.535156 44.972656 10.367188 44.835938 C 10.203125 44.703125 10.113281 44.492188 10.128906 44.28125 L 10.378906 40.917969 C 10.394531 40.746094 10.472656 40.582031 10.605469 40.46875 L 15.960938 35.855469 L 15.960938 29.203125 L 1.023438 34.289062 C 0.8125 34.363281 0.578125 34.320312 0.402344 34.179688 C 0.230469 34.042969 0.136719 33.820312 0.164062 33.597656 L 0.789062 27.855469 C 0.808594 27.675781 0.902344 27.511719 1.050781 27.402344 L 16.148438 16.214844 L 16.148438 5.679688 C 16.148438 5.652344 16.148438 5.621094 16.152344 5.597656 C 16.703125 1.234375 20.472656 0.0820312 20.632812 0.0351562 C 20.753906 0 20.878906 0 21 0.0351562 C 21.160156 0.0820312 24.929688 1.234375 25.480469 5.597656 C 25.484375 5.621094 25.484375 5.648438 25.484375 5.679688 L 25.484375 16.214844 L 40.582031 27.402344 C 40.726562 27.511719 40.824219 27.675781 40.84375 27.855469 L 41.46875 33.597656 C 41.496094 33.820312 41.402344 34.039062 41.226562 34.179688 C 41.054688 34.320312 40.820312 34.363281 40.609375 34.289062 L 25.671875 29.203125 L 25.671875 35.855469 L 31.027344 40.46875 C 31.15625 40.582031 31.238281 40.746094 31.25 40.917969 L 31.503906 44.28125 C 31.519531 44.492188 31.429688 44.703125 31.261719 44.835938 C 31.144531 44.929688 31 44.980469 30.851562 44.980469 Z M 20.816406 40.777344 C 20.875 40.777344 20.9375 40.785156 20.996094 40.800781 L 30.128906 43.4375 L 29.96875 41.285156 L 24.589844 36.648438 C 24.449219 36.523438 24.363281 36.34375 24.363281 36.152344 L 24.363281 28.289062 C 24.363281 28.078125 24.464844 27.878906 24.636719 27.757812 C 24.808594 27.632812 25.027344 27.601562 25.230469 27.671875 L 40.058594 32.71875 L 39.574219 28.28125 L 24.441406 17.070312 C 24.273438 16.949219 24.175781 16.753906 24.175781 16.546875 L 24.175781 5.71875 C 23.78125 2.730469 21.484375 1.617188 20.8125 1.355469 C 20.136719 1.617188 17.851562 2.714844 17.457031 5.71875 L 17.457031 16.546875 C 17.457031 16.753906 17.355469 16.949219 17.191406 17.070312 L 2.058594 28.285156 L 1.574219 32.71875 L 16.402344 27.671875 C 16.601562 27.601562 16.824219 27.636719 16.996094 27.757812 C 17.167969 27.882812 17.269531 28.078125 17.269531 28.289062 L 17.269531 36.152344 C 17.269531 36.34375 17.183594 36.527344 17.042969 36.648438 L 11.664062 41.285156 L 11.503906 43.4375 L 20.632812 40.804688 C 20.695312 40.785156 20.753906 40.777344 20.816406 40.777344 Z M 20.816406 40.777344 "/></g></g></svg>