<svg xmlns="http://www.w3.org/2000/svg" xmlns:xlink="http://www.w3.org/1999/xlink" width="59" zoomAndPan="magnify" viewBox="0 0 44.25 42.749999" height="57" preserveAspectRatio="xMidYMid meet" version="1.2"><defs><clipPath id="04cb51a6ed"><path d="M 9 0.234375 L 14 0.234375 L 14 32 L 9 32 Z M 9 0.234375 "/></clipPath><clipPath id="00412d052e"><path d="M 0 17 L 42.773438 17 L 42.773438 42 L 0 42 Z M 0 17 "/></clipPath></defs><g id="7702e0f7e7"><g clip-rule="nonzero" clip-path="url(#04cb51a6ed)"><path style=" stroke:none;fill-rule:nonzero;fill:#e82c8d;fill-opacity:1;" d="M 11.074219 31.496094 C 10.574219 31.496094 10.101562 31.324219 9.746094 31.011719 C 9.34375 30.652344 9.121094 30.136719 9.121094 29.554688 C 9.121094 23.324219 9.097656 18.449219 9.082031 14.636719 C 9.027344 3.171875 9.019531 1.410156 9.808594 0.617188 C 10.1875 0.234375 10.660156 0.234375 11.007812 0.234375 L 11.160156 0.886719 L 11.15625 0.234375 C 11.539062 0.253906 11.949219 0.234375 12.3125 0.597656 C 13.097656 1.386719 13.09375 3.066406 13.054688 16.128906 C 13.042969 19.703125 13.03125 24.113281 13.03125 29.550781 C 13.03125 30.816406 12.019531 31.496094 11.074219 31.496094 Z M 11.058594 1.539062 C 10.910156 1.539062 10.75 1.539062 10.703125 1.554688 C 10.324219 1.996094 10.34375 5.953125 10.382812 14.628906 C 10.402344 18.445312 10.425781 23.324219 10.425781 29.554688 C 10.425781 29.761719 10.488281 29.925781 10.609375 30.035156 C 10.722656 30.136719 10.894531 30.195312 11.074219 30.195312 C 11.183594 30.195312 11.726562 30.164062 11.726562 29.554688 C 11.726562 24.109375 11.742188 19.699219 11.75 16.125 C 11.78125 6.1875 11.792969 2.046875 11.390625 1.519531 C 11.398438 1.539062 11.335938 1.535156 11.238281 1.539062 L 11.074219 1.539062 C 11.070312 1.539062 11.0625 1.539062 11.058594 1.539062 Z M 11.058594 1.539062 "/></g><path style=" stroke:none;fill-rule:nonzero;fill:#e82c8d;fill-opacity:1;" d="M 12.378906 13.761719 C 12.246094 13.761719 12.117188 13.722656 12.003906 13.644531 C 11.832031 13.523438 11.726562 13.324219 11.726562 13.109375 L 11.726562 12.707031 C 11.769531 3.5625 11.683594 2.066406 11.644531 1.84375 C 11.546875 1.605469 11.613281 1.375 11.789062 1.191406 C 11.96875 1 12.253906 0.984375 12.496094 1.070312 L 28.238281 6.789062 C 28.496094 6.882812 28.667969 7.128906 28.667969 7.402344 C 28.667969 7.675781 28.496094 7.921875 28.242188 8.015625 L 12.601562 13.722656 C 12.53125 13.75 12.453125 13.761719 12.378906 13.761719 Z M 12.992188 2.636719 C 13.03125 3.882812 13.058594 6.503906 13.035156 12.175781 L 26.113281 7.402344 Z M 12.992188 2.636719 "/><g clip-rule="nonzero" clip-path="url(#00412d052e)"><path style=" stroke:none;fill-rule:nonzero;fill:#e82c8d;fill-opacity:1;" d="M 29.867188 41.933594 C 26.351562 41.933594 23.070312 40.871094 20.585938 38.929688 C 19.167969 39.195312 17.714844 39.328125 16.257812 39.328125 C 7.292969 39.332031 0 34.359375 0 28.25 C 0 22.960938 5.117188 19.515625 9.519531 18.164062 C 9.960938 17.988281 10.425781 18.320312 10.425781 18.765625 C 10.425781 19.679688 10.425781 20.53125 10.410156 21.316406 L 10.390625 24.015625 C 10.367188 26.3125 10.355469 27.828125 10.421875 28.832031 C 10.4375 29.105469 10.488281 29.851562 10.648438 30.089844 C 10.683594 30.140625 10.722656 30.203125 11.074219 30.203125 C 11.425781 30.203125 11.457031 30.15625 11.492188 30.101562 C 11.570312 29.980469 11.675781 29.648438 11.726562 28.769531 C 11.789062 27.722656 11.773438 26.152344 11.753906 23.777344 L 11.738281 21.214844 C 11.726562 20.296875 11.726562 19.277344 11.726562 18.152344 C 11.726562 17.792969 12.015625 17.5 12.378906 17.5 C 13.589844 17.300781 14.929688 17.195312 16.269531 17.195312 C 22.082031 17.195312 27.101562 19.082031 30.105469 22.390625 C 37.359375 22.5 43 26.753906 43 32.160156 C 43 34.953125 41.527344 37.5 38.855469 39.324219 C 36.433594 40.984375 33.15625 41.933594 29.867188 41.933594 Z M 20.757812 37.578125 C 20.910156 37.578125 21.054688 37.632812 21.171875 37.726562 C 23.449219 39.597656 26.535156 40.632812 29.867188 40.632812 C 32.902344 40.632812 35.910156 39.765625 38.121094 38.25 C 40.429688 36.671875 41.699219 34.507812 41.699219 32.15625 C 41.699219 27.488281 36.367188 23.6875 29.816406 23.6875 C 29.625 23.6875 29.445312 23.605469 29.324219 23.464844 C 26.632812 20.351562 21.753906 18.496094 16.269531 18.496094 C 15.183594 18.496094 14.097656 18.570312 13.03125 18.714844 C 13.03125 19.613281 13.035156 20.441406 13.042969 21.203125 L 13.058594 23.765625 C 13.082031 26.167969 13.09375 27.753906 13.03125 28.835938 C 12.96875 29.828125 12.839844 30.410156 12.59375 30.800781 C 12.140625 31.507812 11.394531 31.507812 11.078125 31.507812 C 10.617188 31.507812 9.960938 31.433594 9.5625 30.800781 C 9.277344 30.382812 9.179688 29.753906 9.125 28.941406 C 9.050781 27.863281 9.066406 26.328125 9.089844 24.003906 L 9.109375 21.304688 C 9.117188 20.785156 9.121094 20.238281 9.121094 19.671875 C 5.347656 21.03125 1.304688 23.96875 1.304688 28.246094 C 1.304688 33.640625 8.011719 38.023438 16.261719 38.023438 C 17.734375 38.023438 19.203125 37.878906 20.628906 37.589844 C 20.671875 37.582031 20.714844 37.578125 20.757812 37.578125 Z M 20.757812 37.578125 "/></g><path style=" stroke:none;fill-rule:nonzero;fill:#e82c8d;fill-opacity:1;" d="M 25.410156 34.113281 C 23.285156 34.113281 22.171875 32.472656 22.171875 30.851562 C 22.171875 30.011719 22.460938 29.222656 22.980469 28.632812 C 23.398438 28.160156 24.15625 27.597656 25.410156 27.597656 C 27.53125 27.597656 28.640625 29.238281 28.640625 30.855469 C 28.640625 31.699219 28.355469 32.488281 27.832031 33.078125 C 27.234375 33.757812 26.398438 34.113281 25.410156 34.113281 Z M 25.410156 28.902344 C 24.792969 28.902344 24.304688 29.101562 23.957031 29.496094 C 23.652344 29.84375 23.476562 30.335938 23.476562 30.851562 C 23.476562 31.828125 24.074219 32.8125 25.410156 32.8125 C 26.023438 32.8125 26.507812 32.609375 26.855469 32.21875 C 27.164062 31.871094 27.335938 31.375 27.335938 30.855469 C 27.335938 29.882812 26.742188 28.902344 25.410156 28.902344 Z M 25.410156 28.902344 "/><path style=" stroke:none;fill-rule:nonzero;fill:#e82c8d;fill-opacity:1;" d="M 25.410156 34.113281 C 23.285156 34.113281 22.171875 32.472656 22.171875 30.855469 C 22.171875 30.011719 22.460938 29.222656 22.980469 28.632812 C 23.398438 28.160156 24.15625 27.597656 25.410156 27.597656 C 27.53125 27.597656 28.644531 29.238281 28.644531 30.855469 C 28.644531 31.699219 28.355469 32.488281 27.835938 33.078125 C 27.238281 33.757812 26.398438 34.113281 25.410156 34.113281 Z M 25.410156 28.902344 C 24.792969 28.902344 24.304688 29.101562 23.957031 29.496094 C 23.652344 29.84375 23.476562 30.335938 23.476562 30.855469 C 23.476562 31.828125 24.074219 32.8125 25.410156 32.8125 C 26.023438 32.8125 26.511719 32.609375 26.855469 32.21875 C 27.164062 31.871094 27.339844 31.375 27.339844 30.855469 C 27.339844 29.882812 26.742188 28.902344 25.410156 28.902344 Z M 25.410156 28.902344 "/></g></svg>