<svg xmlns="http://www.w3.org/2000/svg" xmlns:xlink="http://www.w3.org/1999/xlink" width="67" zoomAndPan="magnify" viewBox="0 0 50.25 41.25" height="55" preserveAspectRatio="xMidYMid meet" version="1.2"><defs><clipPath id="53a12defb9"><path d="M 18 35 L 31 35 L 31 40.511719 L 18 40.511719 Z M 18 35 "/></clipPath><clipPath id="f2defd900d"><path d="M 0.0820312 22 L 7 22 L 7 29 L 0.0820312 29 Z M 0.0820312 22 "/></clipPath><clipPath id="c5c0b18c0e"><path d="M 42 22 L 48.695312 22 L 48.695312 29 L 42 29 Z M 42 22 "/></clipPath><clipPath id="68e720bd45"><path d="M 6 38 L 43 38 L 43 40.511719 L 6 40.511719 Z M 6 38 "/></clipPath></defs><g id="5ece7134b0"><g clip-rule="nonzero" clip-path="url(#53a12defb9)"><path style=" stroke:none;fill-rule:nonzero;fill:#e82c8d;fill-opacity:1;" d="M 18.941406 39.425781 L 18.941406 36.589844 C 18.941406 36.328125 19.035156 36.101562 19.222656 35.914062 C 19.410156 35.726562 19.632812 35.632812 19.898438 35.632812 L 29.246094 35.632812 C 29.511719 35.632812 29.734375 35.726562 29.921875 35.914062 C 30.109375 36.101562 30.203125 36.328125 30.203125 36.589844 L 30.203125 39.425781 C 30.203125 39.6875 30.109375 39.914062 29.921875 40.101562 C 29.734375 40.289062 29.511719 40.382812 29.246094 40.382812 L 19.898438 40.382812 C 19.632812 40.382812 19.410156 40.289062 19.222656 40.101562 C 19.035156 39.914062 18.941406 39.6875 18.941406 39.425781 Z M 28.28125 37.546875 L 20.855469 37.546875 L 20.855469 38.46875 L 28.28125 38.46875 Z M 28.28125 37.546875 "/></g><path style=" stroke:none;fill-rule:nonzero;fill:#e82c8d;fill-opacity:1;" d="M 21.195312 36.589844 L 21.195312 20.386719 C 21.195312 20.121094 21.289062 19.898438 21.472656 19.710938 C 21.660156 19.523438 21.886719 19.429688 22.152344 19.429688 L 26.980469 19.429688 C 27.246094 19.429688 27.472656 19.523438 27.660156 19.710938 C 27.847656 19.898438 27.941406 20.121094 27.941406 20.386719 L 27.941406 36.589844 C 27.941406 36.855469 27.847656 37.082031 27.660156 37.269531 C 27.472656 37.453125 27.246094 37.546875 26.980469 37.546875 L 22.152344 37.546875 C 21.886719 37.546875 21.660156 37.453125 21.472656 37.269531 C 21.289062 37.082031 21.195312 36.855469 21.195312 36.589844 Z M 26.023438 21.34375 L 23.109375 21.34375 L 23.109375 35.632812 L 26.023438 35.632812 Z M 26.023438 21.34375 "/><path style=" stroke:none;fill-rule:nonzero;fill:#e82c8d;fill-opacity:1;" d="M 21.921875 20.386719 L 21.921875 9.269531 C 21.921875 9.003906 22.015625 8.78125 22.203125 8.59375 C 22.390625 8.40625 22.613281 8.3125 22.878906 8.3125 L 26.257812 8.3125 C 26.523438 8.3125 26.746094 8.40625 26.933594 8.59375 C 27.121094 8.78125 27.214844 9.007812 27.214844 9.269531 L 27.214844 20.386719 C 27.214844 20.652344 27.121094 20.875 26.933594 21.0625 C 26.746094 21.25 26.523438 21.34375 26.257812 21.34375 L 22.878906 21.34375 C 22.613281 21.34375 22.390625 21.25 22.203125 21.0625 C 22.015625 20.878906 21.921875 20.652344 21.921875 20.386719 Z M 25.308594 10.226562 L 23.84375 10.226562 L 23.84375 19.429688 L 25.308594 19.429688 Z M 25.308594 10.226562 "/><path style=" stroke:none;fill-rule:nonzero;fill:#e82c8d;fill-opacity:1;" d="M 7.84375 9.5 C 7.792969 9.285156 7.8125 9.078125 7.902344 8.878906 C 7.992188 8.679688 8.136719 8.527344 8.328125 8.425781 L 24.125 0.152344 C 24.421875 -0.00390625 24.722656 -0.00390625 25.019531 0.152344 L 40.8125 8.421875 C 41.007812 8.523438 41.152344 8.675781 41.242188 8.875 C 41.332031 9.078125 41.351562 9.285156 41.300781 9.5 C 41.246094 9.710938 41.132812 9.886719 40.960938 10.023438 C 40.785156 10.160156 40.589844 10.226562 40.371094 10.226562 L 8.773438 10.226562 C 8.554688 10.226562 8.359375 10.160156 8.183594 10.023438 C 8.011719 9.886719 7.898438 9.710938 7.84375 9.5 Z M 24.570312 2.082031 L 12.664062 8.3125 L 36.472656 8.3125 Z M 24.570312 2.082031 "/><path style=" stroke:none;fill-rule:nonzero;fill:#e82c8d;fill-opacity:1;" d="M 17.617188 9.703125 C 17.4375 9.355469 17.464844 9.023438 17.699219 8.707031 L 23.796875 0.433594 C 23.890625 0.316406 24.007812 0.226562 24.140625 0.160156 C 24.277344 0.0976562 24.417969 0.0664062 24.566406 0.0664062 C 24.71875 0.0664062 24.859375 0.0976562 24.996094 0.160156 C 25.128906 0.226562 25.242188 0.316406 25.339844 0.433594 L 31.433594 8.703125 C 31.667969 9.019531 31.695312 9.351562 31.515625 9.703125 C 31.339844 10.050781 31.058594 10.226562 30.664062 10.226562 L 18.472656 10.226562 C 18.078125 10.230469 17.792969 10.054688 17.617188 9.703125 Z M 24.566406 2.617188 L 20.367188 8.3125 L 28.773438 8.3125 Z M 24.566406 2.617188 "/><path style=" stroke:none;fill-rule:nonzero;fill:#e82c8d;fill-opacity:1;" d="M 4.75 24.359375 C 5.074219 24.359375 5.335938 24.226562 5.527344 23.960938 L 15.699219 9.828125 C 15.78125 9.722656 15.835938 9.609375 15.871094 9.484375 C 15.90625 9.359375 15.914062 9.230469 15.894531 9.101562 C 15.875 8.972656 15.832031 8.851562 15.765625 8.738281 C 15.699219 8.628906 15.609375 8.535156 15.503906 8.457031 C 15.398438 8.382812 15.28125 8.328125 15.15625 8.300781 C 15.027344 8.273438 14.898438 8.269531 14.773438 8.292969 C 14.644531 8.316406 14.523438 8.367188 14.417969 8.4375 C 14.308594 8.511719 14.21875 8.601562 14.144531 8.710938 L 3.972656 22.84375 C 3.746094 23.160156 3.71875 23.492188 3.898438 23.839844 C 4.074219 24.1875 4.359375 24.359375 4.75 24.359375 Z M 4.75 24.359375 "/><path style=" stroke:none;fill-rule:nonzero;fill:#e82c8d;fill-opacity:1;" d="M 13.320312 28.792969 C 13.519531 28.792969 13.699219 28.734375 13.863281 28.621094 C 14.027344 28.511719 14.144531 28.359375 14.214844 28.175781 L 21.300781 9.613281 C 21.394531 9.363281 21.390625 9.121094 21.28125 8.878906 C 21.171875 8.636719 20.996094 8.46875 20.75 8.375 C 20.5 8.28125 20.257812 8.289062 20.015625 8.394531 C 19.773438 8.503906 19.605469 8.679688 19.511719 8.929688 L 12.425781 27.492188 C 12.371094 27.640625 12.351562 27.792969 12.371094 27.949219 C 12.390625 28.105469 12.441406 28.25 12.53125 28.378906 C 12.621094 28.507812 12.734375 28.609375 12.875 28.683594 C 13.015625 28.753906 13.164062 28.792969 13.320312 28.792969 Z M 13.320312 28.792969 "/><path style=" stroke:none;fill-rule:nonzero;fill:#e82c8d;fill-opacity:1;" d="M 8.878906 30.375 C 8.878906 29.929688 8.964844 29.5 9.136719 29.089844 C 9.308594 28.679688 9.550781 28.316406 9.863281 28 C 10.179688 27.683594 10.542969 27.441406 10.953125 27.273438 C 11.367188 27.101562 11.792969 27.015625 12.238281 27.015625 C 12.683594 27.015625 13.113281 27.101562 13.523438 27.269531 C 13.9375 27.441406 14.300781 27.683594 14.613281 28 C 14.929688 28.3125 15.171875 28.675781 15.34375 29.085938 C 15.515625 29.5 15.601562 29.925781 15.601562 30.371094 C 15.601562 30.816406 15.515625 31.246094 15.347656 31.65625 C 15.175781 32.070312 14.933594 32.433594 14.621094 32.75 C 14.304688 33.0625 13.941406 33.308594 13.53125 33.480469 C 13.121094 33.648438 12.691406 33.734375 12.246094 33.738281 C 11.800781 33.738281 11.371094 33.652344 10.960938 33.480469 C 10.546875 33.3125 10.183594 33.070312 9.867188 32.753906 C 9.550781 32.4375 9.308594 32.074219 9.136719 31.664062 C 8.964844 31.25 8.878906 30.820312 8.878906 30.375 Z M 10.792969 30.375 C 10.792969 30.566406 10.828125 30.75 10.902344 30.929688 C 10.976562 31.105469 11.078125 31.261719 11.214844 31.398438 C 11.351562 31.535156 11.507812 31.640625 11.683594 31.710938 C 11.859375 31.785156 12.046875 31.824219 12.238281 31.824219 C 12.429688 31.824219 12.613281 31.789062 12.789062 31.714844 C 12.96875 31.644531 13.125 31.539062 13.261719 31.402344 C 13.398438 31.269531 13.5 31.113281 13.574219 30.933594 C 13.648438 30.757812 13.6875 30.574219 13.6875 30.382812 C 13.6875 30.191406 13.652344 30.003906 13.578125 29.828125 C 13.507812 29.652344 13.402344 29.492188 13.269531 29.359375 C 13.132812 29.222656 12.976562 29.117188 12.800781 29.042969 C 12.625 28.96875 12.4375 28.929688 12.246094 28.929688 C 12.054688 28.929688 11.871094 28.964844 11.691406 29.039062 C 11.515625 29.109375 11.355469 29.214844 11.21875 29.351562 C 11.085938 29.484375 10.980469 29.640625 10.90625 29.820312 C 10.832031 29.996094 10.792969 30.183594 10.792969 30.375 Z M 10.792969 30.375 "/><g clip-rule="nonzero" clip-path="url(#f2defd900d)"><path style=" stroke:none;fill-rule:nonzero;fill:#e82c8d;fill-opacity:1;" d="M 0.0820312 25.566406 C 0.0820312 25.121094 0.164062 24.691406 0.335938 24.28125 C 0.507812 23.867188 0.75 23.503906 1.066406 23.191406 C 1.378906 22.875 1.746094 22.632812 2.15625 22.460938 C 2.566406 22.289062 2.996094 22.203125 3.441406 22.203125 C 3.890625 22.203125 4.316406 22.289062 4.730469 22.460938 C 5.140625 22.632812 5.503906 22.875 5.820312 23.191406 C 6.136719 23.503906 6.378906 23.871094 6.550781 24.28125 C 6.71875 24.695312 6.804688 25.121094 6.804688 25.566406 C 6.804688 26.015625 6.71875 26.441406 6.546875 26.855469 C 6.378906 27.265625 6.132812 27.628906 5.820312 27.945312 C 5.503906 28.261719 5.140625 28.503906 4.726562 28.671875 C 4.316406 28.84375 3.886719 28.929688 3.441406 28.929688 C 2.996094 28.929688 2.566406 28.84375 2.15625 28.671875 C 1.742188 28.5 1.378906 28.257812 1.066406 27.941406 C 0.75 27.628906 0.507812 27.265625 0.335938 26.851562 C 0.164062 26.441406 0.0820312 26.011719 0.0820312 25.566406 Z M 1.992188 25.566406 C 1.992188 25.757812 2.03125 25.945312 2.101562 26.121094 C 2.175781 26.296875 2.28125 26.453125 2.417969 26.589844 C 2.554688 26.726562 2.710938 26.832031 2.886719 26.90625 C 3.0625 26.976562 3.25 27.015625 3.441406 27.015625 C 3.632812 27.015625 3.816406 26.976562 3.996094 26.90625 C 4.171875 26.832031 4.328125 26.726562 4.464844 26.589844 C 4.601562 26.453125 4.703125 26.296875 4.777344 26.121094 C 4.851562 25.945312 4.886719 25.757812 4.886719 25.566406 C 4.886719 25.375 4.851562 25.191406 4.777344 25.011719 C 4.703125 24.835938 4.601562 24.679688 4.464844 24.542969 C 4.328125 24.40625 4.171875 24.304688 3.996094 24.230469 C 3.816406 24.15625 3.632812 24.121094 3.441406 24.121094 C 3.25 24.121094 3.0625 24.15625 2.886719 24.230469 C 2.710938 24.304688 2.554688 24.410156 2.417969 24.542969 C 2.28125 24.679688 2.175781 24.835938 2.105469 25.011719 C 2.03125 25.191406 1.992188 25.375 1.992188 25.566406 Z M 1.992188 25.566406 "/></g><path style=" stroke:none;fill-rule:nonzero;fill:#e82c8d;fill-opacity:1;" d="M 44.386719 24.359375 C 44.777344 24.359375 45.0625 24.183594 45.238281 23.835938 C 45.414062 23.492188 45.390625 23.160156 45.164062 22.84375 L 34.992188 8.707031 C 34.917969 8.597656 34.828125 8.507812 34.722656 8.4375 C 34.613281 8.363281 34.492188 8.316406 34.367188 8.292969 C 34.238281 8.269531 34.109375 8.269531 33.980469 8.300781 C 33.855469 8.328125 33.738281 8.378906 33.632812 8.457031 C 33.527344 8.53125 33.4375 8.625 33.371094 8.738281 C 33.304688 8.847656 33.261719 8.96875 33.242188 9.097656 C 33.222656 9.226562 33.230469 9.355469 33.265625 9.480469 C 33.300781 9.609375 33.359375 9.722656 33.4375 9.824219 L 43.609375 23.960938 C 43.800781 24.226562 44.0625 24.359375 44.386719 24.359375 Z M 44.386719 24.359375 "/><path style=" stroke:none;fill-rule:nonzero;fill:#e82c8d;fill-opacity:1;" d="M 35.8125 28.792969 C 35.96875 28.792969 36.117188 28.753906 36.257812 28.683594 C 36.398438 28.609375 36.511719 28.507812 36.601562 28.378906 C 36.691406 28.25 36.746094 28.105469 36.761719 27.949219 C 36.78125 27.792969 36.761719 27.640625 36.707031 27.492188 L 29.621094 8.929688 C 29.527344 8.679688 29.359375 8.503906 29.117188 8.394531 C 28.875 8.289062 28.632812 8.28125 28.386719 8.375 C 28.136719 8.46875 27.960938 8.636719 27.851562 8.878906 C 27.746094 9.121094 27.738281 9.363281 27.832031 9.613281 L 34.917969 28.175781 C 34.988281 28.363281 35.105469 28.511719 35.269531 28.621094 C 35.433594 28.734375 35.613281 28.792969 35.8125 28.792969 Z M 35.8125 28.792969 "/><path style=" stroke:none;fill-rule:nonzero;fill:#e82c8d;fill-opacity:1;" d="M 33.539062 30.375 C 33.539062 29.929688 33.625 29.5 33.796875 29.089844 C 33.96875 28.675781 34.210938 28.3125 34.523438 28 C 34.839844 27.683594 35.203125 27.441406 35.617188 27.273438 C 36.027344 27.101562 36.457031 27.015625 36.902344 27.015625 C 37.347656 27.015625 37.777344 27.101562 38.1875 27.273438 C 38.597656 27.441406 38.960938 27.6875 39.277344 28 C 39.59375 28.316406 39.835938 28.679688 40.003906 29.089844 C 40.175781 29.503906 40.261719 29.933594 40.261719 30.378906 C 40.261719 30.824219 40.175781 31.25 40.003906 31.664062 C 39.835938 32.074219 39.589844 32.4375 39.277344 32.753906 C 38.960938 33.066406 38.597656 33.3125 38.1875 33.480469 C 37.773438 33.652344 37.347656 33.738281 36.898438 33.738281 C 36.453125 33.738281 36.027344 33.652344 35.613281 33.480469 C 35.203125 33.308594 34.839844 33.066406 34.523438 32.75 C 34.210938 32.4375 33.96875 32.074219 33.796875 31.660156 C 33.625 31.25 33.539062 30.820312 33.539062 30.375 Z M 35.453125 30.375 C 35.453125 30.566406 35.488281 30.75 35.5625 30.929688 C 35.636719 31.105469 35.738281 31.261719 35.875 31.398438 C 36.011719 31.535156 36.167969 31.640625 36.34375 31.714844 C 36.523438 31.785156 36.707031 31.824219 36.898438 31.824219 C 37.089844 31.824219 37.277344 31.789062 37.453125 31.714844 C 37.628906 31.640625 37.789062 31.535156 37.921875 31.402344 C 38.058594 31.265625 38.164062 31.109375 38.238281 30.929688 C 38.3125 30.753906 38.347656 30.570312 38.347656 30.378906 C 38.347656 30.183594 38.3125 30 38.238281 29.824219 C 38.164062 29.644531 38.058594 29.488281 37.925781 29.351562 C 37.789062 29.21875 37.632812 29.113281 37.453125 29.039062 C 37.277344 28.964844 37.09375 28.929688 36.898438 28.929688 C 36.707031 28.929688 36.523438 28.964844 36.347656 29.039062 C 36.167969 29.113281 36.011719 29.214844 35.875 29.351562 C 35.738281 29.488281 35.632812 29.644531 35.5625 29.820312 C 35.488281 30 35.449219 30.183594 35.449219 30.375 Z M 35.453125 30.375 "/><g clip-rule="nonzero" clip-path="url(#c5c0b18c0e)"><path style=" stroke:none;fill-rule:nonzero;fill:#e82c8d;fill-opacity:1;" d="M 42.335938 25.566406 C 42.335938 25.121094 42.417969 24.691406 42.589844 24.28125 C 42.761719 23.867188 43.003906 23.503906 43.320312 23.191406 C 43.632812 22.875 43.996094 22.632812 44.410156 22.460938 C 44.820312 22.289062 45.25 22.203125 45.695312 22.203125 C 46.140625 22.203125 46.570312 22.289062 46.984375 22.460938 C 47.394531 22.632812 47.757812 22.875 48.074219 23.191406 C 48.390625 23.503906 48.632812 23.867188 48.800781 24.28125 C 48.972656 24.691406 49.058594 25.121094 49.058594 25.566406 C 49.058594 26.011719 48.972656 26.441406 48.800781 26.855469 C 48.632812 27.265625 48.390625 27.628906 48.074219 27.945312 C 47.757812 28.257812 47.394531 28.503906 46.984375 28.671875 C 46.570312 28.84375 46.140625 28.929688 45.695312 28.929688 C 45.25 28.929688 44.820312 28.84375 44.410156 28.671875 C 44 28.5 43.636719 28.257812 43.320312 27.941406 C 43.003906 27.628906 42.761719 27.265625 42.589844 26.851562 C 42.421875 26.441406 42.335938 26.011719 42.335938 25.566406 Z M 44.25 25.566406 C 44.25 25.757812 44.285156 25.945312 44.359375 26.121094 C 44.433594 26.296875 44.539062 26.453125 44.671875 26.589844 C 44.808594 26.726562 44.964844 26.832031 45.140625 26.90625 C 45.320312 26.976562 45.503906 27.015625 45.695312 27.015625 C 45.886719 27.015625 46.074219 26.976562 46.25 26.90625 C 46.429688 26.832031 46.585938 26.726562 46.71875 26.589844 C 46.855469 26.453125 46.960938 26.296875 47.035156 26.121094 C 47.105469 25.945312 47.144531 25.757812 47.144531 25.566406 C 47.144531 25.375 47.105469 25.191406 47.035156 25.011719 C 46.960938 24.835938 46.855469 24.679688 46.71875 24.542969 C 46.585938 24.40625 46.429688 24.304688 46.25 24.230469 C 46.074219 24.15625 45.886719 24.121094 45.695312 24.121094 C 45.503906 24.121094 45.320312 24.15625 45.144531 24.230469 C 44.964844 24.304688 44.808594 24.410156 44.671875 24.542969 C 44.539062 24.679688 44.433594 24.835938 44.359375 25.011719 C 44.285156 25.191406 44.25 25.375 44.25 25.566406 Z M 44.25 25.566406 "/></g><g clip-rule="nonzero" clip-path="url(#68e720bd45)"><path style=" stroke:none;fill-rule:nonzero;fill:#e82c8d;fill-opacity:1;" d="M 7.910156 40.382812 L 41.234375 40.382812 C 41.5 40.382812 41.722656 40.289062 41.910156 40.101562 C 42.097656 39.914062 42.191406 39.6875 42.191406 39.425781 C 42.191406 39.160156 42.097656 38.933594 41.910156 38.75 C 41.722656 38.5625 41.5 38.46875 41.234375 38.46875 L 7.910156 38.46875 C 7.644531 38.46875 7.421875 38.5625 7.234375 38.75 C 7.046875 38.933594 6.953125 39.160156 6.953125 39.425781 C 6.953125 39.6875 7.046875 39.914062 7.234375 40.101562 C 7.421875 40.289062 7.644531 40.382812 7.910156 40.382812 Z M 7.910156 40.382812 "/></g></g></svg>