<svg xmlns="http://www.w3.org/2000/svg" xmlns:xlink="http://www.w3.org/1999/xlink" width="42" zoomAndPan="magnify" viewBox="0 0 31.5 31.499999" height="42" preserveAspectRatio="xMidYMid meet" version="1.2"><defs><clipPath id="12cd607294"><path d="M 0 0 L 31.007812 0 L 31.007812 31.007812 L 0 31.007812 Z M 0 0 "/></clipPath><clipPath id="b5ab09cd52"><path d="M 0 0 L 30.613281 0 L 30.613281 30.613281 L 0 30.613281 Z M 0 0 "/></clipPath><clipPath id="5441bb8857"><path d="M 15.308594 0 C 6.851562 0 0 6.851562 0 15.308594 C 0 23.761719 6.851562 30.613281 15.308594 30.613281 C 23.761719 30.613281 30.613281 23.761719 30.613281 15.308594 C 30.613281 6.851562 23.761719 0 15.308594 0 Z M 15.308594 0 "/></clipPath><clipPath id="d7f3d0327c"><path d="M 0 0 L 30.269531 0 L 30.269531 30.269531 L 0 30.269531 Z M 0 0 "/></clipPath></defs><g id="3f5a3170d8"><g clip-rule="nonzero" clip-path="url(#12cd607294)"><path style=" stroke:none;fill-rule:nonzero;fill:#ffffff;fill-opacity:1;" d="M 0 0 L 31.007812 0 L 31.007812 31.007812 L 0 31.007812 Z M 0 0 "/></g><g clip-rule="nonzero" clip-path="url(#b5ab09cd52)"><g clip-rule="nonzero" clip-path="url(#5441bb8857)"><path style=" stroke:none;fill-rule:nonzero;fill:#181c42;fill-opacity:1;" d="M 0 0 L 30.613281 0 L 30.613281 30.613281 L 0 30.613281 Z M 0 0 "/></g></g><g clip-rule="nonzero" clip-path="url(#d7f3d0327c)"><path style=" stroke:none;fill-rule:nonzero;fill:#000000;fill-opacity:1;" d="M 15.132812 30.273438 C 6.777344 30.273438 0 23.496094 0 15.136719 C 0 6.777344 6.777344 0.00390625 15.132812 0.00390625 C 23.492188 0.00390625 30.269531 6.777344 30.269531 15.136719 C 30.269531 23.496094 23.492188 30.273438 15.132812 30.273438 Z M 15.132812 30.273438 "/><path style=" stroke:none;fill-rule:nonzero;fill:#000000;fill-opacity:1;" d="M 15.132812 0 C 6.777344 0 0 6.777344 0 15.132812 C 0 23.492188 6.777344 30.269531 15.132812 30.269531 C 23.492188 30.269531 30.269531 23.492188 30.269531 15.132812 C 30.269531 6.777344 23.492188 0 15.132812 0 Z M 15.132812 28.519531 C 7.738281 28.519531 1.75 22.53125 1.75 15.132812 C 1.75 7.738281 7.738281 1.75 15.132812 1.75 C 22.53125 1.75 28.519531 7.738281 28.519531 15.132812 C 28.519531 22.53125 22.53125 28.519531 15.132812 28.519531 Z M 15.132812 28.519531 "/></g><path style=" stroke:none;fill-rule:nonzero;fill:#ffffff;fill-opacity:1;" d="M 13.957031 16.292969 C 11.453125 13.210938 11.242188 9.167969 13.085938 6.070312 C 11.90625 6.355469 10.769531 6.863281 9.746094 7.605469 C 5.566406 10.632812 4.863281 16.394531 8.179688 20.480469 C 11.492188 24.5625 17.5625 25.417969 21.742188 22.390625 C 22.765625 21.652344 23.578125 20.746094 24.175781 19.738281 C 20.53125 20.617188 16.457031 19.375 13.957031 16.292969 Z M 13.957031 16.292969 "/><path style=" stroke:none;fill-rule:nonzero;fill:#ffffff;fill-opacity:1;" d="M 7.804688 20.75 C 4.335938 16.472656 5.070312 10.410156 9.449219 7.238281 C 10.496094 6.480469 11.675781 5.9375 12.957031 5.628906 C 13.140625 5.585938 13.339844 5.652344 13.460938 5.800781 C 13.578125 5.949219 13.597656 6.144531 13.503906 6.304688 C 11.6875 9.351562 12.011719 13.167969 14.328125 16.023438 C 16.644531 18.878906 20.460938 20.164062 24.046875 19.300781 C 24.230469 19.253906 24.429688 19.320312 24.550781 19.46875 C 24.667969 19.617188 24.6875 19.816406 24.59375 19.972656 C 23.945312 21.0625 23.085938 21.996094 22.039062 22.757812 C 17.660156 25.929688 11.277344 25.027344 7.804688 20.75 Z M 12.15625 6.835938 C 11.402344 7.117188 10.691406 7.496094 10.039062 7.96875 C 6.074219 10.839844 5.40625 16.332031 8.550781 20.210938 C 11.695312 24.085938 17.480469 24.902344 21.445312 22.027344 C 22.097656 21.554688 22.671875 21.007812 23.15625 20.390625 C 19.550781 20.84375 15.894531 19.410156 13.582031 16.5625 C 11.273438 13.714844 10.757812 10.003906 12.15625 6.835938 Z M 12.15625 6.835938 "/></g></svg>