<svg xmlns="http://www.w3.org/2000/svg" xmlns:xlink="http://www.w3.org/1999/xlink" width="285" zoomAndPan="magnify" viewBox="0 0 213.75 213.75" height="285" preserveAspectRatio="xMidYMid meet" version="1.2"><defs><clipPath id="42cc417f59"><path d="M 9 9 L 204 9 L 204 204 L 9 204 Z M 9 9 "/></clipPath><clipPath id="49a34e6fd4"><path d="M 106.753906 0 L 213.269531 106.511719 L 106.339844 213.441406 L -0.175781 106.929688 Z M 106.753906 0 "/></clipPath><clipPath id="1251b2a69f"><path d="M 122.648438 15.890625 L 197.378906 90.621094 C 206.152344 99.398438 206.152344 113.628906 197.378906 122.402344 L 122.402344 197.378906 C 113.625 206.15625 99.398438 206.15625 90.621094 197.378906 L 15.890625 122.648438 C 7.113281 113.871094 7.113281 99.640625 15.890625 90.867188 L 90.863281 15.890625 C 99.640625 7.113281 113.871094 7.113281 122.648438 15.890625 Z M 122.648438 15.890625 "/></clipPath><clipPath id="0d3813c23d"><path d="M 143 43 L 213.5 43 L 213.5 120 L 143 120 Z M 143 43 "/></clipPath><clipPath id="7800c696ad"><path d="M 164 69 L 213.5 69 L 213.5 146 L 164 146 Z M 164 69 "/></clipPath><clipPath id="e1e1ccfcc6"><path d="M 67 162 L 145 162 L 145 213.5 L 67 213.5 Z M 67 162 "/></clipPath><clipPath id="0d12f77e44"><path d="M 93 142 L 171 142 L 171 213.5 L 93 213.5 Z M 93 142 "/></clipPath><clipPath id="a190a9da6f"><path d="M 141 96 L 213.5 96 L 213.5 173 L 141 173 Z M 141 96 "/></clipPath><clipPath id="4d68f71ad3"><path d="M 41 140 L 118 140 L 118 213.5 L 41 213.5 Z M 41 140 "/></clipPath><clipPath id="86e0192ba1"><path d="M 56.875 91.726562 L 66.648438 91.726562 L 66.648438 101.5 L 56.875 101.5 Z M 56.875 91.726562 "/></clipPath><clipPath id="088c5d0de9"><path d="M 61.761719 91.726562 C 59.0625 91.726562 56.875 93.914062 56.875 96.613281 C 56.875 99.3125 59.0625 101.5 61.761719 101.5 C 64.460938 101.5 66.648438 99.3125 66.648438 96.613281 C 66.648438 93.914062 64.460938 91.726562 61.761719 91.726562 Z M 61.761719 91.726562 "/></clipPath></defs><g id="5930b4985b"><g clip-rule="nonzero" clip-path="url(#42cc417f59)"><g clip-rule="nonzero" clip-path="url(#49a34e6fd4)"><g clip-rule="nonzero" clip-path="url(#1251b2a69f)"><path style=" stroke:none;fill-rule:nonzero;fill:#000000;fill-opacity:1;" d="M 106.753906 0 L 213.269531 106.511719 L 106.339844 213.441406 L -0.175781 106.929688 Z M 106.753906 0 "/></g></g></g><path style="fill:none;stroke-width:7;stroke-linecap:round;stroke-linejoin:miter;stroke:#ffffff;stroke-opacity:1;stroke-miterlimit:4;" d="M 3.500075 3.500072 L 21.699196 3.497037 " transform="matrix(0.579856,0.598082,-0.598082,0.579856,129.645822,24.072441)"/><path style="fill:none;stroke-width:7;stroke-linecap:round;stroke-linejoin:miter;stroke:#ffffff;stroke-opacity:1;stroke-miterlimit:4;" d="M 3.501165 3.501276 L 21.097428 3.498914 " transform="matrix(0.584205,0.602568,-0.602568,0.584205,152.931546,48.087034)"/><g clip-rule="nonzero" clip-path="url(#0d3813c23d)"><path style="fill:none;stroke-width:7;stroke-linecap:round;stroke-linejoin:miter;stroke:#ffffff;stroke-opacity:1;stroke-miterlimit:4;" d="M 3.498494 3.498526 L 21.904644 3.50122 " transform="matrix(0.575217,0.593298,-0.593298,0.575217,175.864054,71.743971)"/></g><g clip-rule="nonzero" clip-path="url(#7800c696ad)"><path style="fill:none;stroke-width:7;stroke-linecap:round;stroke-linejoin:miter;stroke:#ffffff;stroke-opacity:1;stroke-miterlimit:4;" d="M 4.840129 4.720002 C 9.621546 3.080292 14.40355 3.095055 19.186274 4.754756 " transform="matrix(0.0115147,0.81928,-0.81928,0.0115147,200.658925,97.515387)"/></g><path style="fill:none;stroke-width:7;stroke-linecap:round;stroke-linejoin:miter;stroke:#ffffff;stroke-opacity:1;stroke-miterlimit:4;" d="M 4.841215 4.719879 C 9.622024 3.081999 14.404518 3.093824 19.183931 4.755428 " transform="matrix(0.819263,0.0126764,-0.0126764,0.819263,98.257667,12.743686)"/><g clip-rule="nonzero" clip-path="url(#e1e1ccfcc6)"><path style="fill:none;stroke-width:7;stroke-linecap:round;stroke-linejoin:miter;stroke:#ffffff;stroke-opacity:1;stroke-miterlimit:4;" d="M 4.837291 4.718988 C 9.619108 3.083763 14.405861 3.094651 19.188023 4.752065 " transform="matrix(-0.818584,-0.0356767,0.0356767,-0.818584,115.40465,200.015933)"/></g><path style="fill:none;stroke-width:7;stroke-linecap:round;stroke-linejoin:miter;stroke:#ffffff;stroke-opacity:1;stroke-miterlimit:4;" d="M 3.500824 3.501488 L 21.699945 3.498454 " transform="matrix(0.598082,-0.579856,0.579856,0.598082,23.309453,85.095953)"/><path style="fill:none;stroke-width:7;stroke-linecap:round;stroke-linejoin:miter;stroke:#ffffff;stroke-opacity:1;stroke-miterlimit:4;" d="M 3.499302 3.502099 L 21.095565 3.499737 " transform="matrix(0.602568,-0.584205,0.584205,0.602568,47.532989,61.613746)"/><path style="fill:none;stroke-width:7;stroke-linecap:round;stroke-linejoin:miter;stroke:#ffffff;stroke-opacity:1;stroke-miterlimit:4;" d="M 3.499729 3.502233 L 21.902485 3.501637 " transform="matrix(0.593298,-0.575217,0.575217,0.593298,71.186418,38.677426)"/><g clip-rule="nonzero" clip-path="url(#0d12f77e44)"><path style="fill:none;stroke-width:7;stroke-linecap:round;stroke-linejoin:miter;stroke:#ffffff;stroke-opacity:1;stroke-miterlimit:4;" d="M 3.500271 3.501231 L 21.699392 3.498196 " transform="matrix(0.598082,-0.579856,0.579856,0.598082,122.044308,186.189536)"/></g><path style="fill:none;stroke-width:7;stroke-linecap:round;stroke-linejoin:miter;stroke:#ffffff;stroke-opacity:1;stroke-miterlimit:4;" d="M 3.498743 3.501833 L 21.098347 3.502711 " transform="matrix(0.602568,-0.584205,0.584205,0.602568,146.267856,162.707329)"/><g clip-rule="nonzero" clip-path="url(#a190a9da6f)"><path style="fill:none;stroke-width:7;stroke-linecap:round;stroke-linejoin:miter;stroke:#ffffff;stroke-opacity:1;stroke-miterlimit:4;" d="M 3.499159 3.501974 L 21.901915 3.501378 " transform="matrix(0.593298,-0.575217,0.575217,0.593298,169.92128,139.771002)"/></g><path style="fill:none;stroke-width:7;stroke-linecap:round;stroke-linejoin:miter;stroke:#ffffff;stroke-opacity:1;stroke-miterlimit:4;" d="M 4.837918 4.72139 C 9.61993 3.084288 14.40446 3.091086 19.183286 4.75247 " transform="matrix(0.105798,-0.812501,0.812501,0.105798,12.554364,111.724269)"/><path style="fill:none;stroke-width:7;stroke-linecap:round;stroke-linejoin:miter;stroke:#ffffff;stroke-opacity:1;stroke-miterlimit:4;" d="M 3.49965 3.500046 L 21.698771 3.497011 " transform="matrix(0.579856,0.598082,-0.598082,0.579856,28.161678,121.810992)"/><path style="fill:none;stroke-width:7;stroke-linecap:round;stroke-linejoin:miter;stroke:#ffffff;stroke-opacity:1;stroke-miterlimit:4;" d="M 3.500731 3.501254 L 21.096993 3.498892 " transform="matrix(0.584205,0.602568,-0.602568,0.584205,51.447411,145.82559)"/><g clip-rule="nonzero" clip-path="url(#4d68f71ad3)"><path style="fill:none;stroke-width:7;stroke-linecap:round;stroke-linejoin:miter;stroke:#ffffff;stroke-opacity:1;stroke-miterlimit:4;" d="M 3.50145 3.501769 L 21.904206 3.501173 " transform="matrix(0.575217,0.593298,-0.593298,0.575217,74.379903,169.482539)"/></g><g style="fill:#2995fc;fill-opacity:1;"><g transform="translate(134.172041, 152.940951)"><path style="stroke:none" d="M 6.359375 -39.828125 L 6.40625 -40.21875 C 6.457031 -40.59375 6.53125 -41.035156 6.625 -41.546875 C 6.71875 -42.066406 6.851562 -42.523438 7.03125 -42.921875 C 7.21875 -43.328125 7.476562 -43.671875 7.8125 -43.953125 C 8.144531 -44.242188 8.535156 -44.363281 8.984375 -44.3125 C 9.890625 -44.195312 10.53125 -43.71875 10.90625 -42.875 C 11.289062 -42.039062 11.570312 -41.253906 11.75 -40.515625 C 9.96875 -35.203125 8.234375 -30.65625 6.546875 -26.875 C 4.867188 -23.101562 2.738281 -20.023438 0.15625 -17.640625 C -2.414062 -15.253906 -5.664062 -13.507812 -9.59375 -12.40625 C -13.519531 -11.3125 -18.613281 -10.789062 -24.875 -10.84375 C -19.414062 -10.625 -14.6875 -10.992188 -10.6875 -11.953125 C -6.6875 -12.921875 -3.238281 -14.53125 -0.34375 -16.78125 C 2.539062 -19.03125 4.976562 -21.988281 6.96875 -25.65625 C 8.96875 -29.320312 10.6875 -33.742188 12.125 -38.921875 C 12.46875 -37.441406 12.546875 -35.992188 12.359375 -34.578125 C 11.953125 -31.304688 10.863281 -28.082031 9.09375 -24.90625 C 7.320312 -21.726562 5.257812 -19.046875 2.90625 -16.859375 L 2.21875 -17.640625 C 0.15625 -15.347656 -2.316406 -13.613281 -5.203125 -12.4375 C -8.085938 -11.269531 -11.117188 -10.476562 -14.296875 -10.0625 C -17.484375 -9.65625 -20.695312 -9.523438 -23.9375 -9.671875 C -27.1875 -9.816406 -30.222656 -10.066406 -33.046875 -10.421875 C -34.660156 -10.617188 -36.265625 -10.847656 -37.859375 -11.109375 C -39.453125 -11.378906 -41.046875 -11.710938 -42.640625 -12.109375 L -42.875 -11.640625 C -39.351562 -10.609375 -35.796875 -9.867188 -32.203125 -9.421875 C -29.816406 -9.117188 -27.140625 -8.960938 -24.171875 -8.953125 C -21.210938 -8.941406 -18.203125 -9.140625 -15.140625 -9.546875 C -12.085938 -9.953125 -9.175781 -10.5625 -6.40625 -11.375 C -3.820312 -12.15625 -1.597656 -13.210938 0.265625 -14.546875 C -1.828125 -12.984375 -4.164062 -11.773438 -6.75 -10.921875 C -9.476562 -10.023438 -12.320312 -9.367188 -15.28125 -8.953125 C -18.238281 -8.546875 -21.179688 -8.363281 -24.109375 -8.40625 C -27.035156 -8.457031 -29.847656 -8.648438 -32.546875 -8.984375 C -38.710938 -9.753906 -44.664062 -11.476562 -50.40625 -14.15625 C -56.144531 -16.832031 -61.25 -20.378906 -65.71875 -24.796875 C -67.75 -26.742188 -69.460938 -28.925781 -70.859375 -31.34375 C -72.253906 -33.769531 -73.648438 -36.1875 -75.046875 -38.59375 C -74.703125 -38.726562 -74.289062 -38.992188 -73.8125 -39.390625 C -73.332031 -39.796875 -72.9375 -39.976562 -72.625 -39.9375 C -72.363281 -39.90625 -72.070312 -39.738281 -71.75 -39.4375 C -71.425781 -39.144531 -71.128906 -38.785156 -70.859375 -38.359375 C -70.597656 -37.929688 -70.34375 -37.519531 -70.09375 -37.125 C -69.84375 -36.738281 -69.632812 -36.4375 -69.46875 -36.21875 L -68.609375 -36.796875 C -69.066406 -37.773438 -69.457031 -38.820312 -69.78125 -39.9375 C -70.101562 -41.050781 -70.195312 -42.148438 -70.0625 -43.234375 C -70.007812 -43.628906 -69.875 -44.039062 -69.65625 -44.46875 C -69.4375 -44.90625 -69.066406 -45.085938 -68.546875 -45.015625 C -67.910156 -44.941406 -67.101562 -44.363281 -66.125 -43.28125 C -65.15625 -42.207031 -63.957031 -40.867188 -62.53125 -39.265625 C -61.101562 -37.660156 -59.367188 -35.878906 -57.328125 -33.921875 C -55.285156 -31.972656 -52.875 -30.101562 -50.09375 -28.3125 C -47.320312 -26.519531 -44.09375 -24.921875 -40.40625 -23.515625 C -36.726562 -22.117188 -32.546875 -21.128906 -27.859375 -20.546875 C -25.035156 -20.191406 -22.179688 -20.054688 -19.296875 -20.140625 C -16.421875 -20.234375 -13.59375 -20.660156 -10.8125 -21.421875 L -10.421875 -21.578125 L -10.515625 -21.484375 C -8.804688 -21.660156 -7.3125 -22.253906 -6.03125 -23.265625 C -4.757812 -24.285156 -3.664062 -25.472656 -2.75 -26.828125 C -1.832031 -28.179688 -1.046875 -29.628906 -0.390625 -31.171875 C 0.253906 -32.722656 0.820312 -34.15625 1.3125 -35.46875 C 1.800781 -36.78125 2.226562 -37.851562 2.59375 -38.6875 C 2.96875 -39.519531 3.347656 -39.910156 3.734375 -39.859375 L 4.09375 -39.71875 C 3.53125 -36.78125 2.710938 -33.894531 1.640625 -31.0625 C 0.578125 -28.226562 -1.003906 -25.707031 -3.109375 -23.5 C -0.960938 -25.582031 0.675781 -28.035156 1.8125 -30.859375 C 2.945312 -33.679688 3.859375 -36.519531 4.546875 -39.375 L 5.578125 -38.953125 Z M -14.21875 -18.625 C -11.769531 -18.894531 -9.582031 -19.4375 -7.65625 -20.25 C -8.050781 -20.164062 -8.445312 -20.066406 -8.84375 -19.953125 C -9.25 -19.835938 -9.628906 -19.707031 -9.984375 -19.5625 L -9.875 -19.640625 C -11.644531 -19.078125 -13.476562 -18.722656 -15.375 -18.578125 C -17.226562 -18.421875 -19.066406 -18.351562 -20.890625 -18.375 C -18.890625 -18.25 -16.664062 -18.332031 -14.21875 -18.625 Z M -14.21875 -18.625 "/></g></g><g style="fill:#ffffff;fill-opacity:1;"><g transform="translate(79.200251, 101.993187)"><path style="stroke:none" d="M 27.546875 -28.578125 L 27.40625 -27.734375 C 27.25 -26.203125 27.15625 -24.5625 27.125 -22.8125 C 27.09375 -21.09375 26.96875 -19.351562 26.75 -17.59375 C 27 -19.320312 27.203125 -21.015625 27.359375 -22.671875 C 27.515625 -24.390625 27.671875 -26.078125 27.828125 -27.734375 C 27.984375 -27.234375 28.113281 -26.703125 28.21875 -26.140625 C 28.332031 -25.578125 28.390625 -24.984375 28.390625 -24.359375 C 28.234375 -22.796875 28.09375 -21.296875 27.96875 -19.859375 C 27.84375 -18.421875 27.671875 -16.914062 27.453125 -15.34375 L 26.84375 -15.203125 C 26.6875 -13.765625 26.359375 -12.203125 25.859375 -10.515625 C 25.359375 -8.828125 24.628906 -7.257812 23.671875 -5.8125 C 22.722656 -4.375 21.5 -3.175781 20 -2.21875 C 18.5 -1.269531 16.695312 -0.796875 14.59375 -0.796875 C 13.90625 -0.796875 13.175781 -0.847656 12.40625 -0.953125 C 11.644531 -1.066406 10.90625 -1.238281 10.1875 -1.46875 C 9.46875 -1.707031 8.78125 -2.015625 8.125 -2.390625 C 7.46875 -2.765625 6.90625 -3.234375 6.4375 -3.796875 L 6.484375 -3.703125 L 6.484375 -3.65625 L 6.4375 -3.609375 L 6.296875 -3.65625 C 6.484375 -3.375 6.6875 -3.125 6.90625 -2.90625 C 6.34375 -3.40625 5.820312 -3.984375 5.34375 -4.640625 C 4.5625 -5.710938 3.9375 -6.984375 3.46875 -8.453125 C 3.1875 -9.328125 2.96875 -10.21875 2.8125 -11.125 C 2.65625 -12.03125 2.546875 -12.988281 2.484375 -14 C 2.421875 -15.019531 2.378906 -16.125 2.359375 -17.3125 C 2.347656 -18.507812 2.34375 -19.828125 2.34375 -21.265625 C 2.625 -22.390625 2.84375 -23.515625 3 -24.640625 C 3.15625 -25.765625 3.265625 -26.890625 3.328125 -28.015625 C 3.421875 -28.015625 3.53125 -28.03125 3.65625 -28.0625 C 3.78125 -28.09375 3.90625 -28.109375 4.03125 -28.109375 C 4.25 -28.109375 4.441406 -27.984375 4.609375 -27.734375 C 4.785156 -27.484375 4.875 -26.953125 4.875 -26.140625 L 4.875 -25.71875 C 4.875 -25.59375 4.859375 -25.453125 4.828125 -25.296875 L 5.390625 -25.296875 C 5.640625 -26.609375 5.9375 -27.609375 6.28125 -28.296875 C 6.632812 -28.984375 6.984375 -29.328125 7.328125 -29.328125 C 7.578125 -29.328125 7.800781 -28.972656 8 -28.265625 C 8.207031 -27.566406 8.3125 -26.46875 8.3125 -24.96875 C 8.3125 -23.875 8.28125 -22.765625 8.21875 -21.640625 C 8.15625 -20.515625 8.125 -19.359375 8.125 -18.171875 C 8.125 -16.316406 8.207031 -14.640625 8.375 -13.140625 C 8.550781 -11.640625 8.890625 -10.359375 9.390625 -9.296875 C 9.890625 -8.234375 10.597656 -7.410156 11.515625 -6.828125 C 12.441406 -6.253906 13.640625 -5.96875 15.109375 -5.96875 C 16.328125 -5.96875 17.34375 -6.34375 18.15625 -7.09375 C 18.976562 -7.84375 19.671875 -8.84375 20.234375 -10.09375 C 20.796875 -11.34375 21.269531 -12.785156 21.65625 -14.421875 C 22.050781 -16.066406 22.421875 -17.785156 22.765625 -19.578125 C 22.828125 -20.078125 22.875 -20.578125 22.90625 -21.078125 C 22.9375 -21.578125 22.953125 -22.09375 22.953125 -22.625 L 22.953125 -24.078125 C 22.953125 -24.984375 23 -25.75 23.09375 -26.375 C 23.1875 -27 23.453125 -27.359375 23.890625 -27.453125 C 23.890625 -25.859375 23.84375 -24.28125 23.75 -22.71875 C 23.6875 -21.21875 23.5625 -19.71875 23.375 -18.21875 C 23.59375 -19.6875 23.765625 -21.15625 23.890625 -22.625 C 24.015625 -24.15625 24.109375 -25.71875 24.171875 -27.3125 C 24.359375 -27.1875 24.515625 -27.125 24.640625 -27.125 C 24.765625 -27.125 24.890625 -27.1875 25.015625 -27.3125 L 25.015625 -29 C 25.171875 -29.570312 25.328125 -29.972656 25.484375 -30.203125 C 25.640625 -30.441406 25.8125 -30.5625 26 -30.5625 C 26.1875 -30.5625 26.375 -30.46875 26.5625 -30.28125 C 26.75 -30.09375 26.9375 -29.859375 27.125 -29.578125 Z M 8.171875 -1.96875 C 8.921875 -1.5625 9.691406 -1.238281 10.484375 -1 C 11.285156 -0.769531 12.035156 -0.609375 12.734375 -0.515625 C 13.441406 -0.421875 14.015625 -0.375 14.453125 -0.375 C 16.648438 -0.375 18.515625 -0.859375 20.046875 -1.828125 C 21.578125 -2.796875 22.832031 -4.007812 23.8125 -5.46875 C 24.800781 -6.925781 25.5625 -8.484375 26.09375 -10.140625 C 26.59375 -11.703125 26.96875 -13.140625 27.21875 -14.453125 C 27 -13.140625 26.65625 -11.6875 26.1875 -10.09375 C 25.65625 -8.40625 24.894531 -6.820312 23.90625 -5.34375 C 22.925781 -3.875 21.6875 -2.640625 20.1875 -1.640625 C 18.6875 -0.640625 16.867188 -0.140625 14.734375 -0.140625 C 13.546875 -0.140625 12.375 -0.296875 11.21875 -0.609375 C 10.0625 -0.921875 8.984375 -1.40625 7.984375 -2.0625 C 8.046875 -2.03125 8.109375 -2 8.171875 -1.96875 Z M 26.140625 -13.515625 C 26.234375 -14.046875 26.3125 -14.5625 26.375 -15.0625 C 26.4375 -15.5 26.5 -15.9375 26.5625 -16.375 C 26.375 -15 26.0625 -13.546875 25.625 -12.015625 C 25.1875 -10.421875 24.578125 -8.910156 23.796875 -7.484375 C 23.015625 -6.054688 22.03125 -4.796875 20.84375 -3.703125 C 19.71875 -2.671875 18.398438 -1.96875 16.890625 -1.59375 C 18.210938 -1.875 19.390625 -2.421875 20.421875 -3.234375 C 21.484375 -4.078125 22.390625 -5.0625 23.140625 -6.1875 C 23.890625 -7.320312 24.503906 -8.53125 24.984375 -9.8125 C 25.472656 -11.09375 25.859375 -12.328125 26.140625 -13.515625 Z M 21.5 -10.234375 C 21.15625 -9.546875 20.769531 -8.890625 20.34375 -8.265625 C 19.925781 -7.640625 19.453125 -7.078125 18.921875 -6.578125 C 19.484375 -7.046875 19.972656 -7.59375 20.390625 -8.21875 C 20.816406 -8.84375 21.1875 -9.515625 21.5 -10.234375 Z M 7.984375 -2.0625 C 7.609375 -2.3125 7.25 -2.59375 6.90625 -2.90625 C 7.25 -2.59375 7.609375 -2.3125 7.984375 -2.0625 Z M 27.265625 -14.78125 L 27.21875 -14.453125 Z M 26.609375 -16.609375 C 26.578125 -16.515625 26.5625 -16.4375 26.5625 -16.375 C 26.5625 -16.4375 26.578125 -16.515625 26.609375 -16.609375 Z M 26.609375 -16.609375 "/></g></g><g clip-rule="nonzero" clip-path="url(#86e0192ba1)"><g clip-rule="nonzero" clip-path="url(#088c5d0de9)"><path style=" stroke:none;fill-rule:nonzero;fill:#ffffff;fill-opacity:1;" d="M 56.875 91.726562 L 66.648438 91.726562 L 66.648438 101.5 L 56.875 101.5 Z M 56.875 91.726562 "/></g></g><g style="fill:#ffffff;fill-opacity:1;"><g transform="translate(112.362336, 102.571257)"><path style="stroke:none" d="M 8.078125 -5.890625 C 7.117188 -5.804688 6.25 -5.765625 5.46875 -5.765625 L 4.71875 -5.765625 C 4.488281 -5.765625 4.25 -5.78125 4 -5.8125 C 4.601562 -6.007812 5.21875 -6.148438 5.84375 -6.234375 C 6.476562 -6.328125 7.109375 -6.425781 7.734375 -6.53125 C 7.804688 -8.03125 7.882812 -9.515625 7.96875 -10.984375 C 8.0625 -12.460938 8.179688 -13.957031 8.328125 -15.46875 C 7.523438 -15.738281 6.738281 -16.09375 5.96875 -16.53125 C 5.207031 -16.976562 4.523438 -17.492188 3.921875 -18.078125 C 3.316406 -18.671875 2.828125 -19.347656 2.453125 -20.109375 C 2.078125 -20.878906 1.890625 -21.734375 1.890625 -22.671875 C 1.890625 -23.847656 2.148438 -24.832031 2.671875 -25.625 C 3.203125 -26.414062 3.878906 -27.046875 4.703125 -27.515625 C 5.535156 -27.984375 6.46875 -28.316406 7.5 -28.515625 C 8.53125 -28.710938 9.539062 -28.8125 10.53125 -28.8125 C 10.695312 -28.8125 10.863281 -28.945312 11.03125 -29.21875 C 11.195312 -29.5 11.347656 -29.816406 11.484375 -30.171875 C 11.617188 -30.523438 11.726562 -30.867188 11.8125 -31.203125 C 11.90625 -31.546875 11.976562 -31.796875 12.03125 -31.953125 C 12.132812 -31.847656 12.25 -31.789062 12.375 -31.78125 C 12.5 -31.769531 12.617188 -31.753906 12.734375 -31.734375 C 12.847656 -31.722656 12.945312 -31.6875 13.03125 -31.625 C 13.113281 -31.5625 13.15625 -31.441406 13.15625 -31.265625 C 13.15625 -31.066406 13.125 -30.863281 13.0625 -30.65625 C 13 -30.457031 12.929688 -30.257812 12.859375 -30.0625 L 13.234375 -29.953125 C 13.316406 -30.097656 13.425781 -30.285156 13.5625 -30.515625 C 13.695312 -30.742188 13.84375 -30.953125 14 -31.140625 C 14.164062 -31.328125 14.347656 -31.488281 14.546875 -31.625 C 14.753906 -31.757812 14.957031 -31.828125 15.15625 -31.828125 C 15.4375 -31.828125 15.613281 -31.695312 15.6875 -31.4375 C 15.757812 -31.175781 15.796875 -30.941406 15.796875 -30.734375 C 15.796875 -30.304688 15.753906 -29.898438 15.671875 -29.515625 C 15.585938 -29.128906 15.492188 -28.734375 15.390625 -28.328125 C 15.835938 -28.171875 16.265625 -28.035156 16.671875 -27.921875 C 17.078125 -27.816406 17.476562 -27.691406 17.875 -27.546875 C 18.28125 -27.410156 18.671875 -27.242188 19.046875 -27.046875 C 19.421875 -26.847656 19.796875 -26.597656 20.171875 -26.296875 C 20.046875 -26.296875 19.960938 -26.25 19.921875 -26.15625 C 19.890625 -26.070312 19.859375 -25.976562 19.828125 -25.875 C 19.804688 -25.769531 19.773438 -25.671875 19.734375 -25.578125 C 19.703125 -25.492188 19.625 -25.453125 19.5 -25.453125 C 19.019531 -25.660156 18.546875 -25.851562 18.078125 -26.03125 C 17.617188 -26.207031 17.148438 -26.367188 16.671875 -26.515625 L 16.59375 -26.140625 C 16.820312 -26.066406 17.066406 -25.953125 17.328125 -25.796875 C 17.597656 -25.648438 17.859375 -25.472656 18.109375 -25.265625 C 18.359375 -25.066406 18.5625 -24.847656 18.71875 -24.609375 C 18.882812 -24.367188 18.96875 -24.113281 18.96875 -23.84375 C 18.96875 -23.6875 18.914062 -23.539062 18.8125 -23.40625 C 18.71875 -23.269531 18.59375 -23.1875 18.4375 -23.15625 C 17.632812 -23.582031 16.914062 -23.863281 16.28125 -24 C 15.65625 -24.144531 15.019531 -24.265625 14.375 -24.359375 C 14.164062 -23.554688 14 -22.691406 13.875 -21.765625 C 13.75 -20.835938 13.625 -19.96875 13.5 -19.15625 C 13.625 -19.132812 13.753906 -19.113281 13.890625 -19.09375 C 14.035156 -19.082031 14.171875 -19.078125 14.296875 -19.078125 C 15.328125 -19.078125 16.316406 -18.800781 17.265625 -18.25 C 18.222656 -17.695312 19.066406 -17 19.796875 -16.15625 C 20.523438 -15.320312 21.109375 -14.378906 21.546875 -13.328125 C 21.992188 -12.285156 22.21875 -11.273438 22.21875 -10.296875 C 22.21875 -9.015625 21.882812 -7.914062 21.21875 -7 C 20.550781 -6.082031 19.707031 -5.332031 18.6875 -4.75 C 17.664062 -4.175781 16.550781 -3.75 15.34375 -3.46875 C 14.144531 -3.195312 13.003906 -3.0625 11.921875 -3.0625 C 11.921875 -2.457031 11.988281 -1.859375 12.125 -1.265625 C 12.257812 -0.671875 12.328125 -0.0703125 12.328125 0.53125 C 12.328125 0.707031 12.289062 0.878906 12.21875 1.046875 C 12.144531 1.222656 12.007812 1.3125 11.8125 1.3125 C 11.6875 0.757812 11.570312 0.234375 11.46875 -0.265625 C 11.394531 -0.765625 11.332031 -1.265625 11.28125 -1.765625 C 11.28125 -1.640625 11.289062 -1.425781 11.3125 -1.125 C 11.34375 -0.800781 11.375 -0.460938 11.40625 -0.109375 C 11.445312 0.242188 11.484375 0.554688 11.515625 0.828125 C 11.554688 1.109375 11.578125 1.269531 11.578125 1.3125 L 11.28125 1.28125 L 10.9375 1.390625 L 11.171875 2.296875 C 11.171875 2.367188 11.160156 2.488281 11.140625 2.65625 C 11.128906 2.820312 11.101562 2.976562 11.0625 3.125 C 11.03125 3.28125 10.984375 3.414062 10.921875 3.53125 C 10.859375 3.644531 10.765625 3.703125 10.640625 3.703125 C 10.210938 3.703125 9.878906 3.59375 9.640625 3.375 C 9.398438 3.164062 9.222656 2.882812 9.109375 2.53125 C 8.992188 2.175781 8.914062 1.789062 8.875 1.375 C 8.84375 0.957031 8.828125 0.535156 8.828125 0.109375 L 8.828125 -1.25 C 8.828125 -1.570312 8.8125 -1.832031 8.78125 -2.03125 C 8.757812 -2.238281 8.6875 -2.34375 8.5625 -2.34375 C 8.5625 -1.582031 8.570312 -0.832031 8.59375 -0.09375 C 8.625 0.644531 8.675781 1.394531 8.75 2.15625 C 8.300781 1.519531 8.035156 0.816406 7.953125 0.046875 C 7.878906 -0.710938 7.832031 -1.457031 7.8125 -2.1875 C 7.601562 -2.132812 7.34375 -2.09375 7.03125 -2.0625 C 6.71875 -2.039062 6.382812 -2.03125 6.03125 -2.03125 C 5.65625 -2.03125 5.296875 -2.054688 4.953125 -2.109375 C 4.617188 -2.160156 4.390625 -2.285156 4.265625 -2.484375 C 4.316406 -2.585938 4.523438 -2.648438 4.890625 -2.671875 C 5.253906 -2.703125 5.648438 -2.726562 6.078125 -2.75 C 6.503906 -2.78125 6.890625 -2.804688 7.234375 -2.828125 C 7.585938 -2.847656 7.78125 -2.925781 7.8125 -3.0625 C 7.226562 -3.007812 6.660156 -2.960938 6.109375 -2.921875 C 5.554688 -2.878906 4.988281 -2.859375 4.40625 -2.859375 L 4.5625 -3.25 L 1.96875 -3.8125 L 2.640625 -4.453125 L 2.03125 -5.125 L 3.203125 -5.578125 C 3.378906 -5.523438 3.679688 -5.488281 4.109375 -5.46875 C 4.535156 -5.445312 5 -5.4375 5.5 -5.4375 C 6.007812 -5.4375 6.484375 -5.453125 6.921875 -5.484375 C 7.359375 -5.523438 7.628906 -5.570312 7.734375 -5.625 Z M 18.1875 -10.1875 C 18.1875 -10.5625 18.070312 -11.007812 17.84375 -11.53125 C 17.613281 -12.0625 17.320312 -12.578125 16.96875 -13.078125 C 16.625 -13.585938 16.234375 -14.019531 15.796875 -14.375 C 15.367188 -14.726562 14.957031 -14.90625 14.5625 -14.90625 C 14.28125 -14.90625 14.019531 -14.910156 13.78125 -14.921875 C 13.539062 -14.929688 13.285156 -14.945312 13.015625 -14.96875 L 12.9375 -14.640625 C 13.488281 -14.640625 14.03125 -14.5625 14.5625 -14.40625 C 14.257812 -14.40625 13.984375 -14.410156 13.734375 -14.421875 C 13.484375 -14.441406 13.21875 -14.460938 12.9375 -14.484375 C 12.6875 -13.273438 12.507812 -12.070312 12.40625 -10.875 C 12.3125 -9.6875 12.210938 -8.488281 12.109375 -7.28125 C 12.585938 -7.40625 13.0625 -7.515625 13.53125 -7.609375 C 14.007812 -7.710938 14.488281 -7.828125 14.96875 -7.953125 L 15.34375 -7.65625 C 15.644531 -7.757812 15.957031 -7.878906 16.28125 -8.015625 C 16.613281 -8.148438 16.925781 -8.3125 17.21875 -8.5 C 17.507812 -8.6875 17.742188 -8.921875 17.921875 -9.203125 C 18.097656 -9.484375 18.1875 -9.8125 18.1875 -10.1875 Z M 7.09375 -23.953125 C 7.019531 -23.753906 6.898438 -23.550781 6.734375 -23.34375 C 6.566406 -23.144531 6.484375 -22.96875 6.484375 -22.8125 C 6.484375 -22.5625 6.570312 -22.3125 6.75 -22.0625 C 6.925781 -21.8125 7.140625 -21.570312 7.390625 -21.34375 C 7.640625 -21.125 7.910156 -20.925781 8.203125 -20.75 C 8.492188 -20.570312 8.738281 -20.429688 8.9375 -20.328125 C 9.039062 -20.953125 9.15625 -21.632812 9.28125 -22.375 C 9.40625 -23.125 9.53125 -23.8125 9.65625 -24.4375 Z M 8.484375 -15.421875 C 8.335938 -13.910156 8.210938 -12.425781 8.109375 -10.96875 C 8.003906 -9.507812 7.890625 -8.03125 7.765625 -6.53125 L 8.078125 -6.5625 C 8.078125 -8.039062 8.148438 -9.503906 8.296875 -10.953125 C 8.453125 -12.398438 8.628906 -13.851562 8.828125 -15.3125 Z M 17.875 -10.375 C 17.875 -10.625 17.796875 -10.925781 17.640625 -11.28125 C 17.492188 -11.632812 17.296875 -11.992188 17.046875 -12.359375 C 16.796875 -12.722656 16.515625 -13.0625 16.203125 -13.375 C 15.890625 -13.6875 15.582031 -13.941406 15.28125 -14.140625 C 16.03125 -13.785156 16.660156 -13.28125 17.171875 -12.625 C 17.691406 -11.976562 17.953125 -11.175781 17.953125 -10.21875 C 17.953125 -9.738281 17.773438 -9.328125 17.421875 -8.984375 C 17.523438 -9.234375 17.625 -9.457031 17.71875 -9.65625 C 17.820312 -9.851562 17.875 -10.09375 17.875 -10.375 Z M 18.859375 -10.1875 C 18.859375 -10.664062 18.742188 -11.171875 18.515625 -11.703125 C 18.296875 -12.242188 18.007812 -12.753906 17.65625 -13.234375 C 17.300781 -13.710938 16.890625 -14.132812 16.421875 -14.5 C 15.960938 -14.863281 15.503906 -15.125 15.046875 -15.28125 C 15.523438 -15.101562 15.984375 -14.832031 16.421875 -14.46875 C 16.867188 -14.101562 17.257812 -13.679688 17.59375 -13.203125 C 17.9375 -12.722656 18.207031 -12.210938 18.40625 -11.671875 C 18.601562 -11.128906 18.703125 -10.609375 18.703125 -10.109375 C 18.703125 -9.679688 18.609375 -9.3125 18.421875 -9 C 18.234375 -8.6875 17.976562 -8.398438 17.65625 -8.140625 C 18.082031 -8.265625 18.390625 -8.535156 18.578125 -8.953125 C 18.765625 -9.367188 18.859375 -9.78125 18.859375 -10.1875 Z M 8.640625 -6.640625 C 8.765625 -7.898438 8.851562 -9.144531 8.90625 -10.375 C 8.957031 -11.582031 9.03125 -12.773438 9.125 -13.953125 C 8.945312 -12.773438 8.820312 -11.582031 8.75 -10.375 C 8.695312 -9.144531 8.632812 -7.898438 8.5625 -6.640625 Z M 5.921875 -16.828125 C 6.296875 -16.597656 6.769531 -16.363281 7.34375 -16.125 C 7.925781 -15.882812 8.429688 -15.691406 8.859375 -15.546875 L 8.90625 -15.84375 C 8.476562 -15.96875 7.972656 -16.132812 7.390625 -16.34375 C 6.816406 -16.5625 6.335938 -16.785156 5.953125 -17.015625 Z M 11.28125 -7.125 C 11.507812 -7.90625 11.625 -8.695312 11.625 -9.5 C 11.644531 -10.257812 11.707031 -11.015625 11.8125 -11.765625 C 11.65625 -11.015625 11.523438 -10.273438 11.421875 -9.546875 C 11.328125 -8.734375 11.28125 -7.925781 11.28125 -7.125 Z M 11.953125 -3.703125 C 12.078125 -3.671875 12.179688 -3.648438 12.265625 -3.640625 C 12.359375 -3.628906 12.441406 -3.625 12.515625 -3.625 C 12.847656 -3.625 13.140625 -3.664062 13.390625 -3.75 C 13.640625 -3.84375 13.941406 -3.9375 14.296875 -4.03125 Z M 20.4375 -7.390625 C 20.238281 -7.085938 19.953125 -6.738281 19.578125 -6.34375 C 19.203125 -5.957031 18.863281 -5.664062 18.5625 -5.46875 C 18.882812 -5.644531 19.179688 -5.851562 19.453125 -6.09375 C 19.734375 -6.332031 20.015625 -6.585938 20.296875 -6.859375 Z M 21.265625 -11.65625 C 21.347656 -11.15625 21.390625 -10.703125 21.390625 -10.296875 C 21.390625 -9.867188 21.34375 -9.445312 21.25 -9.03125 C 21.164062 -8.613281 21.023438 -8.179688 20.828125 -7.734375 C 21.046875 -8.085938 21.207031 -8.476562 21.3125 -8.90625 C 21.414062 -9.332031 21.46875 -9.757812 21.46875 -10.1875 C 21.46875 -10.613281 21.398438 -11.101562 21.265625 -11.65625 Z M 12.0625 -6.40625 C 12.539062 -6.488281 13.003906 -6.582031 13.453125 -6.6875 C 13.910156 -6.800781 14.367188 -6.921875 14.828125 -7.046875 L 12.0625 -6.484375 Z M 12.0625 -6.40625 "/></g></g></g></svg>