<svg xmlns="http://www.w3.org/2000/svg" xmlns:xlink="http://www.w3.org/1999/xlink" width="48" zoomAndPan="magnify" viewBox="0 0 36 36.000001" height="48" preserveAspectRatio="xMidYMid meet" version="1.2"><defs><clipPath id="7681269405"><path d="M 0.488281 0 L 35.511719 0 L 35.511719 35.027344 L 0.488281 35.027344 Z M 0.488281 0 "/></clipPath><clipPath id="7832f8bf14"><path d="M 0.488281 0 L 34.875 0 L 34.875 34.65625 L 0.488281 34.65625 Z M 0.488281 0 "/></clipPath><clipPath id="3d4c6ab01f"><path d="M 17.679688 0 C 8.183594 0 0.488281 7.738281 0.488281 17.289062 C 0.488281 26.835938 8.183594 34.578125 17.679688 34.578125 C 27.175781 34.578125 34.875 26.835938 34.875 17.289062 C 34.875 7.738281 27.175781 0 17.679688 0 Z M 17.679688 0 "/></clipPath><clipPath id="5f555e76fd"><path d="M 16 7.464844 L 19 7.464844 L 19 11 L 16 11 Z M 16 7.464844 "/></clipPath><clipPath id="ba179e80c8"><path d="M 25 17 L 28.277344 17 L 28.277344 19 L 25 19 Z M 25 17 "/></clipPath><clipPath id="b2719e64aa"><path d="M 16 25 L 19 25 L 19 28.628906 L 16 28.628906 Z M 16 25 "/></clipPath><clipPath id="5e287b5013"><path d="M 7.117188 17 L 11 17 L 11 19 L 7.117188 19 Z M 7.117188 17 "/></clipPath></defs><g id="9b092834c9"><g clip-rule="nonzero" clip-path="url(#7681269405)"><path style=" stroke:none;fill-rule:nonzero;fill:#ffffff;fill-opacity:1;" d="M 0.488281 0 L 35.511719 0 L 35.511719 35.027344 L 0.488281 35.027344 Z M 0.488281 0 "/></g><g clip-rule="nonzero" clip-path="url(#7832f8bf14)"><g clip-rule="nonzero" clip-path="url(#3d4c6ab01f)"><path style=" stroke:none;fill-rule:nonzero;fill:#ffffff;fill-opacity:1;" d="M 0.488281 0 L 34.875 0 L 34.875 34.523438 L 0.488281 34.523438 Z M 0.488281 0 "/></g></g><path style=" stroke:none;fill-rule:nonzero;fill:#231f20;fill-opacity:1;" d="M 17.695312 12 C 17.300781 12 16.90625 12.039062 16.519531 12.117188 C 16.128906 12.191406 15.75 12.308594 15.382812 12.460938 C 15.015625 12.613281 14.667969 12.796875 14.339844 13.019531 C 14.007812 13.238281 13.703125 13.488281 13.421875 13.769531 C 13.140625 14.050781 12.890625 14.355469 12.667969 14.6875 C 12.449219 15.015625 12.261719 15.367188 12.109375 15.730469 C 11.960938 16.097656 11.84375 16.476562 11.765625 16.867188 C 11.691406 17.253906 11.652344 17.648438 11.652344 18.046875 C 11.652344 18.441406 11.691406 18.835938 11.765625 19.226562 C 11.84375 19.613281 11.960938 19.992188 12.109375 20.359375 C 12.261719 20.726562 12.449219 21.074219 12.667969 21.40625 C 12.890625 21.734375 13.140625 22.039062 13.421875 22.320312 C 13.703125 22.601562 14.007812 22.851562 14.339844 23.074219 C 14.667969 23.292969 15.015625 23.480469 15.382812 23.632812 C 15.75 23.785156 16.128906 23.898438 16.519531 23.976562 C 16.90625 24.054688 17.300781 24.09375 17.695312 24.09375 C 18.09375 24.09375 18.488281 24.054688 18.875 23.976562 C 19.265625 23.898438 19.644531 23.785156 20.011719 23.632812 C 20.378906 23.480469 20.726562 23.292969 21.054688 23.074219 C 21.386719 22.851562 21.691406 22.601562 21.972656 22.320312 C 22.253906 22.039062 22.503906 21.734375 22.722656 21.40625 C 22.945312 21.074219 23.132812 20.726562 23.285156 20.359375 C 23.433594 19.992188 23.550781 19.613281 23.628906 19.226562 C 23.703125 18.835938 23.742188 18.441406 23.742188 18.046875 C 23.742188 17.648438 23.703125 17.257812 23.625 16.867188 C 23.546875 16.476562 23.433594 16.101562 23.28125 15.734375 C 23.128906 15.367188 22.941406 15.019531 22.722656 14.6875 C 22.5 14.359375 22.25 14.054688 21.96875 13.773438 C 21.691406 13.492188 21.382812 13.242188 21.054688 13.019531 C 20.726562 12.800781 20.375 12.613281 20.011719 12.460938 C 19.644531 12.308594 19.265625 12.195312 18.875 12.117188 C 18.488281 12.039062 18.09375 12 17.695312 12 Z M 17.695312 22.582031 C 17.398438 22.582031 17.105469 22.550781 16.8125 22.492188 C 16.519531 22.433594 16.238281 22.347656 15.960938 22.234375 C 15.6875 22.121094 15.425781 21.980469 15.179688 21.816406 C 14.929688 21.652344 14.703125 21.464844 14.492188 21.253906 C 14.28125 21.042969 14.09375 20.8125 13.925781 20.566406 C 13.761719 20.316406 13.621094 20.054688 13.507812 19.78125 C 13.394531 19.507812 13.308594 19.222656 13.25 18.929688 C 13.191406 18.636719 13.164062 18.34375 13.164062 18.046875 C 13.164062 17.75 13.191406 17.453125 13.25 17.160156 C 13.308594 16.871094 13.394531 16.585938 13.507812 16.3125 C 13.621094 16.035156 13.761719 15.773438 13.925781 15.527344 C 14.09375 15.277344 14.28125 15.050781 14.492188 14.839844 C 14.703125 14.628906 14.929688 14.441406 15.179688 14.277344 C 15.425781 14.109375 15.6875 13.96875 15.960938 13.855469 C 16.238281 13.742188 16.519531 13.65625 16.8125 13.597656 C 17.105469 13.539062 17.398438 13.511719 17.695312 13.511719 C 17.996094 13.511719 18.289062 13.539062 18.582031 13.597656 C 18.875 13.65625 19.15625 13.742188 19.433594 13.855469 C 19.707031 13.96875 19.96875 14.109375 20.214844 14.277344 C 20.464844 14.441406 20.691406 14.628906 20.902344 14.839844 C 21.113281 15.050781 21.300781 15.277344 21.46875 15.527344 C 21.632812 15.773438 21.773438 16.035156 21.886719 16.3125 C 22 16.585938 22.085938 16.871094 22.144531 17.160156 C 22.203125 17.453125 22.230469 17.75 22.230469 18.046875 C 22.230469 18.34375 22.203125 18.636719 22.144531 18.929688 C 22.085938 19.222656 22 19.503906 21.886719 19.78125 C 21.769531 20.054688 21.632812 20.316406 21.464844 20.5625 C 21.300781 20.8125 21.113281 21.039062 20.902344 21.25 C 20.691406 21.460938 20.464844 21.648438 20.214844 21.816406 C 19.96875 21.980469 19.707031 22.121094 19.433594 22.234375 C 19.15625 22.347656 18.875 22.433594 18.582031 22.492188 C 18.289062 22.550781 17.996094 22.582031 17.695312 22.582031 Z M 17.695312 22.582031 "/><g clip-rule="nonzero" clip-path="url(#5f555e76fd)"><path style=" stroke:none;fill-rule:nonzero;fill:#231f20;fill-opacity:1;" d="M 17.703125 10.488281 L 17.707031 10.488281 C 17.914062 10.488281 18.09375 10.410156 18.238281 10.261719 C 18.386719 10.113281 18.460938 9.9375 18.457031 9.726562 L 18.449219 8.214844 C 18.449219 8.007812 18.375 7.828125 18.226562 7.679688 C 18.078125 7.53125 17.898438 7.460938 17.6875 7.464844 C 17.480469 7.464844 17.300781 7.542969 17.15625 7.691406 C 17.007812 7.839844 16.933594 8.015625 16.9375 8.226562 L 16.945312 9.738281 C 16.949219 9.945312 17.023438 10.121094 17.167969 10.269531 C 17.316406 10.414062 17.496094 10.488281 17.703125 10.488281 Z M 17.703125 10.488281 "/></g><path style=" stroke:none;fill-rule:nonzero;fill:#231f20;fill-opacity:1;" d="M 23.578125 12.925781 C 23.789062 12.925781 23.96875 12.851562 24.117188 12.703125 L 25.179688 11.625 C 25.324219 11.476562 25.398438 11.300781 25.398438 11.089844 C 25.394531 10.882812 25.320312 10.703125 25.171875 10.558594 C 25.023438 10.410156 24.84375 10.339844 24.636719 10.339844 C 24.429688 10.339844 24.25 10.414062 24.105469 10.5625 L 23.042969 11.640625 C 22.804688 11.878906 22.753906 12.152344 22.882812 12.460938 C 23.011719 12.773438 23.242188 12.925781 23.578125 12.925781 Z M 23.578125 12.925781 "/><g clip-rule="nonzero" clip-path="url(#ba179e80c8)"><path style=" stroke:none;fill-rule:nonzero;fill:#231f20;fill-opacity:1;" d="M 27.523438 17.285156 L 27.519531 17.285156 L 26.007812 17.296875 C 25.796875 17.296875 25.621094 17.371094 25.472656 17.519531 C 25.324219 17.667969 25.253906 17.84375 25.253906 18.054688 C 25.253906 18.261719 25.328125 18.441406 25.476562 18.585938 C 25.625 18.734375 25.800781 18.808594 26.011719 18.804688 L 26.015625 18.804688 L 27.527344 18.796875 C 27.734375 18.796875 27.914062 18.722656 28.0625 18.574219 C 28.207031 18.425781 28.28125 18.246094 28.28125 18.039062 C 28.28125 17.832031 28.207031 17.652344 28.058594 17.503906 C 27.910156 17.359375 27.730469 17.285156 27.523438 17.285156 Z M 27.523438 17.285156 "/></g><path style=" stroke:none;fill-rule:nonzero;fill:#231f20;fill-opacity:1;" d="M 24.101562 23.390625 C 23.953125 23.242188 23.777344 23.171875 23.566406 23.171875 C 23.359375 23.171875 23.179688 23.25 23.035156 23.398438 C 22.886719 23.546875 22.816406 23.722656 22.816406 23.933594 C 22.816406 24.140625 22.894531 24.320312 23.042969 24.464844 L 24.117188 25.527344 C 24.265625 25.675781 24.445312 25.746094 24.652344 25.746094 C 24.863281 25.746094 25.039062 25.667969 25.1875 25.519531 C 25.332031 25.371094 25.40625 25.195312 25.402344 24.984375 C 25.402344 24.777344 25.328125 24.597656 25.179688 24.453125 Z M 24.101562 23.390625 "/><g clip-rule="nonzero" clip-path="url(#b2719e64aa)"><path style=" stroke:none;fill-rule:nonzero;fill:#231f20;fill-opacity:1;" d="M 17.6875 25.605469 C 17.480469 25.605469 17.300781 25.679688 17.15625 25.828125 C 17.007812 25.976562 16.933594 26.15625 16.9375 26.363281 L 16.945312 27.875 C 16.949219 28.082031 17.023438 28.261719 17.167969 28.40625 C 17.316406 28.554688 17.496094 28.628906 17.703125 28.628906 L 17.707031 28.628906 C 17.914062 28.625 18.09375 28.550781 18.238281 28.402344 C 18.386719 28.253906 18.460938 28.074219 18.457031 27.867188 L 18.449219 26.355469 C 18.453125 26.144531 18.378906 25.964844 18.230469 25.816406 C 18.078125 25.667969 17.898438 25.597656 17.6875 25.605469 Z M 17.6875 25.605469 "/></g><path style=" stroke:none;fill-rule:nonzero;fill:#231f20;fill-opacity:1;" d="M 11.277344 23.390625 L 10.214844 24.464844 C 10.070312 24.613281 9.996094 24.792969 9.996094 25 C 10 25.210938 10.074219 25.386719 10.222656 25.535156 C 10.371094 25.679688 10.550781 25.753906 10.757812 25.753906 C 10.964844 25.75 11.144531 25.675781 11.289062 25.527344 L 12.351562 24.453125 C 12.5 24.304688 12.570312 24.125 12.570312 23.917969 C 12.570312 23.707031 12.496094 23.53125 12.347656 23.382812 C 12.199219 23.238281 12.019531 23.164062 11.808594 23.164062 C 11.601562 23.167969 11.425781 23.242188 11.277344 23.390625 Z M 11.277344 23.390625 "/><g clip-rule="nonzero" clip-path="url(#5e287b5013)"><path style=" stroke:none;fill-rule:nonzero;fill:#231f20;fill-opacity:1;" d="M 9.382812 17.285156 L 9.378906 17.285156 L 7.867188 17.296875 C 7.660156 17.296875 7.480469 17.371094 7.332031 17.519531 C 7.1875 17.667969 7.113281 17.84375 7.113281 18.054688 C 7.113281 18.261719 7.1875 18.441406 7.335938 18.585938 C 7.484375 18.734375 7.664062 18.808594 7.871094 18.804688 L 7.875 18.804688 L 9.386719 18.796875 C 9.597656 18.796875 9.773438 18.722656 9.921875 18.574219 C 10.070312 18.425781 10.140625 18.246094 10.140625 18.039062 C 10.140625 17.832031 10.066406 17.652344 9.917969 17.503906 C 9.769531 17.359375 9.59375 17.285156 9.382812 17.285156 Z M 9.382812 17.285156 "/></g><path style=" stroke:none;fill-rule:nonzero;fill:#231f20;fill-opacity:1;" d="M 11.292969 12.703125 C 11.441406 12.847656 11.617188 12.921875 11.828125 12.917969 C 12.035156 12.917969 12.214844 12.84375 12.359375 12.695312 C 12.507812 12.546875 12.578125 12.367188 12.578125 12.160156 C 12.578125 11.949219 12.5 11.773438 12.351562 11.625 L 11.277344 10.5625 C 11.128906 10.417969 10.949219 10.34375 10.742188 10.347656 C 10.53125 10.347656 10.355469 10.421875 10.207031 10.570312 C 10.0625 10.71875 9.988281 10.898438 9.992188 11.105469 C 9.992188 11.316406 10.066406 11.492188 10.214844 11.640625 Z M 11.292969 12.703125 "/></g></svg>