<svg xmlns="http://www.w3.org/2000/svg" xmlns:xlink="http://www.w3.org/1999/xlink" width="51" zoomAndPan="magnify" viewBox="0 0 38.25 41.250001" height="55" preserveAspectRatio="xMidYMid meet" version="1.2"><defs><clipPath id="8d1d976825"><path d="M 0 0.0273438 L 37.515625 0.0273438 L 37.515625 40.484375 L 0 40.484375 Z M 0 0.0273438 "/></clipPath></defs><g id="e9ab8f988b"><g clip-rule="nonzero" clip-path="url(#8d1d976825)"><path style=" stroke:none;fill-rule:nonzero;fill:#e82c8d;fill-opacity:1;" d="M 36.585938 13.40625 L 9.625 13.40625 L 36 7.800781 C 36.429688 7.707031 36.707031 7.285156 36.613281 6.851562 L 35.773438 2.890625 C 35.578125 1.984375 35.046875 1.207031 34.269531 0.703125 C 33.492188 0.203125 32.570312 0.03125 31.664062 0.222656 L 3.0625 6.300781 C 1.195312 6.699219 0 8.542969 0.394531 10.410156 L 1.222656 14.292969 L 1.222656 36.984375 C 1.222656 38.894531 2.773438 40.449219 4.683594 40.449219 L 33.921875 40.449219 C 35.832031 40.449219 37.386719 38.894531 37.386719 36.984375 L 37.386719 14.207031 C 37.386719 13.765625 37.027344 13.40625 36.585938 13.40625 Z M 23.953125 8.726562 L 19.765625 9.617188 L 18.703125 4.609375 L 22.890625 3.722656 Z M 24.453125 3.386719 L 28.640625 2.5 L 29.703125 7.503906 L 25.519531 8.394531 Z M 18.203125 9.949219 L 14.015625 10.835938 L 12.953125 5.832031 L 17.140625 4.941406 Z M 12.453125 11.171875 L 8.265625 12.058594 L 7.203125 7.054688 L 11.386719 6.164062 Z M 31.996094 1.785156 C 32.125 1.757812 32.257812 1.742188 32.386719 1.742188 C 32.742188 1.742188 33.09375 1.847656 33.398438 2.046875 C 33.816406 2.316406 34.105469 2.734375 34.207031 3.222656 L 34.882812 6.402344 L 31.269531 7.171875 L 30.207031 2.164062 Z M 3.398438 7.863281 L 5.636719 7.386719 L 6.703125 12.394531 L 2.636719 13.257812 L 1.960938 10.078125 C 1.746094 9.070312 2.390625 8.078125 3.398438 7.863281 Z M 35.789062 36.984375 C 35.789062 38.011719 34.949219 38.851562 33.921875 38.851562 L 4.683594 38.851562 C 3.65625 38.851562 2.820312 38.011719 2.820312 36.984375 L 2.820312 15.003906 L 35.789062 15.003906 Z M 35.789062 36.984375 "/></g><path style=" stroke:none;fill-rule:nonzero;fill:#e82c8d;fill-opacity:1;" d="M 14.816406 33.527344 C 15.21875 33.761719 15.664062 33.882812 16.105469 33.882812 C 16.535156 33.882812 16.964844 33.769531 17.355469 33.550781 L 25.191406 29.152344 C 26.007812 28.695312 26.492188 27.863281 26.492188 26.925781 C 26.492188 25.992188 26.007812 25.160156 25.191406 24.699219 L 17.355469 20.304688 C 16.558594 19.855469 15.609375 19.863281 14.816406 20.328125 C 14.027344 20.789062 13.554688 21.613281 13.554688 22.53125 L 13.554688 31.324219 C 13.554688 32.242188 14.027344 33.066406 14.816406 33.527344 Z M 15.152344 22.53125 C 15.152344 22.035156 15.484375 21.789062 15.625 21.707031 C 15.714844 21.65625 15.890625 21.574219 16.113281 21.574219 C 16.25 21.574219 16.40625 21.605469 16.574219 21.699219 L 24.40625 26.097656 C 24.847656 26.34375 24.894531 26.757812 24.894531 26.925781 C 24.894531 27.09375 24.847656 27.511719 24.40625 27.757812 L 16.574219 32.15625 C 16.144531 32.398438 15.769531 32.230469 15.625 32.148438 C 15.484375 32.066406 15.152344 31.816406 15.152344 31.324219 Z M 15.152344 22.53125 "/></g></svg>