<svg xmlns="http://www.w3.org/2000/svg" xmlns:xlink="http://www.w3.org/1999/xlink" width="54" zoomAndPan="magnify" viewBox="0 0 40.5 42.749999" height="57" preserveAspectRatio="xMidYMid meet" version="1.2"><defs><clipPath id="65edaa2a7b"><path d="M 0 0.136719 L 39.265625 0.136719 L 39.265625 42.367188 L 0 42.367188 Z M 0 0.136719 "/></clipPath></defs><g id="594e142ab7"><g clip-rule="nonzero" clip-path="url(#65edaa2a7b)"><path style=" stroke:none;fill-rule:nonzero;fill:#e82c8d;fill-opacity:1;" d="M 7.742188 1.542969 L 31.640625 1.542969 C 35.128906 1.542969 37.964844 4.378906 37.964844 7.867188 C 37.964844 11.359375 35.128906 14.195312 31.640625 14.195312 C 29.3125 14.195312 27.421875 12.300781 27.421875 9.976562 C 27.421875 7.652344 29.3125 5.761719 31.640625 5.761719 C 32.804688 5.761719 33.746094 6.703125 33.746094 7.867188 C 33.746094 9.03125 32.804688 9.976562 31.640625 9.976562 C 31.25 9.976562 30.9375 10.292969 30.9375 10.679688 C 30.9375 11.066406 31.25 11.382812 31.640625 11.382812 C 33.578125 11.382812 35.152344 9.808594 35.152344 7.867188 C 35.152344 5.929688 33.578125 4.355469 31.640625 4.355469 C 28.773438 4.355469 26.414062 6.503906 26.066406 9.273438 L 13.316406 9.273438 C 12.964844 6.503906 10.605469 4.355469 7.742188 4.355469 C 5.804688 4.355469 4.226562 5.929688 4.226562 7.867188 C 4.226562 9.808594 5.804688 11.382812 7.742188 11.382812 C 8.128906 11.382812 8.445312 11.066406 8.445312 10.679688 C 8.445312 10.292969 8.128906 9.976562 7.742188 9.976562 C 6.578125 9.976562 5.632812 9.03125 5.632812 7.867188 C 5.632812 6.703125 6.578125 5.761719 7.742188 5.761719 C 10.066406 5.761719 11.960938 7.652344 11.960938 9.976562 C 11.960938 12.300781 10.066406 14.195312 7.742188 14.195312 C 4.253906 14.195312 1.417969 11.359375 1.417969 7.867188 C 1.417969 4.378906 4.253906 1.542969 7.742188 1.542969 Z M 31.640625 34.578125 L 24.609375 34.578125 L 24.609375 10.679688 L 26.058594 10.679688 C 26.40625 13.449219 28.773438 15.601562 31.640625 15.601562 Z M 33.746094 37.386719 L 33.75 40.902344 L 5.632812 40.902344 L 5.632812 37.386719 C 5.632812 36.613281 6.265625 35.980469 7.039062 35.980469 L 32.339844 35.980469 C 33.117188 35.980469 33.746094 36.613281 33.746094 37.386719 Z M 16.175781 34.578125 L 16.175781 10.679688 L 23.203125 10.679688 L 23.203125 34.578125 Z M 13.320312 10.679688 L 14.769531 10.679688 L 14.769531 34.578125 L 7.742188 34.578125 L 7.742188 15.601562 C 10.605469 15.601562 12.976562 13.449219 13.320312 10.679688 Z M 6.335938 15.464844 L 6.335938 34.675781 C 5.128906 34.992188 4.226562 36.082031 4.226562 37.386719 L 4.226562 40.902344 C 4.226562 41.675781 4.859375 42.308594 5.632812 42.308594 L 33.746094 42.308594 C 34.523438 42.308594 35.152344 41.675781 35.152344 40.902344 L 35.152344 37.386719 C 35.152344 36.082031 34.253906 34.992188 33.042969 34.675781 L 33.042969 15.464844 C 36.636719 14.800781 39.371094 11.652344 39.371094 7.867188 C 39.371094 3.605469 35.902344 0.136719 31.640625 0.136719 L 7.742188 0.136719 C 3.476562 0.136719 0.0117188 3.605469 0.0117188 7.867188 C 0.0117188 11.652344 2.742188 14.800781 6.335938 15.464844 "/></g></g></svg>