<svg xmlns="http://www.w3.org/2000/svg" xmlns:xlink="http://www.w3.org/1999/xlink" width="69" zoomAndPan="magnify" viewBox="0 0 51.75 48" height="64" preserveAspectRatio="xMidYMid meet" version="1.2"><defs><clipPath id="921be5f5d9"><path d="M 21 29 L 25 29 L 25 33 L 21 33 Z M 21 29 "/></clipPath><clipPath id="2e41f611c5"><path d="M 0.40625 29.519531 L 37 -0.0078125 L 50.839844 17.148438 L 14.246094 46.671875 Z M 0.40625 29.519531 "/></clipPath><clipPath id="3f4da1fe43"><path d="M 0.40625 29.519531 L 37 -0.0078125 L 50.839844 17.148438 L 14.246094 46.671875 Z M 0.40625 29.519531 "/></clipPath><clipPath id="eae9f98545"><path d="M 23 26 L 28 26 L 28 31 L 23 31 Z M 23 26 "/></clipPath><clipPath id="f4689316de"><path d="M 0.40625 29.519531 L 37 -0.0078125 L 50.839844 17.148438 L 14.246094 46.671875 Z M 0.40625 29.519531 "/></clipPath><clipPath id="879fb2bb2e"><path d="M 0.40625 29.519531 L 37 -0.0078125 L 50.839844 17.148438 L 14.246094 46.671875 Z M 0.40625 29.519531 "/></clipPath><clipPath id="bc0bea0458"><path d="M 26 25 L 30 25 L 30 29 L 26 29 Z M 26 25 "/></clipPath><clipPath id="3c3a42ce11"><path d="M 0.40625 29.519531 L 37 -0.0078125 L 50.839844 17.148438 L 14.246094 46.671875 Z M 0.40625 29.519531 "/></clipPath><clipPath id="c741e799da"><path d="M 0.40625 29.519531 L 37 -0.0078125 L 50.839844 17.148438 L 14.246094 46.671875 Z M 0.40625 29.519531 "/></clipPath><clipPath id="f1318b1ab2"><path d="M 28 23 L 32 23 L 32 27 L 28 27 Z M 28 23 "/></clipPath><clipPath id="21611018c1"><path d="M 0.40625 29.519531 L 37 -0.0078125 L 50.839844 17.148438 L 14.246094 46.671875 Z M 0.40625 29.519531 "/></clipPath><clipPath id="189cd3a296"><path d="M 0.40625 29.519531 L 37 -0.0078125 L 50.839844 17.148438 L 14.246094 46.671875 Z M 0.40625 29.519531 "/></clipPath><clipPath id="ae847bc418"><path d="M 17 31 L 21 31 L 21 36 L 17 36 Z M 17 31 "/></clipPath><clipPath id="875bf222aa"><path d="M 0.40625 29.519531 L 37 -0.0078125 L 50.839844 17.148438 L 14.246094 46.671875 Z M 0.40625 29.519531 "/></clipPath><clipPath id="f38692c24f"><path d="M 0.40625 29.519531 L 37 -0.0078125 L 50.839844 17.148438 L 14.246094 46.671875 Z M 0.40625 29.519531 "/></clipPath><clipPath id="8114bfcd75"><path d="M 22 16 L 30 16 L 30 24 L 22 24 Z M 22 16 "/></clipPath><clipPath id="0edf2a9c4c"><path d="M 0.40625 29.519531 L 37 -0.0078125 L 50.839844 17.148438 L 14.246094 46.671875 Z M 0.40625 29.519531 "/></clipPath><clipPath id="ecd5449714"><path d="M 0.40625 29.519531 L 37 -0.0078125 L 50.839844 17.148438 L 14.246094 46.671875 Z M 0.40625 29.519531 "/></clipPath><clipPath id="d21d4c9a00"><path d="M 10 24 L 19 24 L 19 34 L 10 34 Z M 10 24 "/></clipPath><clipPath id="c2b5b48c69"><path d="M 0.40625 29.519531 L 37 -0.0078125 L 50.839844 17.148438 L 14.246094 46.671875 Z M 0.40625 29.519531 "/></clipPath><clipPath id="42c9492011"><path d="M 0.40625 29.519531 L 37 -0.0078125 L 50.839844 17.148438 L 14.246094 46.671875 Z M 0.40625 29.519531 "/></clipPath><clipPath id="9c8793a373"><path d="M 19 30 L 23 30 L 23 34 L 19 34 Z M 19 30 "/></clipPath><clipPath id="11b0d9c211"><path d="M 0.40625 29.519531 L 37 -0.0078125 L 50.839844 17.148438 L 14.246094 46.671875 Z M 0.40625 29.519531 "/></clipPath><clipPath id="70e06a5300"><path d="M 0.40625 29.519531 L 37 -0.0078125 L 50.839844 17.148438 L 14.246094 46.671875 Z M 0.40625 29.519531 "/></clipPath><clipPath id="3b873320de"><path d="M 16 21 L 24 21 L 24 29 L 16 29 Z M 16 21 "/></clipPath><clipPath id="3a509ee55d"><path d="M 0.40625 29.519531 L 37 -0.0078125 L 50.839844 17.148438 L 14.246094 46.671875 Z M 0.40625 29.519531 "/></clipPath><clipPath id="d433e4061e"><path d="M 0.40625 29.519531 L 37 -0.0078125 L 50.839844 17.148438 L 14.246094 46.671875 Z M 0.40625 29.519531 "/></clipPath><clipPath id="10534a54b5"><path d="M 31 9 L 38 9 L 38 15 L 31 15 Z M 31 9 "/></clipPath><clipPath id="96e8f14120"><path d="M 0.40625 29.519531 L 37 -0.0078125 L 50.839844 17.148438 L 14.246094 46.671875 Z M 0.40625 29.519531 "/></clipPath><clipPath id="6ea900f3c4"><path d="M 0.40625 29.519531 L 37 -0.0078125 L 50.839844 17.148438 L 14.246094 46.671875 Z M 0.40625 29.519531 "/></clipPath><clipPath id="4e40c52ebc"><path d="M 33 11 L 40 11 L 40 17 L 33 17 Z M 33 11 "/></clipPath><clipPath id="e0e417aa22"><path d="M 0.40625 29.519531 L 37 -0.0078125 L 50.839844 17.148438 L 14.246094 46.671875 Z M 0.40625 29.519531 "/></clipPath><clipPath id="a806a2a78e"><path d="M 0.40625 29.519531 L 37 -0.0078125 L 50.839844 17.148438 L 14.246094 46.671875 Z M 0.40625 29.519531 "/></clipPath><clipPath id="7a1851f9a8"><path d="M 32 10 L 39 10 L 39 16 L 32 16 Z M 32 10 "/></clipPath><clipPath id="e7d9d2977e"><path d="M 0.40625 29.519531 L 37 -0.0078125 L 50.839844 17.148438 L 14.246094 46.671875 Z M 0.40625 29.519531 "/></clipPath><clipPath id="5e2587231f"><path d="M 0.40625 29.519531 L 37 -0.0078125 L 50.839844 17.148438 L 14.246094 46.671875 Z M 0.40625 29.519531 "/></clipPath><clipPath id="a06fb2bd4e"><path d="M 32 9 L 39 9 L 39 15 L 32 15 Z M 32 9 "/></clipPath><clipPath id="8778676279"><path d="M 0.40625 29.519531 L 37 -0.0078125 L 50.839844 17.148438 L 14.246094 46.671875 Z M 0.40625 29.519531 "/></clipPath><clipPath id="15c05b7dc0"><path d="M 0.40625 29.519531 L 37 -0.0078125 L 50.839844 17.148438 L 14.246094 46.671875 Z M 0.40625 29.519531 "/></clipPath><clipPath id="0974e29bd5"><path d="M 1 1 L 50 1 L 50 46 L 1 46 Z M 1 1 "/></clipPath><clipPath id="23971dcfb2"><path d="M 0.40625 29.519531 L 37 -0.0078125 L 50.839844 17.148438 L 14.246094 46.671875 Z M 0.40625 29.519531 "/></clipPath><clipPath id="1e1cd38de8"><path d="M 0.40625 29.519531 L 37 -0.0078125 L 50.839844 17.148438 L 14.246094 46.671875 Z M 0.40625 29.519531 "/></clipPath><clipPath id="e4c49347cf"><path d="M 27 12 L 38 12 L 38 24 L 27 24 Z M 27 12 "/></clipPath><clipPath id="1924d596af"><path d="M 0.40625 29.519531 L 37 -0.0078125 L 50.839844 17.148438 L 14.246094 46.671875 Z M 0.40625 29.519531 "/></clipPath><clipPath id="05b3e0012b"><path d="M 0.40625 29.519531 L 37 -0.0078125 L 50.839844 17.148438 L 14.246094 46.671875 Z M 0.40625 29.519531 "/></clipPath><clipPath id="6482f13ffa"><path d="M 30 7 L 37 7 L 37 14 L 30 14 Z M 30 7 "/></clipPath><clipPath id="fa1bd03d39"><path d="M 0.40625 29.519531 L 37 -0.0078125 L 50.839844 17.148438 L 14.246094 46.671875 Z M 0.40625 29.519531 "/></clipPath><clipPath id="a66d3930dd"><path d="M 0.40625 29.519531 L 37 -0.0078125 L 50.839844 17.148438 L 14.246094 46.671875 Z M 0.40625 29.519531 "/></clipPath><clipPath id="3edfe76eee"><path d="M 34 12 L 40 12 L 40 18 L 34 18 Z M 34 12 "/></clipPath><clipPath id="1af09c6ae8"><path d="M 0.40625 29.519531 L 37 -0.0078125 L 50.839844 17.148438 L 14.246094 46.671875 Z M 0.40625 29.519531 "/></clipPath><clipPath id="a34bbd6e25"><path d="M 0.40625 29.519531 L 37 -0.0078125 L 50.839844 17.148438 L 14.246094 46.671875 Z M 0.40625 29.519531 "/></clipPath><clipPath id="d9753d0605"><path d="M 36 15 L 43 15 L 43 21 L 36 21 Z M 36 15 "/></clipPath><clipPath id="4edab97175"><path d="M 0.40625 29.519531 L 37 -0.0078125 L 50.839844 17.148438 L 14.246094 46.671875 Z M 0.40625 29.519531 "/></clipPath><clipPath id="7144e627e6"><path d="M 0.40625 29.519531 L 37 -0.0078125 L 50.839844 17.148438 L 14.246094 46.671875 Z M 0.40625 29.519531 "/></clipPath><clipPath id="f111a862b1"><path d="M 37 15 L 43 15 L 43 21 L 37 21 Z M 37 15 "/></clipPath><clipPath id="78c8385e22"><path d="M 0.40625 29.519531 L 37 -0.0078125 L 50.839844 17.148438 L 14.246094 46.671875 Z M 0.40625 29.519531 "/></clipPath><clipPath id="151ce50d17"><path d="M 0.40625 29.519531 L 37 -0.0078125 L 50.839844 17.148438 L 14.246094 46.671875 Z M 0.40625 29.519531 "/></clipPath><clipPath id="38e7874ee6"><path d="M 34 12 L 41 12 L 41 18 L 34 18 Z M 34 12 "/></clipPath><clipPath id="c78edec0aa"><path d="M 0.40625 29.519531 L 37 -0.0078125 L 50.839844 17.148438 L 14.246094 46.671875 Z M 0.40625 29.519531 "/></clipPath><clipPath id="a1d2270567"><path d="M 0.40625 29.519531 L 37 -0.0078125 L 50.839844 17.148438 L 14.246094 46.671875 Z M 0.40625 29.519531 "/></clipPath><clipPath id="be65d68cdf"><path d="M 35 13 L 42 13 L 42 20 L 35 20 Z M 35 13 "/></clipPath><clipPath id="ea37d56179"><path d="M 0.40625 29.519531 L 37 -0.0078125 L 50.839844 17.148438 L 14.246094 46.671875 Z M 0.40625 29.519531 "/></clipPath><clipPath id="7c9b18f22f"><path d="M 0.40625 29.519531 L 37 -0.0078125 L 50.839844 17.148438 L 14.246094 46.671875 Z M 0.40625 29.519531 "/></clipPath></defs><g id="c807c9a050"><g clip-rule="nonzero" clip-path="url(#921be5f5d9)"><g clip-rule="nonzero" clip-path="url(#2e41f611c5)"><g clip-rule="nonzero" clip-path="url(#3f4da1fe43)"><path style=" stroke:none;fill-rule:nonzero;fill:#e82c8d;fill-opacity:1;" d="M 23.675781 30.972656 C 23.648438 31.101562 23.566406 31.191406 23.457031 31.28125 C 23.332031 31.382812 23.210938 31.425781 23.039062 31.40625 C 22.886719 31.375 22.75 31.304688 22.632812 31.160156 C 22.519531 31.019531 22.476562 30.867188 22.476562 30.710938 C 22.507812 30.554688 22.5625 30.433594 22.703125 30.316406 C 22.800781 30.242188 22.917969 30.199219 23.019531 30.195312 C 23.136719 30.179688 23.261719 30.207031 23.359375 30.261719 L 24.128906 29.640625 C 23.929688 29.460938 23.710938 29.347656 23.472656 29.28125 C 23.234375 29.210938 23.003906 29.210938 22.769531 29.273438 C 22.53125 29.332031 22.289062 29.449219 22.085938 29.613281 C 21.851562 29.804688 21.667969 30.027344 21.585938 30.277344 C 21.472656 30.527344 21.449219 30.78125 21.492188 31.0625 C 21.539062 31.3125 21.65625 31.554688 21.847656 31.792969 C 22.039062 32.03125 22.253906 32.199219 22.5 32.3125 C 22.753906 32.398438 23.007812 32.425781 23.285156 32.386719 C 23.535156 32.34375 23.792969 32.210938 24.027344 32.023438 C 24.25 31.84375 24.425781 31.648438 24.523438 31.414062 C 24.632812 31.195312 24.671875 30.957031 24.664062 30.726562 C 24.664062 30.464844 24.585938 30.238281 24.449219 30.007812 L 23.664062 30.640625 C 23.710938 30.761719 23.699219 30.875 23.675781 30.972656 Z M 23.675781 30.972656 "/></g></g></g><g clip-rule="nonzero" clip-path="url(#eae9f98545)"><g clip-rule="nonzero" clip-path="url(#f4689316de)"><g clip-rule="nonzero" clip-path="url(#879fb2bb2e)"><path style=" stroke:none;fill-rule:nonzero;fill:#e82c8d;fill-opacity:1;" d="M 26.257812 27.820312 L 25.859375 26.648438 L 25.011719 27.332031 L 25.28125 28.054688 C 25.316406 28.160156 25.335938 28.25 25.3125 28.316406 C 25.296875 28.359375 25.230469 28.4375 25.136719 28.515625 L 25.074219 28.566406 L 24.445312 27.789062 L 23.644531 28.433594 L 25.511719 30.746094 L 26.3125 30.101562 L 25.648438 29.277344 L 25.851562 29.113281 L 26.894531 29.632812 L 27.804688 28.898438 L 26.34375 28.246094 C 26.34375 28.117188 26.300781 27.96875 26.257812 27.820312 Z M 26.257812 27.820312 "/></g></g></g><g clip-rule="nonzero" clip-path="url(#bc0bea0458)"><g clip-rule="nonzero" clip-path="url(#3c3a42ce11)"><g clip-rule="nonzero" clip-path="url(#c741e799da)"><path style=" stroke:none;fill-rule:nonzero;fill:#e82c8d;fill-opacity:1;" d="M 28.136719 27.191406 L 28.933594 26.546875 L 28.460938 25.960938 L 27.664062 26.605469 L 27.457031 26.351562 L 28.335938 25.644531 L 27.851562 25.042969 L 26.203125 26.371094 L 28.070312 28.683594 L 29.75 27.328125 L 29.261719 26.726562 L 28.351562 27.460938 Z M 28.136719 27.191406 "/></g></g></g><g clip-rule="nonzero" clip-path="url(#f1318b1ab2)"><g clip-rule="nonzero" clip-path="url(#21611018c1)"><g clip-rule="nonzero" clip-path="url(#189cd3a296)"><path style=" stroke:none;fill-rule:nonzero;fill:#e82c8d;fill-opacity:1;" d="M 28.691406 25.566406 L 29.347656 25.035156 L 30.625 26.621094 L 31.425781 25.976562 L 30.148438 24.390625 L 30.808594 23.859375 L 30.21875 23.128906 L 28.101562 24.839844 Z M 28.691406 25.566406 "/></g></g></g><g clip-rule="nonzero" clip-path="url(#ae847bc418)"><g clip-rule="nonzero" clip-path="url(#875bf222aa)"><g clip-rule="nonzero" clip-path="url(#f38692c24f)"><path style=" stroke:none;fill-rule:nonzero;fill:#e82c8d;fill-opacity:1;" d="M 17.988281 34.199219 L 18.664062 33.65625 L 19.941406 35.242188 L 20.726562 34.609375 L 19.449219 33.023438 L 20.109375 32.492188 L 19.519531 31.761719 L 17.402344 33.472656 Z M 17.988281 34.199219 "/></g></g></g><g clip-rule="nonzero" clip-path="url(#8114bfcd75)"><g clip-rule="nonzero" clip-path="url(#0edf2a9c4c)"><g clip-rule="nonzero" clip-path="url(#ecd5449714)"><path style=" stroke:none;fill-rule:nonzero;fill:#e82c8d;fill-opacity:1;" d="M 25.066406 16.484375 C 24.464844 16.578125 23.890625 16.859375 23.355469 17.289062 C 22.824219 17.71875 22.441406 18.210938 22.226562 18.777344 C 21.992188 19.355469 21.949219 19.941406 22.058594 20.558594 C 22.167969 21.175781 22.441406 21.742188 22.875 22.28125 C 23.3125 22.816406 23.804688 23.207031 24.386719 23.441406 C 24.964844 23.679688 25.546875 23.761719 26.164062 23.65625 C 26.761719 23.566406 27.324219 23.296875 27.855469 22.867188 C 28.390625 22.4375 28.785156 21.933594 29.003906 21.367188 C 29.21875 20.796875 29.28125 20.199219 29.171875 19.582031 C 29.042969 18.976562 28.785156 18.402344 28.351562 17.863281 C 27.917969 17.324219 27.40625 16.949219 26.84375 16.699219 C 26.261719 16.460938 25.664062 16.394531 25.066406 16.484375 Z M 26.984375 20.273438 C 26.945312 20.644531 26.800781 20.945312 26.5 21.1875 C 26.203125 21.425781 25.878906 21.503906 25.523438 21.453125 C 25.167969 21.398438 24.871094 21.21875 24.601562 20.886719 C 24.332031 20.554688 24.222656 20.226562 24.246094 19.867188 C 24.265625 19.507812 24.414062 19.207031 24.710938 18.96875 C 25.007812 18.726562 25.335938 18.648438 25.703125 18.691406 C 26.058594 18.742188 26.355469 18.921875 26.625 19.253906 C 26.894531 19.585938 27.003906 19.917969 26.984375 20.273438 Z M 26.984375 20.273438 "/></g></g></g><g clip-rule="nonzero" clip-path="url(#d21d4c9a00)"><g clip-rule="nonzero" clip-path="url(#c2b5b48c69)"><g clip-rule="nonzero" clip-path="url(#42c9492011)"><path style=" stroke:none;fill-rule:nonzero;fill:#e82c8d;fill-opacity:1;" d="M 17.59375 28.320312 L 16.402344 29.28125 L 15.726562 29.855469 L 15.710938 29.835938 L 15.578125 25.917969 L 14.519531 24.601562 L 10.582031 27.777344 L 11.859375 29.363281 L 13.003906 28.4375 L 13.617188 27.945312 L 13.644531 27.949219 L 13.761719 31.882812 L 14.824219 33.199219 L 18.886719 29.917969 Z M 17.59375 28.320312 "/></g></g></g><g clip-rule="nonzero" clip-path="url(#9c8793a373)"><g clip-rule="nonzero" clip-path="url(#11b0d9c211)"><g clip-rule="nonzero" clip-path="url(#70e06a5300)"><path style=" stroke:none;fill-rule:nonzero;fill:#e82c8d;fill-opacity:1;" d="M 19.816406 31.523438 L 20.617188 30.878906 L 22.484375 33.191406 L 21.683594 33.835938 Z M 19.816406 31.523438 "/></g></g></g><g clip-rule="nonzero" clip-path="url(#3b873320de)"><g clip-rule="nonzero" clip-path="url(#3a509ee55d)"><g clip-rule="nonzero" clip-path="url(#d433e4061e)"><path style=" stroke:none;fill-rule:nonzero;fill:#e82c8d;fill-opacity:1;" d="M 20.3125 28.378906 C 20.925781 28.273438 21.488281 28.003906 22.019531 27.574219 C 22.554688 27.144531 22.933594 26.652344 23.152344 26.085938 C 23.382812 25.507812 23.429688 24.921875 23.316406 24.304688 C 23.207031 23.6875 22.933594 23.121094 22.5 22.582031 C 22.066406 22.042969 21.570312 21.65625 20.992188 21.417969 C 20.410156 21.183594 19.828125 21.101562 19.214844 21.207031 C 18.613281 21.296875 18.054688 21.566406 17.519531 21.996094 C 16.988281 22.425781 16.605469 22.917969 16.375 23.496094 C 16.15625 24.0625 16.097656 24.664062 16.222656 25.269531 C 16.332031 25.886719 16.589844 26.460938 17.023438 27 C 17.460938 27.539062 17.96875 27.914062 18.546875 28.152344 C 19.113281 28.402344 19.710938 28.46875 20.3125 28.378906 Z M 18.394531 24.589844 C 18.414062 24.230469 18.578125 23.917969 18.875 23.675781 C 19.15625 23.449219 19.496094 23.355469 19.851562 23.410156 C 20.207031 23.464844 20.503906 23.644531 20.773438 23.976562 C 21.042969 24.308594 21.152344 24.636719 21.128906 24.996094 C 21.109375 25.355469 20.945312 25.667969 20.664062 25.894531 C 20.367188 26.136719 20.027344 26.226562 19.671875 26.171875 C 19.316406 26.117188 19.019531 25.941406 18.75 25.609375 C 18.480469 25.277344 18.371094 24.945312 18.394531 24.589844 Z M 18.394531 24.589844 "/></g></g></g><g clip-rule="nonzero" clip-path="url(#10534a54b5)"><g clip-rule="nonzero" clip-path="url(#96e8f14120)"><g clip-rule="nonzero" clip-path="url(#6ea900f3c4)"><path style=" stroke:none;fill-rule:nonzero;fill:#e82c8d;fill-opacity:1;" d="M 31.597656 13.441406 L 37.007812 9.074219 L 37.519531 9.707031 L 32.105469 14.074219 Z M 31.597656 13.441406 "/></g></g></g><g clip-rule="nonzero" clip-path="url(#4e40c52ebc)"><g clip-rule="nonzero" clip-path="url(#e0e417aa22)"><g clip-rule="nonzero" clip-path="url(#a806a2a78e)"><path style=" stroke:none;fill-rule:nonzero;fill:#e82c8d;fill-opacity:1;" d="M 33.488281 15.785156 L 38.898438 11.417969 L 39.207031 11.796875 L 33.792969 16.164062 Z M 33.488281 15.785156 "/></g></g></g><g clip-rule="nonzero" clip-path="url(#7a1851f9a8)"><g clip-rule="nonzero" clip-path="url(#e7d9d2977e)"><g clip-rule="nonzero" clip-path="url(#5e2587231f)"><path style=" stroke:none;fill-rule:nonzero;fill:#e82c8d;fill-opacity:1;" d="M 32.773438 14.898438 L 38.183594 10.53125 L 38.683594 11.148438 L 33.269531 15.515625 Z M 32.773438 14.898438 "/></g></g></g><g clip-rule="nonzero" clip-path="url(#a06fb2bd4e)"><g clip-rule="nonzero" clip-path="url(#8778676279)"><g clip-rule="nonzero" clip-path="url(#15c05b7dc0)"><path style=" stroke:none;fill-rule:nonzero;fill:#e82c8d;fill-opacity:1;" d="M 32.3125 14.328125 L 37.722656 9.960938 L 38.03125 10.339844 L 32.617188 14.707031 Z M 32.3125 14.328125 "/></g></g></g><g clip-rule="nonzero" clip-path="url(#0974e29bd5)"><g clip-rule="nonzero" clip-path="url(#23971dcfb2)"><g clip-rule="nonzero" clip-path="url(#1e1cd38de8)"><path style=" stroke:none;fill-rule:nonzero;fill:#e82c8d;fill-opacity:1;" d="M 35.425781 1.269531 L 34.03125 2.398438 C 34.503906 2.984375 34.417969 3.839844 33.835938 4.308594 C 33.257812 4.773438 32.402344 4.679688 31.929688 4.09375 L 30.46875 5.269531 C 30.941406 5.855469 30.855469 6.710938 30.273438 7.179688 C 29.695312 7.648438 28.839844 7.554688 28.367188 6.964844 L 26.894531 8.15625 C 27.367188 8.742188 27.277344 9.597656 26.699219 10.066406 C 26.117188 10.535156 25.261719 10.4375 24.789062 9.851562 L 23.332031 11.03125 C 23.804688 11.617188 23.71875 12.472656 23.136719 12.9375 C 22.554688 13.40625 21.703125 13.3125 21.230469 12.726562 L 19.753906 13.914062 C 20.226562 14.5 20.140625 15.355469 19.558594 15.824219 C 18.980469 16.292969 18.125 16.199219 17.652344 15.613281 L 16.191406 16.789062 C 16.667969 17.375 16.578125 18.230469 16 18.699219 C 15.417969 19.167969 14.5625 19.070312 14.089844 18.484375 L 12.617188 19.675781 C 13.089844 20.261719 13.003906 21.117188 12.421875 21.585938 C 11.839844 22.050781 10.988281 21.957031 10.515625 21.371094 L 9.054688 22.546875 C 9.527344 23.132812 9.441406 23.988281 8.859375 24.457031 C 8.28125 24.925781 7.425781 24.832031 6.953125 24.242188 L 5.476562 25.433594 C 5.949219 26.019531 5.863281 26.875 5.28125 27.34375 C 4.703125 27.8125 3.847656 27.714844 3.375 27.128906 L 1.980469 28.257812 C 2.667969 29.113281 2.539062 30.394531 1.675781 31.089844 L 12.761719 44.828125 C 13.621094 44.132812 14.902344 44.277344 15.605469 45.148438 L 17.003906 44.023438 C 16.53125 43.433594 16.617188 42.582031 17.199219 42.113281 C 17.777344 41.644531 18.632812 41.738281 19.105469 42.324219 L 20.582031 41.136719 C 20.105469 40.550781 20.195312 39.695312 20.773438 39.226562 C 21.355469 38.757812 22.210938 38.851562 22.683594 39.441406 L 24.140625 38.261719 C 23.667969 37.675781 23.757812 36.820312 24.335938 36.351562 C 24.917969 35.882812 25.769531 35.980469 26.242188 36.566406 L 27.71875 35.375 C 27.246094 34.789062 27.332031 33.933594 27.914062 33.46875 C 28.492188 33 29.347656 33.09375 29.820312 33.679688 L 31.28125 32.503906 C 30.808594 31.917969 30.894531 31.0625 31.476562 30.59375 C 32.054688 30.125 32.910156 30.222656 33.382812 30.808594 L 34.855469 29.617188 C 34.382812 29.03125 34.472656 28.175781 35.050781 27.707031 C 35.632812 27.238281 36.488281 27.335938 36.960938 27.921875 L 38.417969 26.746094 C 37.945312 26.15625 38.03125 25.304688 38.613281 24.835938 C 39.195312 24.367188 40.046875 24.460938 40.519531 25.046875 L 41.996094 23.859375 C 41.523438 23.273438 41.609375 22.417969 42.191406 21.949219 C 42.769531 21.480469 43.625 21.574219 44.097656 22.160156 L 45.558594 20.984375 C 45.082031 20.398438 45.171875 19.542969 45.75 19.074219 C 46.332031 18.605469 47.1875 18.703125 47.660156 19.289062 L 49.054688 18.164062 C 48.351562 17.289062 48.484375 16.007812 49.347656 15.3125 L 38.261719 1.574219 C 37.398438 2.269531 36.117188 2.125 35.425781 1.269531 Z M 44.988281 13.859375 C 43.96875 14.679688 43.8125 16.21875 44.65625 17.265625 L 15.675781 40.644531 C 14.832031 39.597656 13.296875 39.425781 12.261719 40.261719 L 6.035156 32.542969 C 7.070312 31.710938 7.226562 30.171875 6.382812 29.125 L 35.359375 5.746094 C 36.203125 6.792969 37.742188 6.964844 38.761719 6.140625 Z M 44.988281 13.859375 "/></g></g></g><g clip-rule="nonzero" clip-path="url(#e4c49347cf)"><g clip-rule="nonzero" clip-path="url(#1924d596af)"><g clip-rule="nonzero" clip-path="url(#05b3e0012b)"><path style=" stroke:none;fill-rule:nonzero;fill:#e82c8d;fill-opacity:1;" d="M 27.902344 12.808594 L 28.796875 12.089844 L 37.066406 22.339844 L 36.171875 23.0625 Z M 27.902344 12.808594 "/></g></g></g><g clip-rule="nonzero" clip-path="url(#6482f13ffa)"><g clip-rule="nonzero" clip-path="url(#fa1bd03d39)"><g clip-rule="nonzero" clip-path="url(#a66d3930dd)"><path style=" stroke:none;fill-rule:nonzero;fill:#e82c8d;fill-opacity:1;" d="M 30.496094 12.078125 L 35.910156 7.710938 L 36.789062 8.804688 L 31.378906 13.171875 Z M 30.496094 12.078125 "/></g></g></g><g clip-rule="nonzero" clip-path="url(#3edfe76eee)"><g clip-rule="nonzero" clip-path="url(#1af09c6ae8)"><g clip-rule="nonzero" clip-path="url(#a34bbd6e25)"><path style=" stroke:none;fill-rule:nonzero;fill:#e82c8d;fill-opacity:1;" d="M 34.011719 16.433594 L 39.425781 12.066406 L 39.921875 12.6875 L 34.511719 17.050781 Z M 34.011719 16.433594 "/></g></g></g><g clip-rule="nonzero" clip-path="url(#d9753d0605)"><g clip-rule="nonzero" clip-path="url(#4edab97175)"><g clip-rule="nonzero" clip-path="url(#7144e627e6)"><path style=" stroke:none;fill-rule:nonzero;fill:#e82c8d;fill-opacity:1;" d="M 36.414062 19.414062 L 41.828125 15.046875 L 42.328125 15.664062 L 36.914062 20.03125 Z M 36.414062 19.414062 "/></g></g></g><g clip-rule="nonzero" clip-path="url(#f111a862b1)"><g clip-rule="nonzero" clip-path="url(#78c8385e22)"><g clip-rule="nonzero" clip-path="url(#151ce50d17)"><path style=" stroke:none;fill-rule:nonzero;fill:#e82c8d;fill-opacity:1;" d="M 37.132812 20.300781 L 42.542969 15.933594 L 42.851562 16.3125 L 37.4375 20.679688 Z M 37.132812 20.300781 "/></g></g></g><g clip-rule="nonzero" clip-path="url(#38e7874ee6)"><g clip-rule="nonzero" clip-path="url(#c78edec0aa)"><g clip-rule="nonzero" clip-path="url(#a1d2270567)"><path style=" stroke:none;fill-rule:nonzero;fill:#e82c8d;fill-opacity:1;" d="M 34.726562 17.320312 L 40.140625 12.957031 L 40.449219 13.335938 L 35.035156 17.703125 Z M 34.726562 17.320312 "/></g></g></g><g clip-rule="nonzero" clip-path="url(#be65d68cdf)"><g clip-rule="nonzero" clip-path="url(#ea37d56179)"><g clip-rule="nonzero" clip-path="url(#7c9b18f22f)"><path style=" stroke:none;fill-rule:nonzero;fill:#e82c8d;fill-opacity:1;" d="M 35.289062 18.019531 L 40.703125 13.652344 L 41.574219 14.730469 L 36.160156 19.097656 Z M 35.289062 18.019531 "/></g></g></g></g></svg>