<svg xmlns="http://www.w3.org/2000/svg" xmlns:xlink="http://www.w3.org/1999/xlink" width="64" zoomAndPan="magnify" viewBox="0 0 48 44.249999" height="59" preserveAspectRatio="xMidYMid meet" version="1.2"><defs><clipPath id="2d2beb2eaa"><path d="M 13 5 L 46.863281 5 L 46.863281 27 L 13 27 Z M 13 5 "/></clipPath><clipPath id="e6c6cd604b"><path d="M 35 20 L 46.863281 20 L 46.863281 27 L 35 27 Z M 35 20 "/></clipPath><clipPath id="5d80753548"><path d="M 0.398438 26 L 37 26 L 37 39 L 0.398438 39 Z M 0.398438 26 "/></clipPath><clipPath id="4980cd0bf3"><path d="M 12 37 L 15 37 L 15 42.773438 L 12 42.773438 Z M 12 37 "/></clipPath><clipPath id="c1599a0309"><path d="M 29 37 L 33 37 L 33 42.773438 L 29 42.773438 Z M 29 37 "/></clipPath></defs><g id="f4aaeb181a"><path style=" stroke:none;fill-rule:nonzero;fill:#00b3eb;fill-opacity:1;" d="M 29.835938 22.457031 C 29.835938 22.457031 29.832031 22.457031 29.832031 22.457031 C 29.832031 22.457031 29.835938 22.457031 29.835938 22.457031 Z M 29.832031 22.457031 Z M 28.199219 34.667969 C 28.167969 34.667969 28.132812 34.664062 28.097656 34.65625 C 27.800781 34.601562 27.605469 34.3125 27.660156 34.015625 L 27.75 33.546875 L 29.824219 22.5 C 29.824219 22.496094 29.828125 22.492188 29.828125 22.488281 C 29.878906 22.199219 30.148438 22 30.441406 22.039062 C 30.742188 22.078125 30.953125 22.351562 30.914062 22.652344 C 30.910156 22.667969 30.90625 22.683594 30.90625 22.695312 C 30.90625 22.695312 30.90625 22.699219 30.90625 22.699219 L 28.828125 33.75 L 28.738281 34.21875 C 28.6875 34.480469 28.457031 34.667969 28.199219 34.667969 "/><g clip-rule="nonzero" clip-path="url(#2d2beb2eaa)"><path style=" stroke:none;fill-rule:nonzero;fill:#00b3eb;fill-opacity:1;" d="M 46.128906 26.128906 C 46.09375 26.128906 46.058594 26.125 46.027344 26.117188 C 45.726562 26.0625 45.53125 25.773438 45.589844 25.476562 L 45.589844 25.460938 C 45.59375 25.441406 45.597656 25.421875 45.601562 25.40625 L 45.601562 25.402344 C 45.601562 25.398438 45.601562 25.398438 45.601562 25.394531 C 47.109375 17.144531 41.652344 9.070312 33.433594 7.394531 C 33.375 7.382812 33.316406 7.371094 33.234375 7.355469 C 33.230469 7.355469 33.226562 7.355469 33.21875 7.351562 C 33.214844 7.351562 33.203125 7.351562 33.199219 7.347656 C 33.195312 7.347656 33.195312 7.347656 33.195312 7.347656 C 33.132812 7.335938 33.074219 7.324219 33.015625 7.316406 C 24.679688 5.851562 16.628906 11.425781 15.066406 19.742188 C 15.011719 20.039062 14.722656 20.234375 14.425781 20.179688 C 14.128906 20.121094 13.933594 19.835938 13.988281 19.539062 C 14.398438 17.347656 15.226562 15.304688 16.441406 13.457031 C 17.617188 11.675781 19.105469 10.15625 20.867188 8.9375 C 22.628906 7.71875 24.578125 6.859375 26.660156 6.390625 C 28.8125 5.902344 31.011719 5.847656 33.203125 6.234375 C 33.265625 6.246094 33.328125 6.257812 33.394531 6.269531 C 33.398438 6.269531 33.398438 6.269531 33.398438 6.269531 C 33.414062 6.273438 33.429688 6.277344 33.441406 6.277344 C 33.527344 6.292969 33.59375 6.308594 33.65625 6.320312 C 35.816406 6.761719 37.835938 7.609375 39.652344 8.839844 C 41.40625 10.03125 42.902344 11.527344 44.097656 13.292969 C 45.292969 15.058594 46.125 17.003906 46.578125 19.078125 C 47.042969 21.222656 47.082031 23.414062 46.683594 25.589844 L 46.683594 25.59375 C 46.679688 25.617188 46.675781 25.640625 46.671875 25.664062 L 46.667969 25.679688 C 46.617188 25.945312 46.386719 26.128906 46.128906 26.128906 "/></g><path style=" stroke:none;fill-rule:nonzero;fill:#00b3eb;fill-opacity:1;" d="M 19.882812 20.367188 C 19.851562 20.367188 19.820312 20.363281 19.789062 20.359375 C 19.492188 20.304688 19.289062 20.023438 19.34375 19.722656 C 19.34375 19.710938 19.347656 19.699219 19.347656 19.691406 C 20.136719 16.347656 21.863281 13.324219 24.332031 10.945312 C 26.75 8.617188 29.761719 7.015625 33.035156 6.320312 C 33.082031 6.308594 33.132812 6.296875 33.183594 6.289062 C 33.1875 6.285156 33.191406 6.285156 33.199219 6.285156 C 33.203125 6.285156 33.207031 6.28125 33.210938 6.28125 C 33.222656 6.28125 33.230469 6.277344 33.238281 6.277344 C 33.304688 6.265625 33.371094 6.265625 33.433594 6.277344 C 33.730469 6.332031 33.929688 6.617188 33.875 6.914062 C 33.832031 7.148438 33.648438 7.320312 33.429688 7.359375 C 33.425781 7.359375 33.421875 7.359375 33.421875 7.359375 C 33.414062 7.363281 33.40625 7.363281 33.398438 7.363281 C 33.351562 7.375 33.308594 7.382812 33.261719 7.390625 C 26.945312 8.738281 21.902344 13.660156 20.417969 19.9375 C 20.359375 20.191406 20.136719 20.367188 19.882812 20.367188 "/><path style=" stroke:none;fill-rule:nonzero;fill:#00b3eb;fill-opacity:1;" d="M 25.140625 21.371094 C 25.09375 21.371094 25.050781 21.367188 25.003906 21.355469 C 24.710938 21.28125 24.535156 20.980469 24.609375 20.6875 C 25.972656 15.335938 28.824219 10.515625 32.855469 6.742188 C 32.871094 6.730469 32.886719 6.714844 32.902344 6.703125 C 32.96875 6.640625 33.035156 6.578125 33.101562 6.519531 L 33.105469 6.511719 C 33.128906 6.492188 33.152344 6.472656 33.175781 6.449219 C 33.398438 6.246094 33.746094 6.265625 33.949219 6.488281 C 34.152344 6.714844 34.136719 7.0625 33.910156 7.265625 C 33.890625 7.285156 33.867188 7.300781 33.847656 7.320312 L 33.839844 7.328125 C 33.773438 7.386719 33.710938 7.445312 33.648438 7.507812 C 33.648438 7.507812 33.644531 7.507812 33.644531 7.511719 C 33.636719 7.519531 33.625 7.527344 33.617188 7.535156 C 33.613281 7.539062 33.613281 7.539062 33.609375 7.542969 C 29.730469 11.171875 26.984375 15.8125 25.671875 20.957031 C 25.609375 21.207031 25.386719 21.371094 25.140625 21.371094 "/><path style=" stroke:none;fill-rule:nonzero;fill:#00b3eb;fill-opacity:1;" d="M 35.863281 23.425781 C 35.835938 23.425781 35.8125 23.421875 35.785156 23.417969 C 35.484375 23.378906 35.277344 23.101562 35.316406 22.800781 C 36.042969 17.492188 35.164062 12.148438 32.78125 7.351562 C 32.78125 7.347656 32.777344 7.34375 32.777344 7.339844 C 32.773438 7.328125 32.765625 7.320312 32.761719 7.308594 C 32.761719 7.308594 32.761719 7.304688 32.757812 7.304688 C 32.726562 7.238281 32.691406 7.171875 32.660156 7.105469 C 32.644531 7.078125 32.632812 7.050781 32.617188 7.027344 C 32.480469 6.757812 32.585938 6.425781 32.855469 6.285156 C 33.125 6.148438 33.457031 6.253906 33.59375 6.523438 C 33.609375 6.550781 33.621094 6.578125 33.636719 6.609375 C 33.671875 6.675781 33.707031 6.742188 33.742188 6.8125 C 33.75 6.832031 33.757812 6.847656 33.765625 6.867188 C 36.246094 11.859375 37.160156 17.421875 36.40625 22.949219 C 36.367188 23.222656 36.132812 23.425781 35.863281 23.425781 "/><path style=" stroke:none;fill-rule:nonzero;fill:#00b3eb;fill-opacity:1;" d="M 41.09375 24.460938 C 41.058594 24.460938 41.027344 24.457031 40.992188 24.449219 C 40.699219 24.398438 40.503906 24.121094 40.550781 23.828125 C 41.488281 17.410156 38.59375 10.953125 33.167969 7.382812 L 33.164062 7.378906 C 33.113281 7.347656 33.066406 7.316406 33.015625 7.285156 C 33.015625 7.285156 33.015625 7.28125 33.015625 7.28125 L 33.003906 7.277344 C 33.003906 7.273438 33 7.273438 33 7.273438 C 32.996094 7.269531 32.992188 7.269531 32.988281 7.265625 C 32.742188 7.101562 32.667969 6.773438 32.828125 6.519531 C 32.984375 6.261719 33.324219 6.183594 33.582031 6.34375 C 33.585938 6.34375 33.59375 6.347656 33.597656 6.351562 L 33.609375 6.359375 C 33.660156 6.394531 33.714844 6.425781 33.765625 6.460938 L 33.773438 6.464844 C 36.578125 8.3125 38.804688 10.914062 40.207031 13.980469 C 41.640625 17.113281 42.136719 20.574219 41.636719 23.992188 C 41.632812 23.996094 41.632812 24.003906 41.632812 24.007812 C 41.585938 24.273438 41.351562 24.460938 41.09375 24.460938 "/><path style=" stroke:none;fill-rule:nonzero;fill:#00b3eb;fill-opacity:1;" d="M 30.410156 22.714844 C 30.378906 22.714844 30.34375 22.710938 30.308594 22.707031 C 30.011719 22.648438 29.816406 22.363281 29.871094 22.066406 L 32.757812 6.710938 C 32.8125 6.410156 33.101562 6.214844 33.398438 6.269531 C 33.695312 6.328125 33.890625 6.613281 33.835938 6.910156 L 33.773438 7.242188 L 30.949219 22.269531 C 30.902344 22.53125 30.671875 22.714844 30.410156 22.714844 "/><g clip-rule="nonzero" clip-path="url(#e6c6cd604b)"><path style=" stroke:none;fill-rule:nonzero;fill:#00b3eb;fill-opacity:1;" d="M 46.132812 26.109375 C 46.097656 26.109375 46.0625 26.109375 46.03125 26.101562 C 45.730469 26.046875 45.535156 25.757812 45.589844 25.460938 C 45.695312 24.902344 45.578125 24.335938 45.257812 23.867188 C 44.9375 23.402344 44.453125 23.085938 43.894531 22.980469 C 42.742188 22.761719 41.632812 23.523438 41.414062 24.675781 C 41.359375 24.972656 41.070312 25.167969 40.773438 25.113281 C 40.511719 25.0625 40.328125 24.832031 40.328125 24.574219 C 40.328125 24.542969 40.328125 24.507812 40.335938 24.472656 C 40.554688 23.320312 39.792969 22.207031 38.640625 21.992188 C 37.488281 21.773438 36.375 22.535156 36.160156 23.6875 C 36.105469 23.984375 35.816406 24.179688 35.519531 24.125 C 35.222656 24.070312 35.023438 23.78125 35.082031 23.484375 C 35.410156 21.738281 37.097656 20.585938 38.84375 20.914062 C 39.9375 21.117188 40.796875 21.855469 41.207031 22.808594 C 41.9375 22.070312 43.003906 21.695312 44.097656 21.902344 C 44.945312 22.058594 45.679688 22.539062 46.164062 23.25 C 46.648438 23.960938 46.828125 24.816406 46.671875 25.664062 C 46.621094 25.925781 46.390625 26.109375 46.132812 26.109375 "/></g><path style=" stroke:none;fill-rule:nonzero;fill:#00b3eb;fill-opacity:1;" d="M 35.621094 24.136719 C 35.585938 24.136719 35.554688 24.132812 35.519531 24.125 C 35.222656 24.070312 35.023438 23.78125 35.082031 23.484375 C 35.296875 22.332031 34.535156 21.222656 33.386719 21.003906 C 32.234375 20.789062 31.121094 21.546875 30.90625 22.699219 C 30.847656 22.996094 30.5625 23.195312 30.261719 23.136719 C 30 23.089844 29.816406 22.859375 29.816406 22.597656 C 29.816406 22.566406 29.820312 22.53125 29.824219 22.496094 C 29.929688 21.941406 29.8125 21.375 29.492188 20.90625 C 29.171875 20.4375 28.6875 20.121094 28.128906 20.015625 C 26.976562 19.800781 25.867188 20.5625 25.648438 21.710938 C 25.59375 22.011719 25.304688 22.207031 25.007812 22.148438 C 24.710938 22.09375 24.515625 21.808594 24.570312 21.507812 C 24.898438 19.761719 26.585938 18.609375 28.332031 18.9375 C 29.179688 19.097656 29.914062 19.574219 30.398438 20.285156 C 30.515625 20.460938 30.617188 20.640625 30.699219 20.832031 C 31.425781 20.09375 32.496094 19.71875 33.589844 19.925781 C 35.335938 20.253906 36.488281 21.941406 36.160156 23.6875 C 36.109375 23.953125 35.878906 24.136719 35.621094 24.136719 "/><path style=" stroke:none;fill-rule:nonzero;fill:#00b3eb;fill-opacity:1;" d="M 25.109375 22.160156 C 25.078125 22.160156 25.042969 22.15625 25.007812 22.148438 C 24.710938 22.09375 24.515625 21.808594 24.570312 21.507812 C 24.675781 20.953125 24.554688 20.386719 24.238281 19.917969 C 23.917969 19.449219 23.433594 19.132812 22.875 19.027344 C 22.316406 18.921875 21.75 19.042969 21.28125 19.363281 C 20.816406 19.683594 20.5 20.167969 20.394531 20.722656 C 20.339844 21.023438 20.050781 21.21875 19.753906 21.164062 C 19.488281 21.113281 19.304688 20.882812 19.304688 20.625 C 19.304688 20.589844 19.308594 20.554688 19.316406 20.519531 C 19.53125 19.371094 18.769531 18.257812 17.621094 18.039062 C 16.46875 17.824219 15.355469 18.585938 15.140625 19.738281 C 15.082031 20.035156 14.796875 20.230469 14.496094 20.175781 C 14.199219 20.117188 14.003906 19.832031 14.058594 19.535156 C 14.386719 17.789062 16.074219 16.632812 17.824219 16.960938 C 18.914062 17.167969 19.773438 17.902344 20.1875 18.855469 C 20.332031 18.707031 20.488281 18.574219 20.664062 18.457031 C 21.375 17.972656 22.230469 17.789062 23.078125 17.949219 C 23.921875 18.109375 24.65625 18.585938 25.140625 19.296875 C 25.628906 20.007812 25.808594 20.867188 25.648438 21.710938 C 25.601562 21.976562 25.367188 22.160156 25.109375 22.160156 "/><g clip-rule="nonzero" clip-path="url(#5d80753548)"><path style=" stroke:none;fill-rule:nonzero;fill:#00b3eb;fill-opacity:1;" d="M 9.433594 37.011719 L 35.136719 37.011719 L 35.136719 34.660156 L 10.632812 34.660156 C 10.488281 34.660156 10.347656 34.605469 10.246094 34.5 L 3.472656 27.730469 L 1.8125 29.390625 Z M 35.6875 38.109375 L 9.203125 38.109375 C 9.058594 38.109375 8.917969 38.054688 8.816406 37.949219 L 0.648438 29.78125 C 0.433594 29.566406 0.433594 29.21875 0.648438 29.003906 L 3.085938 26.566406 C 3.1875 26.460938 3.328125 26.40625 3.472656 26.40625 C 3.621094 26.40625 3.757812 26.460938 3.863281 26.566406 L 10.859375 33.5625 L 35.6875 33.5625 C 35.992188 33.5625 36.234375 33.808594 36.234375 34.113281 L 36.234375 37.5625 C 36.234375 37.863281 35.992188 38.109375 35.6875 38.109375 "/></g><path style=" stroke:none;fill-rule:nonzero;fill:#00b3eb;fill-opacity:1;" d="M 9.820312 31.652344 C 9.679688 31.652344 9.539062 31.597656 9.433594 31.488281 L 6.425781 28.484375 L 5.714844 29.195312 C 5.5 29.410156 5.152344 29.410156 4.941406 29.195312 C 4.726562 28.980469 4.726562 28.632812 4.941406 28.417969 L 6.039062 27.320312 C 6.253906 27.105469 6.601562 27.105469 6.816406 27.320312 L 10.207031 30.714844 C 10.421875 30.929688 10.421875 31.273438 10.207031 31.488281 C 10.101562 31.597656 9.960938 31.652344 9.820312 31.652344 "/><path style=" stroke:none;fill-rule:nonzero;fill:#00b3eb;fill-opacity:1;" d="M 8.722656 32.75 C 8.582031 32.75 8.441406 32.695312 8.332031 32.589844 C 8.117188 32.375 8.117188 32.027344 8.332031 31.8125 L 9.433594 30.714844 C 9.644531 30.5 9.992188 30.5 10.207031 30.714844 C 10.421875 30.929688 10.421875 31.273438 10.207031 31.488281 L 9.109375 32.589844 C 9.003906 32.695312 8.863281 32.75 8.722656 32.75 "/><path style=" stroke:none;fill-rule:nonzero;fill:#00b3eb;fill-opacity:1;" d="M 9.5 4.042969 C 7.953125 4.042969 6.695312 5.300781 6.695312 6.847656 C 6.695312 8.394531 7.953125 9.652344 9.5 9.652344 C 11.046875 9.652344 12.304688 8.394531 12.304688 6.847656 C 12.304688 5.300781 11.046875 4.042969 9.5 4.042969 Z M 9.5 10.75 C 7.347656 10.75 5.597656 8.996094 5.597656 6.847656 C 5.597656 4.695312 7.347656 2.941406 9.5 2.941406 C 11.652344 2.941406 13.402344 4.695312 13.402344 6.847656 C 13.402344 8.996094 11.652344 10.75 9.5 10.75 "/><path style=" stroke:none;fill-rule:nonzero;fill:#00b3eb;fill-opacity:1;" d="M 9.5 2.320312 C 9.195312 2.320312 8.949219 2.078125 8.949219 1.773438 L 8.949219 0.546875 C 8.949219 0.246094 9.195312 0 9.5 0 C 9.800781 0 10.046875 0.246094 10.046875 0.546875 L 10.046875 1.773438 C 10.046875 2.078125 9.800781 2.320312 9.5 2.320312 "/><path style=" stroke:none;fill-rule:nonzero;fill:#00b3eb;fill-opacity:1;" d="M 5.910156 3.808594 C 5.769531 3.808594 5.632812 3.753906 5.523438 3.648438 L 4.65625 2.78125 C 4.441406 2.566406 4.441406 2.21875 4.65625 2.003906 C 4.871094 1.789062 5.21875 1.789062 5.433594 2.003906 L 6.300781 2.871094 C 6.515625 3.085938 6.515625 3.433594 6.300781 3.648438 C 6.191406 3.753906 6.050781 3.808594 5.910156 3.808594 "/><path style=" stroke:none;fill-rule:nonzero;fill:#00b3eb;fill-opacity:1;" d="M 4.425781 7.394531 L 3.199219 7.394531 C 2.898438 7.394531 2.652344 7.148438 2.652344 6.847656 C 2.652344 6.542969 2.898438 6.296875 3.199219 6.296875 L 4.425781 6.296875 C 4.730469 6.296875 4.976562 6.542969 4.976562 6.847656 C 4.976562 7.148438 4.730469 7.394531 4.425781 7.394531 "/><path style=" stroke:none;fill-rule:nonzero;fill:#00b3eb;fill-opacity:1;" d="M 5.046875 11.847656 C 4.90625 11.847656 4.765625 11.796875 4.65625 11.6875 C 4.441406 11.472656 4.441406 11.125 4.65625 10.910156 L 5.523438 10.046875 C 5.738281 9.832031 6.085938 9.832031 6.300781 10.046875 C 6.515625 10.257812 6.515625 10.605469 6.300781 10.820312 L 5.433594 11.6875 C 5.324219 11.796875 5.1875 11.847656 5.046875 11.847656 "/><path style=" stroke:none;fill-rule:nonzero;fill:#00b3eb;fill-opacity:1;" d="M 9.5 13.691406 C 9.195312 13.691406 8.949219 13.445312 8.949219 13.144531 L 8.949219 11.917969 C 8.949219 11.617188 9.195312 11.371094 9.5 11.371094 C 9.800781 11.371094 10.046875 11.617188 10.046875 11.917969 L 10.046875 13.144531 C 10.046875 13.445312 9.800781 13.691406 9.5 13.691406 "/><path style=" stroke:none;fill-rule:nonzero;fill:#00b3eb;fill-opacity:1;" d="M 13.953125 11.847656 C 13.8125 11.847656 13.671875 11.796875 13.5625 11.6875 L 12.699219 10.820312 C 12.484375 10.605469 12.484375 10.257812 12.699219 10.046875 C 12.910156 9.832031 13.257812 9.832031 13.472656 10.046875 L 14.339844 10.910156 C 14.554688 11.125 14.554688 11.472656 14.339844 11.6875 C 14.234375 11.796875 14.09375 11.847656 13.953125 11.847656 "/><path style=" stroke:none;fill-rule:nonzero;fill:#00b3eb;fill-opacity:1;" d="M 15.796875 7.394531 L 14.570312 7.394531 C 14.269531 7.394531 14.023438 7.148438 14.023438 6.847656 C 14.023438 6.542969 14.269531 6.296875 14.570312 6.296875 L 15.796875 6.296875 C 16.101562 6.296875 16.347656 6.542969 16.347656 6.847656 C 16.347656 7.148438 16.101562 7.394531 15.796875 7.394531 "/><path style=" stroke:none;fill-rule:nonzero;fill:#00b3eb;fill-opacity:1;" d="M 13.085938 3.808594 C 12.945312 3.808594 12.804688 3.753906 12.699219 3.648438 C 12.484375 3.433594 12.484375 3.085938 12.699219 2.871094 L 13.5625 2.003906 C 13.777344 1.789062 14.125 1.789062 14.339844 2.003906 C 14.554688 2.21875 14.554688 2.566406 14.339844 2.78125 L 13.472656 3.648438 C 13.367188 3.753906 13.226562 3.808594 13.085938 3.808594 "/><g clip-rule="nonzero" clip-path="url(#4980cd0bf3)"><path style=" stroke:none;fill-rule:nonzero;fill:#00b3eb;fill-opacity:1;" d="M 14.445312 43.050781 L 12.617188 43.050781 C 12.316406 43.050781 12.070312 42.804688 12.070312 42.5 L 12.070312 37.5625 C 12.070312 37.257812 12.316406 37.011719 12.617188 37.011719 C 12.921875 37.011719 13.167969 37.257812 13.167969 37.5625 L 13.167969 41.953125 L 13.898438 41.953125 L 13.898438 37.5625 C 13.898438 37.257812 14.140625 37.011719 14.445312 37.011719 C 14.75 37.011719 14.996094 37.257812 14.996094 37.5625 L 14.996094 42.5 C 14.996094 42.804688 14.75 43.050781 14.445312 43.050781 "/></g><g clip-rule="nonzero" clip-path="url(#c1599a0309)"><path style=" stroke:none;fill-rule:nonzero;fill:#00b3eb;fill-opacity:1;" d="M 32.363281 43.050781 L 30.539062 43.050781 C 30.234375 43.050781 29.988281 42.804688 29.988281 42.5 L 29.988281 37.5625 C 29.988281 37.257812 30.234375 37.011719 30.539062 37.011719 C 30.84375 37.011719 31.085938 37.257812 31.085938 37.5625 L 31.085938 41.953125 L 31.816406 41.953125 L 31.816406 37.5625 C 31.816406 37.257812 32.0625 37.011719 32.363281 37.011719 C 32.667969 37.011719 32.914062 37.257812 32.914062 37.5625 L 32.914062 42.5 C 32.914062 42.804688 32.667969 43.050781 32.363281 43.050781 "/></g></g></svg>