<svg xmlns="http://www.w3.org/2000/svg" xmlns:xlink="http://www.w3.org/1999/xlink" width="66" zoomAndPan="magnify" viewBox="0 0 49.5 39.749999" height="53" preserveAspectRatio="xMidYMid meet" version="1.2"><defs><clipPath id="f5d4590a9d"><path d="M 0 0.0742188 L 49 0.0742188 L 49 38.683594 L 0 38.683594 Z M 0 0.0742188 "/></clipPath></defs><g id="3862f2e993"><g clip-rule="nonzero" clip-path="url(#f5d4590a9d)"><path style=" stroke:none;fill-rule:nonzero;fill:#00b3eb;fill-opacity:1;" d="M 25.8125 32.917969 L 18.398438 32.925781 C 18.148438 32.929688 17.90625 32.972656 17.65625 32.976562 L 15.558594 33.027344 C 13.5 33.035156 12.851562 33.011719 10.84375 33.730469 C 10.710938 33.777344 10.574219 33.789062 10.457031 33.863281 L 10.449219 36.140625 C 10.449219 36.476562 10.488281 36.882812 10.410156 37.214844 C 10.074219 38.671875 8.96875 38.882812 7.730469 38.886719 L 4.695312 38.886719 C 4.300781 38.886719 3.851562 38.929688 3.46875 38.835938 C 1.914062 38.46875 1.789062 37.316406 1.789062 36.027344 L 1.785156 33.757812 C 1.78125 32.832031 1.816406 32.75 1.554688 31.867188 L 1.015625 29.992188 C 0.714844 28.757812 0.488281 27.457031 0.410156 26.1875 L 0.390625 25 C 0.386719 22.605469 0.800781 20.425781 2.175781 18.386719 L 2.851562 17.476562 C 3.769531 16.3125 4.046875 16.316406 2.648438 15.421875 C 1.308594 14.566406 0.00390625 13.46875 1.726562 12.136719 C 2.792969 11.3125 4.277344 11.097656 5.585938 11.269531 C 7.015625 8.054688 10.40625 2.878906 13.46875 1.390625 C 15.429688 0.4375 18.597656 0.300781 20.730469 0.183594 L 23.230469 0.0742188 L 27.210938 0.0820312 L 30.253906 0.332031 C 32.78125 0.589844 34.871094 0.65625 36.945312 2.328125 C 39.101562 4.066406 41.09375 6.828125 42.410156 9.28125 C 42.503906 9.453125 43.429688 11.289062 43.453125 11.300781 C 43.472656 11.3125 43.800781 11.25 43.859375 11.246094 C 44.828125 11.144531 45.769531 11.257812 46.648438 11.710938 C 47.4375 12.121094 48.410156 12.980469 47.972656 13.964844 C 47.445312 15.136719 45.902344 15.273438 45.347656 16.242188 C 45.390625 16.460938 45.566406 16.683594 45.695312 16.859375 L 46.242188 17.589844 C 48 19.96875 48.625 22.058594 48.621094 24.949219 C 48.617188 26.59375 48.410156 28.203125 48.019531 29.800781 L 47.613281 31.355469 C 47.285156 32.523438 47.195312 33.070312 47.191406 34.265625 L 47.199219 36.023438 C 47.207031 37.71875 46.871094 38.847656 44.972656 38.882812 L 41.132812 38.886719 C 39.90625 38.882812 38.863281 38.527344 38.597656 37.136719 C 38.53125 36.792969 38.570312 36.375 38.566406 36.023438 L 38.558594 33.898438 C 38.449219 33.832031 38.320312 33.816406 38.203125 33.773438 L 37.484375 33.492188 C 36.542969 33.160156 35.6875 33.035156 34.699219 33.03125 L 32.945312 33.023438 C 32.753906 33.019531 32.570312 32.988281 32.382812 32.980469 L 30.867188 32.96875 C 30.695312 32.960938 30.519531 32.929688 30.347656 32.921875 Z M 23.734375 1.601562 C 21.40625 1.609375 16.28125 1.832031 14.195312 2.78125 C 11.726562 3.90625 9.226562 7.804688 7.984375 10.050781 L 7.191406 11.546875 C 6.246094 13.347656 6.371094 12.964844 4.714844 12.75 C 4.015625 12.660156 3.039062 13.058594 2.5 13.460938 C 3.464844 14 4.859375 14.773438 5.1875 15.890625 C 5.460938 16.835938 4.699219 17.675781 4.160156 18.359375 C 2.53125 20.425781 1.972656 22.238281 1.976562 24.925781 L 1.992188 26.042969 C 2.023438 26.566406 2.09375 27.09375 2.167969 27.609375 C 2.339844 28.839844 2.734375 31.664062 3.871094 32.308594 C 5.292969 33.117188 7.757812 33.035156 9.339844 32.589844 C 11.078125 32.101562 12.042969 31.496094 13.910156 31.496094 L 17.789062 31.445312 C 18.003906 31.4375 18.207031 31.390625 18.425781 31.382812 L 25.273438 31.378906 L 30.113281 31.382812 C 30.355469 31.390625 30.589844 31.441406 30.835938 31.445312 L 35.050781 31.496094 C 37.160156 31.507812 38.421875 32.347656 40.355469 32.75 C 41.753906 33.042969 44.148438 33.078125 45.328125 32.277344 C 46.386719 31.554688 46.992188 27.214844 47.066406 25.742188 L 47.074219 24.527344 C 47.074219 24.132812 47.089844 23.703125 47.007812 23.316406 L 46.847656 22.414062 C 46.5625 21.039062 45.96875 19.839844 45.132812 18.71875 C 44.378906 17.703125 43.238281 16.589844 44.101562 15.273438 C 44.808594 14.203125 45.671875 14.132812 46.445312 13.488281 C 44.140625 11.597656 43.261719 14.273438 41.960938 11.8125 L 40.6875 9.394531 C 39.746094 7.75 38.636719 6.222656 37.351562 4.832031 C 35.347656 2.652344 34.179688 2.304688 31.230469 1.957031 L 26.660156 1.613281 Z M 3.304688 33.761719 C 3.300781 34.210938 3.339844 34.683594 3.339844 35.136719 L 3.339844 36.148438 C 3.339844 37.539062 3.78125 37.339844 4.882812 37.339844 L 7.65625 37.339844 C 7.988281 37.339844 8.4375 37.410156 8.710938 37.175781 L 8.8125 37.070312 C 8.953125 36.710938 8.894531 36.234375 8.894531 35.847656 L 8.910156 34.261719 C 7.015625 34.507812 5.046875 34.726562 3.304688 33.761719 Z M 45.660156 33.820312 C 44.292969 34.460938 42.890625 34.546875 41.390625 34.445312 C 41.230469 34.433594 40.167969 34.273438 40.105469 34.300781 L 40.101562 36.046875 C 40.101562 36.371094 40.003906 36.851562 40.234375 37.117188 C 40.59375 37.398438 40.996094 37.335938 41.425781 37.339844 L 44.292969 37.339844 C 46.035156 37.339844 45.664062 36.847656 45.660156 35.355469 Z M 45.660156 33.820312 "/></g><path style=" stroke:none;fill-rule:nonzero;fill:#00b3eb;fill-opacity:1;" d="M 26.109375 15.808594 L 8.488281 16.3125 C 8.042969 16.316406 7.660156 16.21875 7.339844 15.898438 C 6.660156 15.226562 6.980469 14.292969 7.246094 13.503906 C 8.148438 10.832031 11.316406 5.40625 13.738281 4.378906 C 15.234375 3.742188 18.660156 3.585938 20.28125 3.496094 L 22.875 3.414062 L 32.730469 3.824219 C 33.480469 3.917969 34.277344 4.003906 34.992188 4.253906 C 37.515625 5.144531 40.101562 9.78125 41.160156 12.042969 C 41.574219 12.921875 42.167969 14.207031 42.03125 15.210938 L 42.027344 15.257812 C 41.894531 16.261719 40.804688 16.304688 40.007812 16.296875 L 31.003906 15.871094 C 30.789062 15.867188 30.578125 15.820312 30.363281 15.816406 Z M 22.261719 4.945312 L 19.503906 5.085938 C 18.273438 5.179688 15.488281 5.339844 14.371094 5.832031 C 12.671875 6.578125 10.84375 9.722656 9.996094 11.25 C 9.390625 12.339844 8.714844 13.550781 8.519531 14.792969 L 26.746094 14.25 L 40.5 14.679688 C 40.457031 14.597656 40.453125 14.5 40.429688 14.410156 C 39.925781 12.25 36.390625 6.398438 34.535156 5.753906 C 33.902344 5.535156 33.15625 5.464844 32.496094 5.375 L 27.726562 4.960938 Z M 22.261719 4.945312 "/><path style=" stroke:none;fill-rule:nonzero;fill:#00b3eb;fill-opacity:1;" d="M 10.0625 26.675781 C 8.484375 26.632812 6.589844 26.175781 5.382812 25.109375 C 4.722656 24.523438 4.097656 23.699219 4.042969 22.785156 C 3.90625 20.511719 5.71875 19.6875 7.730469 19.597656 C 10.464844 19.382812 13.675781 21.570312 13.714844 24.523438 C 13.738281 26.730469 11.683594 26.679688 10.0625 26.675781 Z M 7.4375 21.171875 C 5.476562 21.382812 4.863281 22.71875 6.554688 24.023438 C 7.605469 24.835938 9.0625 25.085938 10.359375 25.144531 L 10.972656 25.144531 C 13.007812 25.21875 12.050781 23.277344 11.191406 22.449219 C 10.210938 21.507812 8.925781 21.132812 7.59375 21.164062 Z M 7.4375 21.171875 "/><path style=" stroke:none;fill-rule:nonzero;fill:#00b3eb;fill-opacity:1;" d="M 39.546875 26.648438 L 38.070312 26.679688 C 37.65625 26.679688 37.230469 26.707031 36.828125 26.605469 C 35.933594 26.386719 35.332031 25.574219 35.261719 24.664062 C 35.175781 23.554688 35.707031 22.519531 36.414062 21.703125 C 37.515625 20.429688 39.046875 19.726562 40.703125 19.605469 C 41.351562 19.550781 42.128906 19.570312 42.742188 19.765625 C 44.980469 20.484375 45.664062 22.710938 44.210938 24.527344 C 43.136719 25.871094 41.191406 26.460938 39.546875 26.648438 Z M 41.132812 21.148438 C 39.796875 21.210938 38.523438 21.679688 37.609375 22.6875 C 37.164062 23.179688 36.34375 24.640625 37.269531 25.0625 L 37.300781 25.078125 C 37.453125 25.148438 37.65625 25.128906 37.820312 25.128906 L 38.804688 25.125 C 38.933594 25.125 39.085938 25.105469 39.210938 25.125 C 40.457031 24.996094 43.539062 24.199219 43.398438 22.507812 C 43.316406 21.496094 42.003906 21.085938 41.132812 21.148438 Z M 41.132812 21.148438 "/><path style=" stroke:none;fill-rule:nonzero;fill:#00b3eb;fill-opacity:1;" d="M 32.476562 25.125 L 16.964844 25.128906 C 16.785156 25.128906 16.59375 25.144531 16.414062 25.128906 C 15.417969 25.039062 15.386719 23.761719 16.570312 23.570312 L 32.015625 23.570312 C 32.527344 23.570312 33.324219 23.601562 33.359375 24.324219 C 33.382812 24.8125 32.90625 25.097656 32.476562 25.125 Z M 32.476562 25.125 "/><path style=" stroke:none;fill-rule:nonzero;fill:#00b3eb;fill-opacity:1;" d="M 32.855469 29.78125 L 16.085938 29.785156 C 15.230469 29.75 14.96875 28.523438 16.070312 28.25 C 16.335938 28.226562 16.613281 28.242188 16.882812 28.242188 L 32.921875 28.242188 C 33.867188 28.285156 33.96875 29.609375 32.855469 29.78125 Z M 32.855469 29.78125 "/><path style=" stroke:none;fill-rule:nonzero;fill:#00b3eb;fill-opacity:1;" d="M 9.21875 30.730469 C 9 30.75 8.765625 30.734375 8.546875 30.734375 L 6.015625 30.742188 C 5.832031 30.742188 5.625 30.757812 5.441406 30.730469 C 4.578125 30.589844 4.46875 29.28125 5.746094 29.136719 L 9.082031 29.160156 C 10.601562 29.171875 10.515625 30.648438 9.21875 30.730469 Z M 9.21875 30.730469 "/><path style=" stroke:none;fill-rule:nonzero;fill:#00b3eb;fill-opacity:1;" d="M 43.375 30.726562 L 40.878906 30.738281 C 40.476562 30.738281 40.027344 30.777344 39.632812 30.71875 C 38.585938 30.566406 38.488281 29.273438 39.761719 29.160156 L 42.074219 29.15625 C 42.539062 29.15625 43.0625 29.109375 43.519531 29.183594 C 44.636719 29.363281 44.441406 30.675781 43.375 30.726562 Z M 43.375 30.726562 "/></g></svg>