<svg xmlns="http://www.w3.org/2000/svg" xmlns:xlink="http://www.w3.org/1999/xlink" width="62" zoomAndPan="magnify" viewBox="0 0 46.5 30.75" height="41" preserveAspectRatio="xMidYMid meet" version="1.2"><defs><clipPath id="003a52caa4"><path d="M 19 4 L 45.261719 4 L 45.261719 19 L 19 19 Z M 19 4 "/></clipPath><clipPath id="5011d2d6e4"><path d="M 0 0.0390625 L 45.261719 0.0390625 L 45.261719 30.460938 L 0 30.460938 Z M 0 0.0390625 "/></clipPath></defs><g id="45b15aae1b"><path style=" stroke:none;fill-rule:nonzero;fill:#00b3eb;fill-opacity:1;" d="M 18.195312 12.921875 C 18.195312 12.570312 18.160156 12.226562 18.09375 11.886719 C 18.027344 11.542969 17.925781 11.210938 17.792969 10.890625 C 17.660156 10.570312 17.496094 10.261719 17.300781 9.972656 C 17.109375 9.683594 16.886719 9.417969 16.640625 9.171875 C 16.394531 8.921875 16.128906 8.703125 15.839844 8.511719 C 15.550781 8.316406 15.242188 8.152344 14.921875 8.019531 C 14.601562 7.886719 14.269531 7.785156 13.925781 7.71875 C 13.585938 7.652344 13.242188 7.617188 12.890625 7.617188 C 12.542969 7.617188 12.199219 7.652344 11.855469 7.71875 C 11.515625 7.785156 11.183594 7.886719 10.863281 8.019531 C 10.539062 8.152344 10.234375 8.316406 9.945312 8.511719 C 9.65625 8.703125 9.386719 8.921875 9.140625 9.171875 C 8.894531 9.417969 8.675781 9.683594 8.480469 9.972656 C 8.289062 10.261719 8.125 10.570312 7.992188 10.890625 C 7.859375 11.210938 7.757812 11.542969 7.691406 11.886719 C 7.621094 12.226562 7.589844 12.570312 7.589844 12.921875 C 7.589844 13.269531 7.621094 13.613281 7.691406 13.953125 C 7.757812 14.296875 7.859375 14.628906 7.992188 14.949219 C 8.125 15.273438 8.289062 15.578125 8.480469 15.867188 C 8.675781 16.15625 8.894531 16.425781 9.140625 16.671875 C 9.386719 16.917969 9.65625 17.136719 9.945312 17.332031 C 10.234375 17.523438 10.539062 17.6875 10.863281 17.820312 C 11.183594 17.953125 11.515625 18.054688 11.855469 18.121094 C 12.199219 18.191406 12.542969 18.222656 12.890625 18.222656 C 13.242188 18.222656 13.585938 18.191406 13.925781 18.121094 C 14.269531 18.054688 14.601562 17.953125 14.921875 17.820312 C 15.242188 17.6875 15.550781 17.523438 15.839844 17.332031 C 16.128906 17.136719 16.394531 16.917969 16.640625 16.671875 C 16.886719 16.425781 17.109375 16.15625 17.300781 15.867188 C 17.496094 15.578125 17.660156 15.273438 17.792969 14.949219 C 17.925781 14.628906 18.027344 14.296875 18.09375 13.953125 C 18.160156 13.613281 18.195312 13.269531 18.195312 12.921875 Z M 9.105469 12.921875 C 9.105469 12.417969 9.199219 11.933594 9.390625 11.46875 C 9.585938 11.007812 9.859375 10.597656 10.214844 10.242188 C 10.570312 9.886719 10.976562 9.613281 11.441406 9.421875 C 11.90625 9.226562 12.390625 9.132812 12.890625 9.132812 C 13.394531 9.132812 13.878906 9.226562 14.339844 9.421875 C 14.804688 9.613281 15.214844 9.886719 15.570312 10.242188 C 15.925781 10.597656 16.199219 11.007812 16.390625 11.46875 C 16.585938 11.933594 16.679688 12.417969 16.679688 12.921875 C 16.679688 13.421875 16.585938 13.90625 16.390625 14.371094 C 16.199219 14.835938 15.925781 15.242188 15.570312 15.597656 C 15.214844 15.953125 14.804688 16.226562 14.339844 16.421875 C 13.878906 16.613281 13.394531 16.707031 12.890625 16.707031 C 12.390625 16.707031 11.90625 16.613281 11.441406 16.421875 C 10.976562 16.226562 10.570312 15.953125 10.214844 15.597656 C 9.859375 15.242188 9.585938 14.835938 9.390625 14.371094 C 9.199219 13.90625 9.105469 13.421875 9.105469 12.921875 Z M 9.105469 12.921875 "/><g clip-rule="nonzero" clip-path="url(#003a52caa4)"><path style=" stroke:none;fill-rule:nonzero;fill:#00b3eb;fill-opacity:1;" d="M 38.652344 4.585938 L 20.46875 4.585938 C 20.257812 4.585938 20.082031 4.660156 19.933594 4.808594 C 19.785156 4.957031 19.710938 5.132812 19.710938 5.34375 L 19.710938 17.464844 C 19.710938 17.675781 19.785156 17.855469 19.933594 18.003906 C 20.082031 18.148438 20.257812 18.222656 20.46875 18.222656 L 44.714844 18.222656 C 44.921875 18.222656 45.101562 18.148438 45.25 18.003906 C 45.398438 17.855469 45.472656 17.675781 45.472656 17.464844 L 45.472656 11.40625 C 45.472656 10.957031 45.429688 10.515625 45.339844 10.074219 C 45.253906 9.636719 45.125 9.210938 44.953125 8.796875 C 44.78125 8.382812 44.570312 7.988281 44.324219 7.617188 C 44.074219 7.246094 43.792969 6.898438 43.476562 6.582031 C 43.15625 6.265625 42.8125 5.984375 42.441406 5.734375 C 42.070312 5.488281 41.675781 5.277344 41.261719 5.105469 C 40.847656 4.933594 40.421875 4.804688 39.984375 4.71875 C 39.542969 4.628906 39.101562 4.585938 38.652344 4.585938 Z M 43.957031 16.707031 L 21.226562 16.707031 L 21.226562 6.101562 L 38.652344 6.101562 C 39 6.101562 39.347656 6.136719 39.6875 6.203125 C 40.027344 6.269531 40.359375 6.371094 40.683594 6.503906 C 41.003906 6.636719 41.308594 6.800781 41.597656 6.996094 C 41.890625 7.1875 42.15625 7.410156 42.402344 7.65625 C 42.648438 7.902344 42.871094 8.167969 43.0625 8.457031 C 43.257812 8.746094 43.417969 9.054688 43.554688 9.375 C 43.6875 9.695312 43.785156 10.027344 43.855469 10.371094 C 43.921875 10.710938 43.957031 11.058594 43.957031 11.40625 Z M 43.957031 16.707031 "/></g><g clip-rule="nonzero" clip-path="url(#5011d2d6e4)"><path style=" stroke:none;fill-rule:nonzero;fill:#00b3eb;fill-opacity:1;" d="M 44.714844 19.738281 L 6.074219 19.738281 L 6.074219 3.070312 C 6.074219 2.667969 5.996094 2.28125 5.84375 1.910156 C 5.6875 1.539062 5.46875 1.210938 5.183594 0.925781 C 4.902344 0.644531 4.574219 0.425781 4.203125 0.269531 C 3.832031 0.117188 3.445312 0.0390625 3.042969 0.0390625 L 0.769531 0.0390625 C 0.558594 0.0390625 0.382812 0.113281 0.234375 0.261719 C 0.0859375 0.410156 0.0117188 0.589844 0.0117188 0.796875 L 0.0117188 29.589844 C 0.0117188 29.796875 0.0859375 29.976562 0.234375 30.125 C 0.382812 30.273438 0.558594 30.347656 0.769531 30.347656 L 5.316406 30.347656 C 5.523438 30.347656 5.703125 30.273438 5.851562 30.125 C 6 29.976562 6.074219 29.796875 6.074219 29.589844 L 6.074219 25.800781 L 39.410156 25.800781 L 39.410156 29.589844 C 39.410156 29.796875 39.484375 29.976562 39.632812 30.125 C 39.78125 30.273438 39.960938 30.347656 40.167969 30.347656 L 44.714844 30.347656 C 44.921875 30.347656 45.101562 30.273438 45.25 30.125 C 45.398438 29.976562 45.472656 29.796875 45.472656 29.589844 L 45.472656 20.496094 C 45.472656 20.289062 45.398438 20.109375 45.25 19.960938 C 45.101562 19.8125 44.921875 19.738281 44.714844 19.738281 Z M 43.957031 28.832031 L 40.925781 28.832031 L 40.925781 25.042969 C 40.925781 24.832031 40.851562 24.65625 40.703125 24.507812 C 40.554688 24.359375 40.378906 24.285156 40.167969 24.285156 L 5.316406 24.285156 C 5.105469 24.285156 4.925781 24.359375 4.78125 24.507812 C 4.632812 24.65625 4.558594 24.832031 4.558594 25.042969 L 4.558594 28.832031 L 1.527344 28.832031 L 1.527344 1.554688 L 3.042969 1.554688 C 3.242188 1.554688 3.4375 1.59375 3.621094 1.671875 C 3.808594 1.746094 3.972656 1.855469 4.113281 2 C 4.257812 2.140625 4.367188 2.304688 4.441406 2.492188 C 4.519531 2.675781 4.558594 2.871094 4.558594 3.070312 L 4.558594 20.496094 C 4.558594 20.707031 4.632812 20.886719 4.78125 21.03125 C 4.925781 21.179688 5.105469 21.253906 5.316406 21.253906 L 43.957031 21.253906 Z M 43.957031 28.832031 "/></g></g></svg>