<svg xmlns="http://www.w3.org/2000/svg" xmlns:xlink="http://www.w3.org/1999/xlink" width="73" zoomAndPan="magnify" viewBox="0 0 54.75 56.249996" height="75" preserveAspectRatio="xMidYMid meet" version="1.2"><defs><clipPath id="d018f46175"><path d="M 0.238281 0 L 53.527344 0 L 53.527344 55.511719 L 0.238281 55.511719 Z M 0.238281 0 "/></clipPath></defs><g id="ee2f7e597e"><g clip-rule="nonzero" clip-path="url(#d018f46175)"><path style=" stroke:none;fill-rule:nonzero;fill:#2995fc;fill-opacity:1;" d="M 23.246094 26.667969 C 24.152344 26.667969 25.042969 26.398438 25.800781 25.894531 C 26.554688 25.390625 27.144531 24.675781 27.492188 23.839844 C 27.839844 23.003906 27.929688 22.082031 27.753906 21.195312 C 27.578125 20.308594 27.136719 19.492188 26.496094 18.851562 C 25.851562 18.210938 25.035156 17.773438 24.140625 17.597656 C 23.25 17.421875 22.324219 17.511719 21.484375 17.859375 C 20.644531 18.207031 19.925781 18.792969 19.421875 19.542969 C 18.917969 20.296875 18.648438 21.183594 18.648438 22.089844 C 18.648438 23.300781 19.132812 24.464844 19.992188 25.324219 C 20.855469 26.183594 22.023438 26.664062 23.246094 26.667969 Z M 23.246094 19.339844 C 23.789062 19.339844 24.324219 19.503906 24.777344 19.804688 C 25.230469 20.105469 25.585938 20.535156 25.792969 21.035156 C 26 21.539062 26.054688 22.089844 25.949219 22.625 C 25.84375 23.15625 25.582031 23.644531 25.195312 24.03125 C 24.808594 24.414062 24.316406 24.675781 23.78125 24.78125 C 23.246094 24.886719 22.691406 24.832031 22.1875 24.625 C 21.683594 24.417969 21.253906 24.066406 20.949219 23.613281 C 20.648438 23.164062 20.484375 22.632812 20.484375 22.089844 C 20.484375 21.726562 20.554688 21.371094 20.695312 21.035156 C 20.832031 20.703125 21.035156 20.398438 21.292969 20.144531 C 21.550781 19.890625 21.851562 19.6875 22.1875 19.550781 C 22.523438 19.410156 22.882812 19.339844 23.246094 19.339844 Z M 23.246094 33.992188 C 22.335938 33.992188 21.445312 34.257812 20.691406 34.761719 C 19.933594 35.265625 19.34375 35.980469 18.996094 36.816406 C 18.648438 37.652344 18.558594 38.574219 18.734375 39.460938 C 18.914062 40.351562 19.351562 41.164062 19.992188 41.804688 C 20.636719 42.445312 21.457031 42.882812 22.347656 43.058594 C 23.238281 43.234375 24.164062 43.144531 25.003906 42.796875 C 25.84375 42.453125 26.5625 41.863281 27.066406 41.113281 C 27.574219 40.359375 27.84375 39.472656 27.84375 38.570312 C 27.839844 37.355469 27.355469 36.191406 26.496094 35.332031 C 25.632812 34.472656 24.464844 33.992188 23.246094 33.992188 Z M 23.246094 41.316406 C 22.699219 41.316406 22.164062 41.152344 21.710938 40.851562 C 21.257812 40.550781 20.90625 40.121094 20.695312 39.621094 C 20.488281 39.117188 20.433594 38.566406 20.539062 38.03125 C 20.644531 37.5 20.90625 37.011719 21.292969 36.625 C 21.679688 36.242188 22.171875 35.980469 22.707031 35.875 C 23.242188 35.769531 23.796875 35.824219 24.300781 36.03125 C 24.804688 36.238281 25.234375 36.589844 25.539062 37.042969 C 25.839844 37.496094 26.003906 38.023438 26.003906 38.570312 C 26.003906 38.929688 25.933594 39.285156 25.792969 39.621094 C 25.65625 39.953125 25.453125 40.257812 25.195312 40.511719 C 24.941406 40.765625 24.636719 40.96875 24.300781 41.105469 C 23.964844 41.246094 23.605469 41.316406 23.246094 41.316406 Z M 53.46875 7.914062 C 53.707031 6.851562 53.679688 5.746094 53.390625 4.695312 C 53.101562 3.644531 52.5625 2.679688 51.816406 1.882812 C 51.015625 1.136719 50.042969 0.597656 48.988281 0.3125 C 47.933594 0.0234375 46.824219 -0.00390625 45.753906 0.234375 C 43.265625 0.710938 40.984375 1.941406 39.226562 3.757812 C 38.148438 4.824219 37.265625 6.070312 36.613281 7.4375 L 25.691406 7.4375 C 25.085938 7.4375 24.488281 7.554688 23.929688 7.785156 C 23.371094 8.015625 22.863281 8.351562 22.433594 8.777344 L 1.828125 29.304688 C 1.328125 29.796875 0.933594 30.386719 0.664062 31.03125 C 0.394531 31.679688 0.257812 32.375 0.257812 33.074219 C 0.257812 33.777344 0.394531 34.46875 0.664062 35.117188 C 0.933594 35.765625 1.328125 36.351562 1.828125 36.847656 L 16.699219 51.652344 C 17.195312 52.148438 17.785156 52.542969 18.433594 52.8125 C 19.085938 53.078125 19.78125 53.21875 20.484375 53.21875 C 21.191406 53.21875 21.886719 53.078125 22.535156 52.8125 C 23.1875 52.542969 23.777344 52.148438 24.273438 51.652344 L 24.402344 51.523438 L 28 54.070312 C 29.160156 54.882812 30.597656 55.207031 32 54.976562 C 32.695312 54.863281 33.359375 54.609375 33.957031 54.234375 C 34.554688 53.863281 35.070312 53.371094 35.472656 52.796875 L 50.832031 31.226562 C 51.535156 30.234375 51.816406 29.007812 51.613281 27.8125 L 49.394531 14.902344 C 49.570312 14.746094 49.753906 14.589844 49.929688 14.414062 C 51.753906 12.664062 52.988281 10.394531 53.46875 7.914062 Z M 37.339844 16.292969 C 37.425781 16.378906 37.527344 16.445312 37.640625 16.492188 C 37.753906 16.535156 37.871094 16.558594 37.992188 16.558594 C 38.113281 16.558594 38.234375 16.535156 38.34375 16.492188 C 38.453125 16.445312 38.554688 16.378906 38.636719 16.292969 C 38.722656 16.207031 38.789062 16.105469 38.835938 15.996094 C 38.882812 15.886719 38.90625 15.765625 38.90625 15.648438 C 38.90625 15.527344 38.882812 15.410156 38.835938 15.296875 C 38.789062 15.1875 38.722656 15.085938 38.636719 15 C 38.089844 14.441406 37.707031 13.742188 37.535156 12.976562 C 37.671875 12.949219 37.816406 12.933594 37.957031 12.933594 C 38.503906 12.933594 39.035156 13.09375 39.488281 13.394531 C 39.941406 13.695312 40.296875 14.125 40.503906 14.628906 C 40.714844 15.128906 40.769531 15.683594 40.664062 16.214844 C 40.554688 16.746094 40.292969 17.238281 39.90625 17.621094 C 39.523438 18.003906 39.03125 18.265625 38.496094 18.375 C 37.960938 18.480469 37.40625 18.425781 36.902344 18.214844 C 36.398438 18.007812 35.964844 17.65625 35.664062 17.207031 C 35.359375 16.753906 35.199219 16.222656 35.199219 15.679688 C 35.199219 15.011719 35.449219 14.363281 35.898438 13.867188 C 36.171875 14.78125 36.667969 15.613281 37.339844 16.292969 Z M 44.394531 27.894531 C 44.394531 28.253906 44.320312 28.609375 44.183594 28.945312 C 44.042969 29.277344 43.839844 29.578125 43.585938 29.835938 L 22.976562 50.359375 C 22.308594 51 21.414062 51.355469 20.484375 51.355469 C 19.558594 51.355469 18.664062 51 17.992188 50.359375 L 3.125 35.554688 C 2.464844 34.898438 2.09375 34.003906 2.09375 33.074219 C 2.09375 32.144531 2.464844 31.253906 3.125 30.59375 L 23.742188 10.074219 C 23.996094 9.820312 24.300781 9.617188 24.636719 9.480469 C 24.96875 9.339844 25.328125 9.269531 25.691406 9.269531 L 35.925781 9.269531 C 35.703125 10.085938 35.585938 10.929688 35.585938 11.777344 C 34.644531 12.355469 33.945312 13.253906 33.621094 14.300781 C 33.292969 15.351562 33.355469 16.484375 33.804688 17.492188 C 34.25 18.496094 35.046875 19.308594 36.046875 19.773438 C 37.046875 20.238281 38.183594 20.328125 39.246094 20.027344 C 40.304688 19.722656 41.222656 19.046875 41.820312 18.125 C 42.421875 17.203125 42.664062 16.09375 42.507812 15.003906 C 42.351562 13.917969 41.804688 12.921875 40.96875 12.203125 C 40.128906 11.488281 39.0625 11.09375 37.957031 11.101562 C 37.777344 11.109375 37.59375 11.128906 37.414062 11.15625 C 37.476562 10.511719 37.613281 9.878906 37.828125 9.269531 L 41.636719 9.269531 C 42.367188 9.273438 43.066406 9.5625 43.582031 10.078125 C 44.101562 10.589844 44.390625 11.289062 44.394531 12.015625 Z M 49.019531 12.710938 L 48.925781 12.164062 C 48.738281 11.101562 48.183594 10.140625 47.351562 9.449219 C 46.523438 8.757812 45.476562 8.378906 44.394531 8.382812 C 43.605469 7.773438 42.632812 7.441406 41.636719 7.4375 L 38.675781 7.4375 C 39.1875 6.566406 39.808594 5.765625 40.523438 5.050781 C 42.015625 3.507812 43.945312 2.457031 46.058594 2.046875 C 46.835938 1.863281 47.648438 1.867188 48.425781 2.066406 C 49.199219 2.265625 49.914062 2.648438 50.507812 3.179688 C 51.046875 3.773438 51.429688 4.484375 51.628906 5.257812 C 51.828125 6.027344 51.835938 6.835938 51.648438 7.613281 C 51.277344 9.527344 50.367188 11.296875 49.019531 12.710938 Z M 36.117188 30.328125 C 36.117188 30.449219 36.09375 30.566406 36.046875 30.679688 C 36.003906 30.789062 35.933594 30.890625 35.847656 30.976562 C 35.761719 31.0625 35.660156 31.128906 35.550781 31.175781 C 35.4375 31.21875 35.320312 31.242188 35.199219 31.242188 L 11.289062 31.242188 C 11.046875 31.242188 10.8125 31.148438 10.640625 30.976562 C 10.46875 30.804688 10.371094 30.570312 10.371094 30.328125 C 10.371094 30.085938 10.46875 29.851562 10.640625 29.679688 C 10.8125 29.507812 11.046875 29.414062 11.289062 29.414062 L 35.199219 29.414062 C 35.320312 29.414062 35.4375 29.4375 35.550781 29.484375 C 35.660156 29.527344 35.761719 29.597656 35.847656 29.679688 C 35.933594 29.765625 36.003906 29.867188 36.046875 29.976562 C 36.09375 30.089844 36.117188 30.207031 36.117188 30.328125 Z M 36.117188 30.328125 "/></g></g></svg>