<svg xmlns="http://www.w3.org/2000/svg" xmlns:xlink="http://www.w3.org/1999/xlink" width="44" zoomAndPan="magnify" viewBox="0 0 33 60.75" height="81" preserveAspectRatio="xMidYMid meet" version="1.2"><defs><clipPath id="21f63ad3b8"><path d="M 0.0664062 0 L 32.183594 0 L 32.183594 59.753906 L 0.0664062 59.753906 Z M 0.0664062 0 "/></clipPath></defs><g id="040c483d52"><g clip-rule="nonzero" clip-path="url(#21f63ad3b8)"><path style=" stroke:none;fill-rule:nonzero;fill:#2995fc;fill-opacity:1;" d="M 30.558594 54.726562 C 30.558594 56.527344 29.09375 57.996094 27.289062 57.996094 L 5.136719 57.996094 C 3.335938 57.996094 1.867188 56.527344 1.867188 54.726562 L 1.867188 5.0625 C 1.867188 3.261719 3.335938 1.792969 5.136719 1.792969 L 7.648438 1.792969 L 8.132812 2.988281 C 8.484375 3.847656 9.3125 4.40625 10.242188 4.40625 L 22.183594 4.40625 C 23.117188 4.40625 23.945312 3.847656 24.296875 2.988281 L 24.78125 1.792969 L 27.289062 1.792969 C 29.09375 1.792969 30.558594 3.261719 30.558594 5.0625 Z M 27.289062 0 L 5.136719 0 C 2.347656 0 0.0742188 2.273438 0.0742188 5.0625 L 0.0742188 54.726562 C 0.0742188 57.519531 2.347656 59.789062 5.136719 59.789062 L 27.289062 59.789062 C 30.082031 59.789062 32.355469 57.519531 32.355469 54.726562 L 32.355469 5.0625 C 32.355469 2.273438 30.082031 0 27.289062 0 "/></g><path style=" stroke:none;fill-rule:nonzero;fill:#2995fc;fill-opacity:1;" d="M 16.214844 24.722656 C 18.039062 24.722656 19.523438 26.207031 19.523438 28.03125 C 19.523438 29.855469 18.039062 31.339844 16.214844 31.339844 C 14.390625 31.339844 12.902344 29.855469 12.902344 28.03125 C 12.902344 26.207031 14.390625 24.722656 16.214844 24.722656 Z M 16.214844 19.5625 C 11.378906 19.5625 7.441406 23.5 7.441406 28.335938 C 7.441406 31.109375 8.855469 33.941406 11.640625 36.75 C 13.660156 38.789062 15.65625 40.039062 15.742188 40.089844 C 16.03125 40.269531 16.398438 40.269531 16.6875 40.089844 C 16.769531 40.039062 18.769531 38.789062 20.789062 36.75 C 23.574219 33.941406 24.988281 31.109375 24.988281 28.335938 C 24.988281 23.5 21.050781 19.5625 16.214844 19.5625 "/></g></svg>