<svg xmlns="http://www.w3.org/2000/svg" xmlns:xlink="http://www.w3.org/1999/xlink" width="64" zoomAndPan="magnify" viewBox="0 0 48 48" height="64" preserveAspectRatio="xMidYMid meet" version="1.2"><defs><clipPath id="1c9ffa2505"><path d="M 0.488281 21 L 47.507812 21 L 47.507812 47 L 0.488281 47 Z M 0.488281 21 "/></clipPath><clipPath id="9a684691fd"><path d="M 0.488281 0 L 46 0 L 46 25 L 0.488281 25 Z M 0.488281 0 "/></clipPath><clipPath id="63f0b693e9"><path d="M 12.214844 10 L 35.726562 10 L 35.726562 36.4375 L 12.214844 36.4375 Z M 12.214844 10 "/></clipPath></defs><g id="69478a0ad1"><g clip-rule="nonzero" clip-path="url(#1c9ffa2505)"><path style=" stroke:none;fill-rule:nonzero;fill:#2995fc;fill-opacity:1;" d="M 45.707031 21.832031 C 44.851562 21.832031 44.15625 22.527344 44.15625 23.382812 C 44.152344 34.566406 35.054688 43.664062 23.875 43.664062 C 23.871094 43.664062 23.871094 43.664062 23.871094 43.664062 C 16.75 43.664062 10.265625 40 6.585938 34 L 9.914062 34 C 10.769531 34 11.464844 33.304688 11.464844 32.449219 C 11.464844 31.589844 10.769531 30.898438 9.914062 30.898438 L 2.449219 30.898438 C 2.039062 30.898438 1.644531 31.0625 1.355469 31.351562 C 1.0625 31.640625 0.898438 32.035156 0.898438 32.449219 L 0.898438 39.910156 C 0.898438 40.765625 1.59375 41.460938 2.449219 41.460938 C 3.308594 41.460938 4 40.765625 4 39.910156 L 4 35.71875 C 5.890625 38.753906 8.457031 41.332031 11.507812 43.234375 C 13.324219 44.367188 15.285156 45.246094 17.335938 45.839844 C 19.449219 46.457031 21.648438 46.769531 23.871094 46.769531 C 23.871094 46.769531 23.871094 46.769531 23.875 46.769531 C 27.03125 46.769531 30.09375 46.148438 32.976562 44.929688 C 34.363281 44.34375 35.699219 43.617188 36.949219 42.773438 C 38.1875 41.9375 39.351562 40.976562 40.40625 39.917969 C 41.464844 38.863281 42.425781 37.699219 43.261719 36.460938 C 44.105469 35.210938 44.832031 33.871094 45.417969 32.488281 C 46.636719 29.601562 47.257812 26.539062 47.257812 23.382812 C 47.257812 22.527344 46.5625 21.832031 45.707031 21.832031 Z M 45.707031 21.832031 "/></g><g clip-rule="nonzero" clip-path="url(#9a684691fd)"><path style=" stroke:none;fill-rule:nonzero;fill:#2995fc;fill-opacity:1;" d="M 2.042969 24.9375 C 2.898438 24.933594 3.59375 24.242188 3.59375 23.382812 C 3.589844 17.96875 5.699219 12.875 9.53125 9.042969 C 13.363281 5.214844 18.457031 3.101562 23.875 3.101562 C 30.734375 3.101562 37.007812 6.507812 40.746094 12.125 L 36.582031 12.125 C 35.726562 12.125 35.03125 12.820312 35.03125 13.675781 C 35.03125 14.535156 35.726562 15.226562 36.582031 15.226562 C 36.582031 15.226562 36.585938 15.226562 36.585938 15.226562 L 44.414062 15.226562 C 45.269531 15.226562 45.964844 14.53125 45.964844 13.675781 L 45.964844 5.847656 C 45.964844 4.992188 45.269531 4.296875 44.414062 4.296875 C 43.558594 4.296875 42.863281 4.992188 42.863281 5.847656 L 42.863281 9.738281 C 41.085938 7.269531 38.839844 5.160156 36.238281 3.535156 C 34.421875 2.402344 32.464844 1.523438 30.414062 0.929688 C 28.296875 0.3125 26.097656 0 23.875 0 C 20.71875 0 17.652344 0.621094 14.769531 1.839844 C 13.382812 2.425781 12.046875 3.152344 10.796875 3.996094 C 9.558594 4.832031 8.394531 5.792969 7.339844 6.851562 C 6.28125 7.90625 5.320312 9.070312 4.484375 10.308594 C 3.640625 11.558594 2.914062 12.894531 2.328125 14.28125 C 1.109375 17.167969 0.488281 20.230469 0.492188 23.386719 C 0.492188 24.242188 1.183594 24.9375 2.042969 24.9375 Z M 2.042969 24.9375 "/></g><g clip-rule="nonzero" clip-path="url(#63f0b693e9)"><path style=" stroke:none;fill-rule:nonzero;fill:#2995fc;fill-opacity:1;" d="M 12.289062 15.761719 C 12.289062 14.730469 12.535156 13.773438 13.019531 12.890625 C 13.519531 11.996094 14.199219 11.292969 15.058594 10.785156 C 15.917969 10.261719 16.84375 10 17.84375 10 C 18.632812 10 19.371094 10.15625 20.054688 10.46875 C 20.738281 10.785156 21.34375 11.207031 21.828125 11.742188 C 22.328125 12.261719 22.71875 12.871094 22.996094 13.570312 C 23.273438 14.265625 23.414062 14.996094 23.414062 15.761719 C 23.414062 16.785156 23.167969 17.742188 22.683594 18.632812 C 22.195312 19.527344 21.523438 20.242188 20.664062 20.773438 C 19.804688 21.308594 18.863281 21.574219 17.84375 21.574219 C 16.796875 21.574219 15.847656 21.308594 14.988281 20.773438 C 14.128906 20.242188 13.480469 19.527344 13.003906 18.632812 C 12.527344 17.742188 12.289062 16.773438 12.289062 15.761719 Z M 16.539062 32.089844 L 28.042969 11.878906 C 28.414062 11.242188 28.761719 10.773438 29.089844 10.46875 C 29.414062 10.15625 29.800781 10 30.253906 10 C 30.636719 10 30.992188 10.09375 31.316406 10.277344 C 31.640625 10.464844 31.894531 10.695312 32.082031 11.011719 C 32.269531 11.3125 32.359375 11.636719 32.359375 11.984375 C 32.359375 12.414062 32.269531 12.820312 32.082031 13.203125 C 31.894531 13.585938 31.617188 14.0625 31.246094 14.664062 L 19.742188 34.875 C 19.402344 35.488281 19.066406 35.960938 18.730469 36.285156 C 18.394531 36.609375 17.992188 36.773438 17.53125 36.773438 C 16.9375 36.773438 16.4375 36.574219 16.03125 36.179688 C 15.625 35.785156 15.421875 35.316406 15.421875 34.769531 C 15.421875 34.339844 15.511719 33.945312 15.683594 33.585938 C 15.859375 33.226562 16.15625 32.726562 16.539062 32.089844 Z M 16.347656 15.761719 C 16.347656 16.25 16.480469 16.660156 16.746094 16.996094 C 17.011719 17.335938 17.390625 17.484375 17.84375 17.484375 C 18.308594 17.484375 18.671875 17.324219 18.941406 16.996094 C 19.207031 16.671875 19.339844 16.25 19.339844 15.761719 C 19.339844 15.273438 19.207031 14.890625 18.941406 14.578125 C 18.671875 14.265625 18.308594 14.089844 17.84375 14.089844 C 17.390625 14.089844 17.023438 14.253906 16.746094 14.578125 C 16.46875 14.902344 16.347656 15.285156 16.347656 15.761719 Z M 28.445312 30.992188 C 28.445312 31.445312 28.578125 31.839844 28.84375 32.175781 C 29.109375 32.511719 29.488281 32.664062 29.941406 32.664062 C 30.394531 32.664062 30.753906 32.5 31.019531 32.175781 C 31.289062 31.851562 31.4375 31.445312 31.4375 30.992188 C 31.4375 30.515625 31.296875 30.117188 31.019531 29.792969 C 30.742188 29.46875 30.394531 29.289062 29.941406 29.289062 C 29.488281 29.289062 29.121094 29.457031 28.84375 29.792969 C 28.566406 30.128906 28.445312 30.515625 28.445312 30.992188 Z M 24.371094 30.992188 C 24.371094 29.949219 24.613281 28.984375 25.101562 28.105469 C 25.601562 27.210938 26.273438 26.503906 27.121094 25.980469 C 27.96875 25.457031 28.917969 25.179688 29.941406 25.179688 C 30.960938 25.179688 31.894531 25.445312 32.742188 25.980469 C 33.589844 26.515625 34.257812 27.226562 34.746094 28.121094 C 35.246094 29.003906 35.492188 29.960938 35.492188 30.992188 C 35.492188 32.015625 35.246094 32.964844 34.746094 33.847656 C 34.257812 34.730469 33.589844 35.4375 32.742188 35.972656 C 31.894531 36.503906 30.960938 36.773438 29.941406 36.773438 C 28.886719 36.773438 27.925781 36.511719 27.070312 35.988281 C 26.210938 35.464844 25.558594 34.742188 25.085938 33.847656 C 24.609375 32.953125 24.371094 32.003906 24.371094 30.992188 Z M 24.371094 30.992188 "/></g></g></svg>