<svg xmlns="http://www.w3.org/2000/svg" xmlns:xlink="http://www.w3.org/1999/xlink" width="82" zoomAndPan="magnify" viewBox="0 0 61.5 47.25" height="63" preserveAspectRatio="xMidYMid meet" version="1.2"><defs><clipPath id="d5abdc1314"><path d="M 1 19 L 60.035156 19 L 60.035156 45.773438 L 1 45.773438 Z M 1 19 "/></clipPath></defs><g id="ed835010c5"><path style=" stroke:none;fill-rule:nonzero;fill:#2995fc;fill-opacity:1;" d="M 24.019531 0.996094 C 22.253906 1.511719 19.507812 4.042969 18.96875 5.652344 C 18.910156 5.832031 18.285156 5.546875 17.351562 4.917969 C 15.363281 3.570312 14.191406 3.214844 12.183594 3.34375 C 9.542969 3.511719 8.203125 4.820312 8.011719 7.417969 C 7.660156 12.257812 14.765625 18.984375 20.910156 18.984375 C 22.882812 18.984375 23.503906 18.492188 25.566406 15.308594 C 29.066406 9.894531 30.09375 7.554688 30.085938 5.019531 C 30.078125 1.738281 27.449219 -0.00390625 24.019531 0.996094 Z M 27.128906 3.789062 C 28.152344 4.910156 27.121094 7.832031 23.894531 12.976562 C 22.898438 14.570312 21.90625 16.015625 21.691406 16.191406 C 21.144531 16.640625 18.875 16.132812 16.71875 15.078125 C 13.78125 13.640625 10.558594 9.796875 10.546875 7.710938 C 10.546875 7.394531 10.839844 6.828125 11.183594 6.484375 C 12.324219 5.34375 14.195312 5.789062 16.769531 7.804688 C 18.96875 9.527344 20.179688 9.277344 21.15625 6.902344 C 22.285156 4.160156 25.800781 2.328125 27.132812 3.789062 Z M 27.128906 3.789062 "/><g clip-rule="nonzero" clip-path="url(#d5abdc1314)"><path style=" stroke:none;fill-rule:nonzero;fill:#2995fc;fill-opacity:1;" d="M 48.679688 19.875 C 48.207031 20.226562 48.105469 20.546875 48.105469 21.699219 C 48.105469 23.402344 48.300781 23.375 42.859375 22.414062 C 32.34375 20.550781 28.085938 22.773438 19.78125 23.359375 C 15.59375 23.65625 14.746094 24.117188 14.277344 26.378906 C 13.507812 30.074219 18.65625 32.394531 26.8125 32.027344 C 29.632812 31.902344 30.59375 32.089844 29.289062 32.503906 C 28.589844 32.730469 17.574219 32.804688 16.082031 32.824219 C 7.867188 29.480469 3.027344 27.316406 1.421875 30.691406 C 0.269531 33.113281 2.511719 36.222656 7.117188 38.59375 C 10.007812 40.082031 14.980469 41.882812 19.34375 43.015625 C 30.519531 45.917969 34.964844 44.929688 47.859375 42.132812 C 49.363281 43.703125 50.117188 44.945312 55.089844 45.007812 C 57.78125 45.039062 58.65625 44.765625 59.515625 43.601562 C 60.039062 42.898438 60.066406 42.523438 60.140625 34.683594 C 60.230469 25.449219 60.011719 22.125 59.246094 21.085938 C 58.335938 19.847656 57.5625 19.652344 53.25 19.542969 C 49.871094 19.460938 49.167969 19.511719 48.683594 19.875 Z M 57.371094 41.863281 C 57.136719 42.300781 56.851562 42.378906 55.453125 42.378906 C 53.371094 42.378906 51.324219 41.949219 50.882812 41.421875 C 50.628906 41.117188 50.546875 38.921875 50.527344 31.671875 L 50.503906 22.3125 C 56.789062 22.3125 56.839844 22.21875 57.09375 22.902344 C 57.40625 22.902344 57.726562 41.203125 57.371094 41.863281 Z M 42.324219 24.878906 C 45.875 25.449219 46.996094 25.570312 48.179688 25.71875 C 48.117188 28.070312 47.933594 39.085938 47.566406 39.3125 C 46.382812 40.046875 34.140625 42.136719 31.027344 42.136719 C 23.066406 42.136719 8.398438 37.492188 5.039062 33.902344 C 0.679688 29.25 9.144531 32.933594 15.566406 35.496094 C 26.0625 35.351562 29.585938 35.359375 30.476562 34.917969 C 32.234375 34.054688 32.796875 30.546875 36.664062 30.546875 C 38.257812 30.546875 39.484375 30.933594 40.464844 31.742188 C 41.675781 32.746094 42.71875 32.433594 42.71875 31.0625 C 42.71875 29.132812 37.890625 27.433594 34.730469 28.25 C 31.082031 29.195312 22.195312 30.191406 18.070312 28.21875 C 17.113281 27.761719 16.957031 27.574219 17.027344 26.992188 C 17.183594 25.753906 18.410156 26.613281 28.042969 25.046875 C 30.246094 24.6875 32.386719 24.34375 32.820312 24.28125 C 35.144531 23.933594 42.878906 24.878906 42.324219 24.878906 Z M 42.324219 24.878906 "/></g></g></svg>