<svg xmlns="http://www.w3.org/2000/svg" xmlns:xlink="http://www.w3.org/1999/xlink" width="64" zoomAndPan="magnify" viewBox="0 0 48 54" height="72" preserveAspectRatio="xMidYMid meet" version="1.2"><defs><clipPath id="0af0be903e"><path d="M 0.4375 0 L 47 0 L 47 52 L 0.4375 52 Z M 0.4375 0 "/></clipPath></defs><g id="1d8aedf704"><g clip-rule="nonzero" clip-path="url(#0af0be903e)"><path style=" stroke:none;fill-rule:nonzero;fill:#2995fc;fill-opacity:1;" d="M 21.066406 0.695312 C 19.402344 1.453125 19.164062 1.902344 19.199219 4.171875 C 19.234375 6.109375 19.214844 6.164062 18.539062 6.308594 C 14.097656 7.265625 10.691406 9.789062 10.492188 9.589844 C 10.464844 9.558594 10.0625 8.894531 9.589844 8.09375 C 8.738281 6.648438 8.738281 6.648438 9.246094 5.925781 C 10.886719 3.570312 9.539062 1 6.652344 1 C 5 1 2.871094 2.203125 1.949219 3.65625 C 0.0390625 6.671875 1.777344 9.039062 5.722656 8.789062 C 7.175781 8.699219 6.945312 8.632812 8.429688 11.367188 L 6.984375 12.835938 C -3.753906 23.746094 -0.308594 44.050781 15.519531 50.34375 C 28.871094 55.652344 45.085938 47.355469 46.523438 30.910156 C 47.039062 25.003906 44.582031 17.910156 40.460938 13.402344 L 39.140625 11.957031 L 41.125 9.714844 L 42.390625 10 C 44.609375 10.503906 46.128906 9.347656 46.128906 7.160156 C 46.128906 5.09375 43.421875 2.8125 40.921875 2.773438 C 39.734375 2.753906 39.488281 2.855469 38.792969 3.628906 C 37.867188 4.660156 37.769531 5.589844 38.421875 7.214844 C 38.859375 8.296875 38.859375 8.296875 38.089844 9.226562 C 37.171875 10.332031 37.085938 10.355469 36.152344 9.695312 C 33.984375 8.167969 28.738281 6.128906 26.96875 6.128906 C 26.378906 6.128906 26.347656 6.027344 26.347656 4.09375 C 26.347656 1.953125 25.921875 0.652344 25.113281 0.34375 C 24.261719 0.015625 22.148438 0.199219 21.0625 0.695312 Z M 23.59375 4.3125 C 23.503906 5.949219 23.550781 5.742188 21.761719 5.898438 C 21.761719 3.296875 21.628906 2.964844 23.054688 2.90625 C 23.632812 2.882812 23.667969 2.96875 23.59375 4.3125 Z M 6.417969 5.113281 C 5.835938 5.9375 5.527344 6.128906 4.792969 6.128906 C 3.453125 6.128906 3.660156 5.191406 5.234375 4.148438 C 5.902344 3.703125 7.140625 3.550781 7.140625 3.914062 C 7.191406 3.910156 6.878906 4.460938 6.417969 5.113281 Z M 42.054688 5.734375 C 42.75 6.101562 43.589844 7.140625 43.367188 7.359375 C 43.191406 7.535156 41.144531 6.699219 40.929688 6.363281 C 40.617188 5.871094 40.652344 5.332031 40.992188 5.332031 C 41.246094 5.332031 42.082031 5.734375 42.054688 5.734375 Z M 28.359375 9.273438 C 40.855469 12.617188 47.238281 26.691406 41.652344 37.949219 C 33.140625 55.113281 8.761719 51.644531 4.109375 33.230469 C 3.625 31.300781 3.554688 30.417969 3.679688 27.6875 C 4.128906 17.945312 10.636719 10.609375 20.34375 8.835938 C 23.261719 8.300781 28.925781 9.273438 28.359375 9.273438 Z M 28.359375 9.273438 "/></g><path style=" stroke:none;fill-rule:nonzero;fill:#2995fc;fill-opacity:1;" d="M 8.046875 21.421875 C 6.855469 23.894531 5.875 28.070312 6.296875 28.847656 C 6.648438 29.492188 7.976562 29.636719 8.441406 29.078125 C 8.902344 28.523438 9.5 24.589844 10.652344 22.21875 C 11.621094 20.234375 14.082031 17.257812 15.984375 15.769531 C 17.480469 14.601562 17.820312 14.042969 17.550781 13.195312 C 16.695312 10.507812 10.175781 16.992188 8.046875 21.421875 Z M 8.046875 21.421875 "/><path style=" stroke:none;fill-rule:nonzero;fill:#2995fc;fill-opacity:1;" d="M 32.320312 15.605469 C 30.808594 17.117188 32.722656 16.398438 35.25 21.265625 C 36.578125 23.820312 36.980469 24.28125 37.875 24.28125 C 41.046875 24.28125 35.367188 15.75 33.46875 15.21875 C 32.753906 15.019531 32.367188 15.605469 32.320312 15.605469 Z M 32.320312 15.605469 "/><path style=" stroke:none;fill-rule:nonzero;fill:#2995fc;fill-opacity:1;" d="M 22.300781 20.355469 C 22.300781 25.273438 22.308594 23.230469 20.394531 25.226562 C 19.617188 26.035156 19.476562 26.386719 19.375 27.726562 C 19.277344 29.042969 19.363281 29.433594 19.910156 30.242188 C 20.953125 31.777344 22.378906 32.453125 24.3125 32.328125 C 25.214844 32.273438 26.121094 32.148438 26.351562 32.046875 C 26.621094 31.925781 28.285156 33.066406 31.222656 35.390625 C 35.683594 38.914062 36.59375 39.386719 37.386719 38.59375 C 37.566406 38.414062 37.722656 37.976562 37.722656 37.640625 C 37.722656 36.785156 35.824219 35.359375 28.953125 29.984375 C 28.910156 26.988281 29.003906 26.660156 28.128906 25.511719 C 27.222656 24.316406 25.839844 23.824219 25.007812 23.457031 C 25.007812 22.386719 25.082031 16.527344 24.730469 15.878906 C 24.285156 15.054688 22.894531 15.15625 22.5625 16.03125 C 22.636719 16.03125 22.300781 16.140625 22.300781 20.355469 Z M 26.351562 28 C 26.351562 28.664062 25.0625 29.699219 24.234375 29.699219 C 23.28125 29.699219 22.019531 28.761719 22.019531 28.050781 C 22.019531 26.554688 24.492188 25.890625 25.730469 27.054688 C 25.777344 27.054688 26.351562 27.707031 26.351562 27.996094 Z M 26.351562 28 "/><path style=" stroke:none;fill-rule:nonzero;fill:#2995fc;fill-opacity:1;" d="M 38.542969 27.507812 C 38.15625 28.226562 38.179688 31.136719 38.570312 31.527344 C 39.03125 31.984375 39.757812 31.945312 40.273438 31.433594 C 40.789062 30.921875 40.867188 27.816406 40.375 27.324219 C 39.863281 26.8125 38.859375 26.914062 38.542969 27.507812 Z M 38.542969 27.507812 "/><path style=" stroke:none;fill-rule:nonzero;fill:#2995fc;fill-opacity:1;" d="M 8.828125 37.433594 C 9.628906 38.75 10.164062 39.339844 10.597656 39.402344 C 11.371094 39.507812 12.015625 39 12.015625 38.285156 C 12.015625 37.691406 9.992188 34.050781 9.464844 33.695312 C 9.023438 33.398438 8.359375 33.457031 7.992188 33.824219 C 8.152344 33.824219 6.792969 34.105469 8.828125 37.433594 Z M 8.828125 37.433594 "/><path style=" stroke:none;fill-rule:nonzero;fill:#2995fc;fill-opacity:1;" d="M 16.058594 42.410156 C 15.429688 43.59375 16.503906 44.402344 20.601562 45.84375 C 23.050781 46.703125 23.707031 46.601562 23.855469 45.324219 C 23.960938 44.429688 23.460938 44.101562 20.085938 42.851562 C 17.066406 41.734375 16.457031 41.667969 16.058594 42.40625 Z M 16.058594 42.410156 "/></g></svg>