<svg xmlns="http://www.w3.org/2000/svg" xmlns:xlink="http://www.w3.org/1999/xlink" width="69" zoomAndPan="magnify" viewBox="0 0 51.75 62.999997" height="84" preserveAspectRatio="xMidYMid meet" version="1.2"><defs><clipPath id="ef2b0fab01"><path d="M 0 0.152344 L 50.753906 0.152344 L 50.753906 60 L 0 60 Z M 0 0.152344 "/></clipPath></defs><g id="987263f882"><g clip-rule="nonzero" clip-path="url(#ef2b0fab01)"><path style=" stroke:none;fill-rule:nonzero;fill:#2995fc;fill-opacity:1;" d="M 24.15625 0.847656 C 23.878906 0.953125 23.003906 1.484375 22.210938 2.023438 C 21.074219 2.796875 20.554688 2.953125 19.730469 2.78125 C 16.03125 2 14.660156 2.238281 13 3.949219 C 12.480469 4.488281 11.78125 4.898438 11.386719 4.898438 C 10.34375 4.898438 9.457031 5.695312 9.457031 6.636719 C 9.457031 7.878906 14.863281 16.105469 14.863281 17.511719 C 14.863281 17.652344 13.691406 18.523438 12.269531 19.449219 C 6.832031 22.980469 2.082031 29.160156 0.707031 34.488281 C 0.078125 36.921875 0.015625 41.15625 0.574219 43.589844 C 3.773438 57.578125 24.933594 62.640625 37.84375 57.316406 C 44.101562 54.730469 49.164062 49.027344 50.394531 43.183594 C 50.917969 40.6875 50.628906 36.769531 49.742188 34.425781 C 47.171875 27.605469 40.199219 21.394531 34.617188 16.941406 C 35.03125 14.503906 35.644531 10.542969 36.605469 7.238281 C 37.597656 3.828125 37.605469 3.574219 36.734375 2.464844 C 36.042969 1.582031 36.027344 1.582031 32.832031 1.785156 C 30.019531 1.964844 29.441406 1.90625 28.136719 1.304688 C 25.652344 0.152344 24.1875 0.847656 24.15625 0.847656 Z M 33.449219 5.371094 C 33.449219 5.90625 31.800781 11.65625 31.585938 11.863281 C 30.964844 12.472656 16.714844 13.203125 16.570312 13.210938 L 13.628906 7.773438 C 16.5 5.351562 16.207031 5.269531 18.402344 6.101562 C 21.085938 7.121094 22.589844 5.871094 25.546875 3.980469 C 27.582031 4.875 28.308594 5.339844 31.050781 5.339844 C 31.082031 5.339844 33.449219 5.339844 33.449219 5.371094 Z M 31.144531 15.992188 C 31.144531 16.589844 29.78125 16.78125 23.554688 17.058594 C 19.351562 17.246094 18.382812 17.207031 18.148438 16.828125 C 17.917969 16.445312 18.8125 16.304688 23.429688 15.996094 C 31.457031 15.460938 31.144531 15.460938 31.144531 15.988281 Z M 47.058594 42.105469 C 45.976562 47.800781 41.101562 52.695312 34.273438 54.949219 C 31.914062 55.726562 31.078125 55.828125 26.8125 55.835938 C 21.027344 55.851562 17.746094 55.148438 12.996094 52.863281 C 6.359375 49.675781 3.214844 44.707031 3.679688 38.15625 C 4.070312 32.621094 7.132812 27.488281 12.621094 23.148438 C 16.082031 20.414062 16.828125 20.195312 22.894531 20.148438 C 25.867188 20.125 29.199219 20.003906 30.292969 19.878906 C 32.550781 19.621094 32.347656 19.523438 36.046875 22.621094 C 36.078125 22.621094 48.929688 32.304688 47.058594 42.105469 Z M 47.058594 42.105469 "/></g><path style=" stroke:none;fill-rule:nonzero;fill:#2995fc;fill-opacity:1;" d="M 22.164062 25.605469 C 22.164062 26.644531 22.039062 26.792969 20.710938 27.296875 C 18.878906 27.996094 16.945312 29.839844 16.582031 31.234375 C 15.949219 33.65625 17.519531 36.136719 20.488281 37.414062 L 22.070312 38.089844 C 22.132812 38.632812 22.59375 42.117188 22.355469 42.355469 C 22.25 42.460938 21.4375 42.511719 20.519531 42.464844 C 19.066406 42.394531 18.816406 42.484375 18.324219 43.222656 C 17.824219 43.984375 17.820312 44.136719 18.292969 44.867188 C 19.351562 46.507812 22.3125 45.347656 22.710938 46.9375 C 23.113281 48.550781 25.289062 48.761719 25.675781 47.222656 C 25.832031 46.601562 26.152344 46.425781 27.414062 46.25 C 32.882812 45.488281 35.402344 42.699219 33.464844 39.542969 C 32.125 37.351562 27.925781 36.195312 25.488281 35.402344 L 25.488281 29.808594 L 26.402344 29.816406 C 27.636719 29.828125 29.789062 30.871094 30.765625 31.925781 C 32.0625 33.332031 33.453125 32.90625 33.453125 31.105469 C 33.453125 29.398438 30.859375 27.519531 27.445312 26.75 C 25.453125 26.300781 25.171875 26.058594 25.171875 24.8125 C 25.171875 22.742188 22.992188 22.902344 22.5 23.832031 C 22.53125 23.835938 22.164062 24.378906 22.164062 25.605469 Z M 22.164062 34.523438 C 20.566406 33.59375 18.996094 32.894531 20.527344 31.265625 C 21.78125 29.933594 22.164062 30.222656 22.164062 32.5 Z M 30.476562 41.414062 C 30.476562 41.945312 28.394531 42.742188 27 42.742188 C 25.351562 42.742188 26.105469 42.511719 25.609375 40.121094 C 25.402344 39.109375 25.433594 39.058594 26.179688 39.28125 C 26.703125 39.433594 30.476562 40.875 30.476562 41.410156 Z M 30.476562 41.414062 "/><path style=" stroke:none;fill-rule:nonzero;fill:#2995fc;fill-opacity:1;" d="M 39.308594 36.414062 C 39.910156 38.371094 39.605469 39.894531 37.953125 43.117188 C 36.300781 46.34375 36.203125 47.089844 37.339844 47.675781 C 38.53125 48.296875 39.332031 47.511719 41.09375 44.003906 C 42.757812 40.683594 42.804688 40.523438 42.691406 38.21875 C 42.53125 34.929688 41.121094 33.488281 39.582031 35.023438 C 39.683594 35.023438 38.960938 35.289062 39.308594 36.414062 Z M 39.308594 36.414062 "/><path style=" stroke:none;fill-rule:nonzero;fill:#2995fc;fill-opacity:1;" d="M 8.421875 36.511719 C 7.691406 37.554688 7.691406 43.167969 8.421875 43.90625 C 9.09375 44.585938 10.003906 44.570312 10.578125 43.875 C 11.109375 43.234375 11.304688 37.300781 10.828125 36.355469 C 10.414062 35.539062 9.042969 35.628906 8.421875 36.511719 Z M 8.421875 36.511719 "/></g></svg>