<svg xmlns="http://www.w3.org/2000/svg" xmlns:xlink="http://www.w3.org/1999/xlink" width="63" zoomAndPan="magnify" viewBox="0 0 47.25 44.999999" height="60" preserveAspectRatio="xMidYMid meet" version="1.2"><defs><clipPath id="8eb3dd9f69"><path d="M 0 0.351562 L 46.511719 0.351562 L 46.511719 43.910156 L 0 43.910156 Z M 0 0.351562 "/></clipPath></defs><g id="34449be834"><g clip-rule="nonzero" clip-path="url(#8eb3dd9f69)"><path style=" stroke:none;fill-rule:nonzero;fill:#884cfc;fill-opacity:1;" d="M 8.652344 22.796875 C 8.832031 22.917969 9.03125 22.957031 9.246094 22.917969 C 9.464844 22.875 9.628906 22.757812 9.738281 22.566406 L 10.90625 20.691406 L 9.320312 40.710938 C 9.304688 40.878906 9.339844 41.039062 9.425781 41.183594 C 9.511719 41.328125 9.632812 41.4375 9.789062 41.503906 C 14.054688 43.277344 18.496094 44.15625 23.117188 44.136719 L 23.164062 44.136719 C 27.777344 44.132812 32.210938 43.234375 36.464844 41.449219 C 36.617188 41.382812 36.738281 41.273438 36.824219 41.128906 C 36.910156 40.980469 36.945312 40.824219 36.933594 40.65625 L 35.34375 20.636719 L 36.511719 22.542969 C 36.625 22.734375 36.789062 22.847656 37.003906 22.890625 C 37.21875 22.933594 37.417969 22.894531 37.597656 22.773438 L 45.835938 17.078125 C 46.003906 16.953125 46.109375 16.789062 46.144531 16.585938 C 46.183594 16.378906 46.148438 16.1875 46.035156 16.011719 C 46.035156 15.957031 42.0625 10.300781 40.039062 6.910156 C 37.820312 3.285156 30.816406 0.554688 30.503906 0.449219 L 30.457031 0.449219 C 30.382812 0.433594 30.304688 0.433594 30.226562 0.449219 L 30.027344 0.449219 C 27.714844 1.097656 25.359375 1.414062 22.957031 1.394531 C 20.667969 1.386719 18.425781 1.074219 16.222656 0.449219 L 16.046875 0.449219 C 15.976562 0.441406 15.910156 0.441406 15.839844 0.449219 L 15.746094 0.449219 C 15.445312 0.570312 8.4375 3.285156 6.210938 6.910156 C 4.15625 10.363281 0.253906 15.980469 0.214844 16.035156 C 0.101562 16.210938 0.0664062 16.402344 0.105469 16.609375 C 0.140625 16.8125 0.246094 16.976562 0.414062 17.101562 Z M 28.757812 2.332031 C 28.15625 3.335938 27.355469 4.144531 26.359375 4.761719 C 25.363281 5.375 24.285156 5.730469 23.117188 5.820312 C 20.019531 5.996094 18.246094 3.8125 17.40625 2.308594 C 19.238281 2.710938 21.089844 2.917969 22.964844 2.9375 C 24.917969 2.941406 26.847656 2.738281 28.757812 2.332031 Z M 7.53125 7.734375 C 9.121094 5.160156 13.800781 2.96875 15.578125 2.175781 C 16.53125 4.320312 18.867188 7.339844 22.726562 7.339844 L 23.15625 7.339844 C 23.953125 7.277344 24.726562 7.113281 25.476562 6.847656 C 26.230469 6.582031 26.933594 6.222656 27.589844 5.769531 C 28.242188 5.316406 28.828125 4.78125 29.34375 4.171875 C 29.855469 3.5625 30.28125 2.898438 30.617188 2.175781 C 32.371094 2.921875 37.132812 5.128906 38.703125 7.734375 C 40.378906 10.484375 43.238281 14.695312 44.320312 16.273438 L 37.378906 21.042969 L 34.953125 17.070312 C 34.851562 16.941406 34.71875 16.851562 34.558594 16.804688 C 34.398438 16.757812 34.242188 16.757812 34.085938 16.8125 C 33.925781 16.863281 33.796875 16.957031 33.699219 17.089844 C 33.597656 17.222656 33.546875 17.371094 33.539062 17.539062 L 35.359375 40.195312 C 31.449219 41.769531 27.382812 42.566406 23.164062 42.578125 L 23.117188 42.578125 C 18.882812 42.574219 14.800781 41.78125 10.875 40.195312 L 12.695312 17.539062 C 12.6875 17.371094 12.636719 17.222656 12.535156 17.089844 C 12.4375 16.957031 12.308594 16.863281 12.152344 16.8125 C 11.992188 16.757812 11.835938 16.757812 11.675781 16.804688 C 11.515625 16.851562 11.382812 16.941406 11.28125 17.070312 L 8.859375 21.042969 L 1.914062 16.273438 C 2.996094 14.695312 5.855469 10.484375 7.53125 7.734375 Z M 7.53125 7.734375 "/></g></g></svg>