<svg xmlns="http://www.w3.org/2000/svg" xmlns:xlink="http://www.w3.org/1999/xlink" width="65" zoomAndPan="magnify" viewBox="0 0 48.75 42" height="56" preserveAspectRatio="xMidYMid meet" version="1.2"><defs><clipPath id="d32577428a"><path d="M 0.445312 0 L 47.328125 0 L 47.328125 41 L 0.445312 41 Z M 0.445312 0 "/></clipPath></defs><g id="482d33219c"><g clip-rule="nonzero" clip-path="url(#d32577428a)"><path style=" stroke:none;fill-rule:nonzero;fill:#884cfc;fill-opacity:1;" d="M 44.855469 0.00390625 L 3.101562 0.00390625 C 2.75 0.00390625 2.410156 0.0703125 2.085938 0.207031 C 1.761719 0.339844 1.472656 0.535156 1.222656 0.78125 C 0.976562 1.03125 0.78125 1.320312 0.648438 1.644531 C 0.511719 1.96875 0.445312 2.308594 0.445312 2.660156 L 0.445312 30.75 C 0.445312 31.101562 0.511719 31.441406 0.648438 31.765625 C 0.78125 32.089844 0.976562 32.378906 1.222656 32.625 C 1.472656 32.875 1.761719 33.066406 2.085938 33.203125 C 2.410156 33.335938 2.75 33.40625 3.101562 33.40625 L 17.03125 33.40625 L 16.488281 37.203125 L 11.832031 37.203125 C 11.621094 37.203125 11.441406 37.277344 11.296875 37.421875 C 11.148438 37.570312 11.074219 37.75 11.074219 37.960938 L 11.074219 40.238281 C 11.074219 40.449219 11.148438 40.625 11.296875 40.773438 C 11.441406 40.921875 11.621094 40.996094 11.832031 40.996094 L 36.125 40.996094 C 36.335938 40.996094 36.511719 40.921875 36.660156 40.773438 C 36.808594 40.625 36.882812 40.449219 36.882812 40.238281 L 36.882812 37.960938 C 36.882812 37.75 36.808594 37.570312 36.660156 37.421875 C 36.511719 37.277344 36.335938 37.203125 36.125 37.203125 L 31.46875 37.203125 L 30.925781 33.40625 L 44.855469 33.40625 C 45.207031 33.40625 45.546875 33.335938 45.871094 33.203125 C 46.195312 33.066406 46.484375 32.875 46.734375 32.625 C 46.980469 32.378906 47.171875 32.089844 47.308594 31.765625 C 47.445312 31.441406 47.511719 31.101562 47.511719 30.75 L 47.511719 2.660156 C 47.511719 2.308594 47.445312 1.96875 47.308594 1.644531 C 47.171875 1.320312 46.980469 1.03125 46.734375 0.78125 C 46.484375 0.535156 46.195312 0.339844 45.871094 0.207031 C 45.546875 0.0703125 45.207031 0.00390625 44.855469 0.00390625 Z M 35.367188 38.71875 L 35.367188 39.480469 L 12.589844 39.480469 L 12.589844 38.71875 Z M 18.019531 37.203125 L 18.5625 33.40625 L 29.394531 33.40625 L 29.9375 37.203125 Z M 45.992188 30.75 C 45.992188 30.898438 45.964844 31.042969 45.90625 31.183594 C 45.847656 31.324219 45.765625 31.445312 45.660156 31.554688 C 45.554688 31.660156 45.429688 31.742188 45.289062 31.800781 C 45.152344 31.859375 45.003906 31.886719 44.855469 31.886719 L 3.101562 31.886719 C 2.949219 31.886719 2.804688 31.859375 2.667969 31.800781 C 2.527344 31.742188 2.402344 31.660156 2.296875 31.554688 C 2.191406 31.445312 2.109375 31.324219 2.050781 31.183594 C 1.992188 31.042969 1.964844 30.898438 1.964844 30.75 L 1.964844 28.851562 L 45.992188 28.851562 Z M 45.992188 27.332031 L 1.964844 27.332031 L 1.964844 2.660156 C 1.964844 2.507812 1.992188 2.363281 2.050781 2.226562 C 2.109375 2.085938 2.191406 1.960938 2.296875 1.855469 C 2.402344 1.75 2.527344 1.667969 2.667969 1.609375 C 2.804688 1.550781 2.949219 1.523438 3.101562 1.523438 L 44.855469 1.523438 C 45.003906 1.523438 45.152344 1.550781 45.289062 1.609375 C 45.429688 1.667969 45.554688 1.75 45.660156 1.855469 C 45.765625 1.960938 45.847656 2.085938 45.90625 2.226562 C 45.964844 2.363281 45.992188 2.507812 45.992188 2.660156 Z M 45.992188 27.332031 "/></g><path style=" stroke:none;fill-rule:nonzero;fill:#884cfc;fill-opacity:1;" d="M 26.253906 29.609375 L 21.699219 29.609375 C 21.492188 29.609375 21.3125 29.683594 21.164062 29.832031 C 21.015625 29.980469 20.941406 30.160156 20.941406 30.367188 C 20.941406 30.578125 21.015625 30.757812 21.164062 30.90625 C 21.3125 31.054688 21.492188 31.128906 21.699219 31.128906 L 26.253906 31.128906 C 26.464844 31.128906 26.644531 31.054688 26.792969 30.90625 C 26.941406 30.757812 27.015625 30.578125 27.015625 30.367188 C 27.015625 30.160156 26.941406 29.980469 26.792969 29.832031 C 26.644531 29.683594 26.464844 29.609375 26.253906 29.609375 Z M 26.253906 29.609375 "/></g></svg>