<svg xmlns="http://www.w3.org/2000/svg" xmlns:xlink="http://www.w3.org/1999/xlink" width="51" zoomAndPan="magnify" viewBox="0 0 38.25 49.499998" height="66" preserveAspectRatio="xMidYMid meet" version="1.2"><defs><clipPath id="9c9253c0e4"><path d="M 0 0.230469 L 37.515625 0.230469 L 37.515625 48.042969 L 0 48.042969 Z M 0 0.230469 "/></clipPath></defs><g id="3bc601ed3f"><g clip-rule="nonzero" clip-path="url(#9c9253c0e4)"><path style=" stroke:none;fill-rule:nonzero;fill:#884cfc;fill-opacity:1;" d="M 34.410156 15.554688 C 34.3125 13.402344 32.371094 11.710938 29.996094 11.710938 L 28.820312 11.710938 C 29.171875 -2.890625 8.363281 -2.882812 8.710938 11.710938 L 7.539062 11.710938 C 5.164062 11.710938 3.222656 13.402344 3.125 15.503906 L 0.15625 43.863281 C 0.015625 46.210938 2.242188 48.085938 4.570312 48.039062 C 4.570312 48.039062 32.949219 48.039062 32.949219 48.039062 C 35.300781 48.078125 37.507812 46.21875 37.363281 43.8125 Z M 10.34375 10.773438 C 10.972656 -0.972656 27.710938 -0.117188 27.191406 11.710938 L 10.34375 11.710938 Z M 35.121094 45.527344 C 34.582031 46.089844 33.789062 46.40625 32.949219 46.40625 L 4.578125 46.40625 C 3.179688 46.449219 1.738281 45.378906 1.785156 43.984375 L 4.757812 15.636719 C 4.8125 14.355469 6.035156 13.351562 7.546875 13.351562 L 8.71875 13.351562 L 8.71875 18.246094 C 8.71875 18.695312 9.085938 19.0625 9.535156 19.0625 C 9.984375 19.0625 10.351562 18.695312 10.351562 18.246094 L 10.351562 13.351562 L 27.199219 13.351562 L 27.199219 18.246094 C 27.199219 18.695312 27.566406 19.0625 28.015625 19.0625 C 28.460938 19.0625 28.828125 18.695312 28.828125 18.246094 L 28.828125 13.351562 L 30.003906 13.351562 C 31.503906 13.351562 32.730469 14.355469 32.792969 15.683594 L 35.753906 43.933594 C 35.765625 44.515625 35.542969 45.078125 35.121094 45.527344 Z M 35.121094 45.527344 "/></g><path style=" stroke:none;fill-rule:nonzero;fill:#884cfc;fill-opacity:1;" d="M 21.699219 32.433594 C 20.050781 30.84375 17.472656 30.835938 15.816406 32.433594 L 12.695312 35.453125 C 10.621094 37.34375 12.066406 41.128906 14.960938 41.007812 C 16.292969 40.992188 17.359375 40.296875 18.753906 40.3125 C 20.183594 40.289062 21.300781 40.917969 22.589844 41 C 25.429688 41.136719 26.886719 37.335938 24.816406 35.453125 C 24.824219 35.453125 21.699219 32.433594 21.699219 32.433594 Z M 24.058594 38.394531 C 23.804688 39.015625 23.265625 39.382812 22.613281 39.375 C 21.375 39.171875 20.289062 38.664062 18.753906 38.683594 C 17.261719 38.648438 16.183594 39.285156 14.921875 39.382812 C 13.566406 39.398438 12.75 37.703125 13.828125 36.625 C 13.828125 36.625 16.953125 33.609375 16.953125 33.609375 C 17.964844 32.628906 19.546875 32.628906 20.558594 33.609375 L 23.683594 36.625 C 24.269531 37.179688 24.261719 37.90625 24.058594 38.394531 Z M 24.058594 38.394531 "/><path style=" stroke:none;fill-rule:nonzero;fill:#884cfc;fill-opacity:1;" d="M 26.847656 27.863281 C 23.640625 27.300781 22.566406 33.707031 25.4375 34.316406 C 28.640625 34.878906 29.710938 28.476562 26.847656 27.863281 Z M 26.832031 31.257812 C 26.59375 32.113281 26.300781 32.628906 25.785156 32.726562 C 25.003906 32.457031 25.429688 29.527344 26.480469 29.457031 C 26.726562 29.511719 27.050781 30.253906 26.832031 31.257812 Z M 26.832031 31.257812 "/><path style=" stroke:none;fill-rule:nonzero;fill:#884cfc;fill-opacity:1;" d="M 21.554688 30.835938 C 25.109375 30.769531 25.109375 23.628906 21.554688 23.566406 C 17.996094 23.628906 17.996094 30.769531 21.554688 30.835938 Z M 21.554688 25.195312 C 22.949219 25.328125 22.949219 29.070312 21.554688 29.203125 C 20.167969 29.070312 20.167969 25.328125 21.554688 25.195312 Z M 21.554688 25.195312 "/><path style=" stroke:none;fill-rule:nonzero;fill:#884cfc;fill-opacity:1;" d="M 13.671875 30.582031 C 12.792969 26.492188 8.253906 27.121094 9.097656 31.601562 C 9.976562 35.6875 14.511719 35.066406 13.671875 30.582031 Z M 11.730469 32.726562 C 10.679688 32.652344 10.253906 29.722656 11.039062 29.464844 C 12.097656 29.527344 12.515625 32.464844 11.730469 32.726562 Z M 11.730469 32.726562 "/><path style=" stroke:none;fill-rule:nonzero;fill:#884cfc;fill-opacity:1;" d="M 15.972656 30.835938 C 19.53125 30.769531 19.53125 23.628906 15.972656 23.566406 C 12.40625 23.628906 12.40625 30.769531 15.972656 30.835938 Z M 15.972656 25.195312 C 17.367188 25.328125 17.367188 29.070312 15.972656 29.203125 C 14.578125 29.070312 14.578125 25.328125 15.972656 25.195312 Z M 15.972656 25.195312 "/></g></svg>