<svg xmlns="http://www.w3.org/2000/svg" xmlns:xlink="http://www.w3.org/1999/xlink" width="63" zoomAndPan="magnify" viewBox="0 0 47.25 45.749999" height="61" preserveAspectRatio="xMidYMid meet" version="1.2"><defs><clipPath id="971a9e3ec7"><path d="M 6 20 L 41 20 L 41 44.53125 L 6 44.53125 Z M 6 20 "/></clipPath><clipPath id="6388a3838f"><path d="M 0 0.234375 L 46.511719 0.234375 L 46.511719 21 L 0 21 Z M 0 0.234375 "/></clipPath></defs><g id="e1f543bb48"><g clip-rule="nonzero" clip-path="url(#971a9e3ec7)"><path style=" stroke:none;fill-rule:nonzero;fill:#884cfc;fill-opacity:1;" d="M 38.136719 41.558594 C 38.136719 42.152344 37.65625 42.625 37.070312 42.625 L 29.585938 42.625 C 28.992188 42.625 28.519531 42.144531 28.519531 41.558594 L 28.519531 30.460938 C 28.519531 28.691406 27.085938 27.257812 25.316406 27.257812 L 21.035156 27.257812 C 19.265625 27.257812 17.832031 28.691406 17.832031 30.460938 L 17.832031 41.558594 C 17.832031 42.152344 17.351562 42.625 16.765625 42.625 L 9.253906 42.625 C 8.660156 42.625 8.1875 42.144531 8.1875 41.558594 L 8.1875 20.171875 L 6.046875 20.171875 L 6.046875 41.558594 C 6.046875 43.328125 7.484375 44.765625 9.253906 44.765625 L 16.738281 44.765625 C 18.507812 44.765625 19.945312 43.328125 19.945312 41.558594 L 19.945312 30.460938 C 19.945312 29.871094 20.425781 29.398438 21.007812 29.398438 L 25.289062 29.398438 C 25.882812 29.398438 26.355469 29.878906 26.355469 30.460938 L 26.355469 41.558594 C 26.355469 43.328125 27.789062 44.765625 29.558594 44.765625 L 37.042969 44.765625 C 38.8125 44.765625 40.25 43.328125 40.25 41.558594 L 40.25 20.171875 L 38.109375 20.171875 Z M 38.136719 41.558594 "/></g><g clip-rule="nonzero" clip-path="url(#6388a3838f)"><path style=" stroke:none;fill-rule:nonzero;fill:#884cfc;fill-opacity:1;" d="M 25.242188 1.292969 C 24.027344 0.253906 22.277344 0.253906 21.0625 1.292969 L 0 19.355469 L 1.390625 20.976562 L 22.464844 2.914062 C 22.871094 2.570312 23.453125 2.570312 23.851562 2.914062 L 44.925781 20.976562 L 46.316406 19.355469 Z M 25.242188 1.292969 "/></g></g></svg>